G04 #@! TF.GenerationSoftware,KiCad,Pcbnew,7.0.6*
G04 #@! TF.CreationDate,2023-11-12T09:35:53+05:30*
G04 #@! TF.ProjectId,Common-Miner-Baseboard,436f6d6d-6f6e-42d4-9d69-6e65722d4261,rev?*
G04 #@! TF.SameCoordinates,Original*
G04 #@! TF.FileFunction,Legend,Bot*
G04 #@! TF.FilePolarity,Positive*
%FSLAX46Y46*%
G04 Gerber Fmt 4.6, Leading zero omitted, Abs format (unit mm)*
G04 Created by KiCad (PCBNEW 7.0.6) date 2023-11-12 09:35:53*
%MOMM*%
%LPD*%
G01*
G04 APERTURE LIST*
%ADD10C,0.300000*%
%ADD11C,0.150000*%
%ADD12C,0.120000*%
%ADD13C,0.010000*%
G04 APERTURE END LIST*
D10*
X28152290Y-73490475D02*
X28214195Y-73614285D01*
X28214195Y-73614285D02*
X28214195Y-73799999D01*
X28214195Y-73799999D02*
X28152290Y-73985713D01*
X28152290Y-73985713D02*
X28028480Y-74109523D01*
X28028480Y-74109523D02*
X27904671Y-74171428D01*
X27904671Y-74171428D02*
X27657052Y-74233332D01*
X27657052Y-74233332D02*
X27471338Y-74233332D01*
X27471338Y-74233332D02*
X27223719Y-74171428D01*
X27223719Y-74171428D02*
X27099909Y-74109523D01*
X27099909Y-74109523D02*
X26976100Y-73985713D01*
X26976100Y-73985713D02*
X26914195Y-73799999D01*
X26914195Y-73799999D02*
X26914195Y-73676190D01*
X26914195Y-73676190D02*
X26976100Y-73490475D01*
X26976100Y-73490475D02*
X27038004Y-73428571D01*
X27038004Y-73428571D02*
X27471338Y-73428571D01*
X27471338Y-73428571D02*
X27471338Y-73676190D01*
X26914195Y-72871428D02*
X28214195Y-72871428D01*
X28214195Y-72871428D02*
X26914195Y-72128571D01*
X26914195Y-72128571D02*
X28214195Y-72128571D01*
X26914195Y-71509523D02*
X28214195Y-71509523D01*
X28214195Y-71509523D02*
X28214195Y-71199999D01*
X28214195Y-71199999D02*
X28152290Y-71014285D01*
X28152290Y-71014285D02*
X28028480Y-70890475D01*
X28028480Y-70890475D02*
X27904671Y-70828570D01*
X27904671Y-70828570D02*
X27657052Y-70766666D01*
X27657052Y-70766666D02*
X27471338Y-70766666D01*
X27471338Y-70766666D02*
X27223719Y-70828570D01*
X27223719Y-70828570D02*
X27099909Y-70890475D01*
X27099909Y-70890475D02*
X26976100Y-71014285D01*
X26976100Y-71014285D02*
X26914195Y-71199999D01*
X26914195Y-71199999D02*
X26914195Y-71509523D01*
X28214195Y-57747618D02*
X28214195Y-58366666D01*
X28214195Y-58366666D02*
X27595147Y-58428570D01*
X27595147Y-58428570D02*
X27657052Y-58366666D01*
X27657052Y-58366666D02*
X27718957Y-58242856D01*
X27718957Y-58242856D02*
X27718957Y-57933332D01*
X27718957Y-57933332D02*
X27657052Y-57809523D01*
X27657052Y-57809523D02*
X27595147Y-57747618D01*
X27595147Y-57747618D02*
X27471338Y-57685713D01*
X27471338Y-57685713D02*
X27161814Y-57685713D01*
X27161814Y-57685713D02*
X27038004Y-57747618D01*
X27038004Y-57747618D02*
X26976100Y-57809523D01*
X26976100Y-57809523D02*
X26914195Y-57933332D01*
X26914195Y-57933332D02*
X26914195Y-58242856D01*
X26914195Y-58242856D02*
X26976100Y-58366666D01*
X26976100Y-58366666D02*
X27038004Y-58428570D01*
X28214195Y-57314285D02*
X26914195Y-56880952D01*
X26914195Y-56880952D02*
X28214195Y-56447618D01*
X26976100Y-69047618D02*
X26914195Y-68861904D01*
X26914195Y-68861904D02*
X26914195Y-68552380D01*
X26914195Y-68552380D02*
X26976100Y-68428571D01*
X26976100Y-68428571D02*
X27038004Y-68366666D01*
X27038004Y-68366666D02*
X27161814Y-68304761D01*
X27161814Y-68304761D02*
X27285623Y-68304761D01*
X27285623Y-68304761D02*
X27409433Y-68366666D01*
X27409433Y-68366666D02*
X27471338Y-68428571D01*
X27471338Y-68428571D02*
X27533242Y-68552380D01*
X27533242Y-68552380D02*
X27595147Y-68799999D01*
X27595147Y-68799999D02*
X27657052Y-68923809D01*
X27657052Y-68923809D02*
X27718957Y-68985714D01*
X27718957Y-68985714D02*
X27842766Y-69047618D01*
X27842766Y-69047618D02*
X27966576Y-69047618D01*
X27966576Y-69047618D02*
X28090385Y-68985714D01*
X28090385Y-68985714D02*
X28152290Y-68923809D01*
X28152290Y-68923809D02*
X28214195Y-68799999D01*
X28214195Y-68799999D02*
X28214195Y-68490476D01*
X28214195Y-68490476D02*
X28152290Y-68304761D01*
X27038004Y-67004762D02*
X26976100Y-67066666D01*
X26976100Y-67066666D02*
X26914195Y-67252381D01*
X26914195Y-67252381D02*
X26914195Y-67376190D01*
X26914195Y-67376190D02*
X26976100Y-67561904D01*
X26976100Y-67561904D02*
X27099909Y-67685714D01*
X27099909Y-67685714D02*
X27223719Y-67747619D01*
X27223719Y-67747619D02*
X27471338Y-67809523D01*
X27471338Y-67809523D02*
X27657052Y-67809523D01*
X27657052Y-67809523D02*
X27904671Y-67747619D01*
X27904671Y-67747619D02*
X28028480Y-67685714D01*
X28028480Y-67685714D02*
X28152290Y-67561904D01*
X28152290Y-67561904D02*
X28214195Y-67376190D01*
X28214195Y-67376190D02*
X28214195Y-67252381D01*
X28214195Y-67252381D02*
X28152290Y-67066666D01*
X28152290Y-67066666D02*
X28090385Y-67004762D01*
X26914195Y-65828571D02*
X26914195Y-66447619D01*
X26914195Y-66447619D02*
X28214195Y-66447619D01*
X26976100Y-64078570D02*
X26914195Y-63892856D01*
X26914195Y-63892856D02*
X26914195Y-63583332D01*
X26914195Y-63583332D02*
X26976100Y-63459523D01*
X26976100Y-63459523D02*
X27038004Y-63397618D01*
X27038004Y-63397618D02*
X27161814Y-63335713D01*
X27161814Y-63335713D02*
X27285623Y-63335713D01*
X27285623Y-63335713D02*
X27409433Y-63397618D01*
X27409433Y-63397618D02*
X27471338Y-63459523D01*
X27471338Y-63459523D02*
X27533242Y-63583332D01*
X27533242Y-63583332D02*
X27595147Y-63830951D01*
X27595147Y-63830951D02*
X27657052Y-63954761D01*
X27657052Y-63954761D02*
X27718957Y-64016666D01*
X27718957Y-64016666D02*
X27842766Y-64078570D01*
X27842766Y-64078570D02*
X27966576Y-64078570D01*
X27966576Y-64078570D02*
X28090385Y-64016666D01*
X28090385Y-64016666D02*
X28152290Y-63954761D01*
X28152290Y-63954761D02*
X28214195Y-63830951D01*
X28214195Y-63830951D02*
X28214195Y-63521428D01*
X28214195Y-63521428D02*
X28152290Y-63335713D01*
X26914195Y-62778571D02*
X28214195Y-62778571D01*
X28214195Y-62778571D02*
X28214195Y-62469047D01*
X28214195Y-62469047D02*
X28152290Y-62283333D01*
X28152290Y-62283333D02*
X28028480Y-62159523D01*
X28028480Y-62159523D02*
X27904671Y-62097618D01*
X27904671Y-62097618D02*
X27657052Y-62035714D01*
X27657052Y-62035714D02*
X27471338Y-62035714D01*
X27471338Y-62035714D02*
X27223719Y-62097618D01*
X27223719Y-62097618D02*
X27099909Y-62159523D01*
X27099909Y-62159523D02*
X26976100Y-62283333D01*
X26976100Y-62283333D02*
X26914195Y-62469047D01*
X26914195Y-62469047D02*
X26914195Y-62778571D01*
X27285623Y-61540475D02*
X27285623Y-60921428D01*
X26914195Y-61664285D02*
X28214195Y-61230952D01*
X28214195Y-61230952D02*
X26914195Y-60797618D01*
D11*
X36142857Y-64604819D02*
X36476190Y-64128628D01*
X36714285Y-64604819D02*
X36714285Y-63604819D01*
X36714285Y-63604819D02*
X36333333Y-63604819D01*
X36333333Y-63604819D02*
X36238095Y-63652438D01*
X36238095Y-63652438D02*
X36190476Y-63700057D01*
X36190476Y-63700057D02*
X36142857Y-63795295D01*
X36142857Y-63795295D02*
X36142857Y-63938152D01*
X36142857Y-63938152D02*
X36190476Y-64033390D01*
X36190476Y-64033390D02*
X36238095Y-64081009D01*
X36238095Y-64081009D02*
X36333333Y-64128628D01*
X36333333Y-64128628D02*
X36714285Y-64128628D01*
X35190476Y-64604819D02*
X35761904Y-64604819D01*
X35476190Y-64604819D02*
X35476190Y-63604819D01*
X35476190Y-63604819D02*
X35571428Y-63747676D01*
X35571428Y-63747676D02*
X35666666Y-63842914D01*
X35666666Y-63842914D02*
X35761904Y-63890533D01*
X34809523Y-63700057D02*
X34761904Y-63652438D01*
X34761904Y-63652438D02*
X34666666Y-63604819D01*
X34666666Y-63604819D02*
X34428571Y-63604819D01*
X34428571Y-63604819D02*
X34333333Y-63652438D01*
X34333333Y-63652438D02*
X34285714Y-63700057D01*
X34285714Y-63700057D02*
X34238095Y-63795295D01*
X34238095Y-63795295D02*
X34238095Y-63890533D01*
X34238095Y-63890533D02*
X34285714Y-64033390D01*
X34285714Y-64033390D02*
X34857142Y-64604819D01*
X34857142Y-64604819D02*
X34238095Y-64604819D01*
X36142857Y-69604819D02*
X36476190Y-69128628D01*
X36714285Y-69604819D02*
X36714285Y-68604819D01*
X36714285Y-68604819D02*
X36333333Y-68604819D01*
X36333333Y-68604819D02*
X36238095Y-68652438D01*
X36238095Y-68652438D02*
X36190476Y-68700057D01*
X36190476Y-68700057D02*
X36142857Y-68795295D01*
X36142857Y-68795295D02*
X36142857Y-68938152D01*
X36142857Y-68938152D02*
X36190476Y-69033390D01*
X36190476Y-69033390D02*
X36238095Y-69081009D01*
X36238095Y-69081009D02*
X36333333Y-69128628D01*
X36333333Y-69128628D02*
X36714285Y-69128628D01*
X35190476Y-69604819D02*
X35761904Y-69604819D01*
X35476190Y-69604819D02*
X35476190Y-68604819D01*
X35476190Y-68604819D02*
X35571428Y-68747676D01*
X35571428Y-68747676D02*
X35666666Y-68842914D01*
X35666666Y-68842914D02*
X35761904Y-68890533D01*
X34857142Y-68604819D02*
X34238095Y-68604819D01*
X34238095Y-68604819D02*
X34571428Y-68985771D01*
X34571428Y-68985771D02*
X34428571Y-68985771D01*
X34428571Y-68985771D02*
X34333333Y-69033390D01*
X34333333Y-69033390D02*
X34285714Y-69081009D01*
X34285714Y-69081009D02*
X34238095Y-69176247D01*
X34238095Y-69176247D02*
X34238095Y-69414342D01*
X34238095Y-69414342D02*
X34285714Y-69509580D01*
X34285714Y-69509580D02*
X34333333Y-69557200D01*
X34333333Y-69557200D02*
X34428571Y-69604819D01*
X34428571Y-69604819D02*
X34714285Y-69604819D01*
X34714285Y-69604819D02*
X34809523Y-69557200D01*
X34809523Y-69557200D02*
X34857142Y-69509580D01*
D12*
G04 #@! TO.C,R12*
X35241422Y-61790000D02*
X35758578Y-61790000D01*
X35241422Y-63210000D02*
X35758578Y-63210000D01*
G04 #@! TO.C,R13*
X35241422Y-66790000D02*
X35758578Y-66790000D01*
X35241422Y-68210000D02*
X35758578Y-68210000D01*
G04 #@! TO.C,G\u002A\u002A\u002A*
D13*
X83743856Y-78053374D02*
X83763009Y-78091461D01*
X83791503Y-78150164D01*
X83827138Y-78224779D01*
X83867715Y-78310600D01*
X83911034Y-78402922D01*
X83954896Y-78497040D01*
X83997099Y-78588249D01*
X84035445Y-78671844D01*
X84067734Y-78743119D01*
X84091766Y-78797369D01*
X84105342Y-78829889D01*
X84108587Y-78843759D01*
X84100056Y-78849599D01*
X84072761Y-78846396D01*
X84020237Y-78834500D01*
X83992998Y-78828204D01*
X83931031Y-78814408D01*
X83846704Y-78795987D01*
X83745708Y-78774174D01*
X83633730Y-78750203D01*
X83516462Y-78725306D01*
X83108214Y-78639005D01*
X83418139Y-78339882D01*
X83497084Y-78263944D01*
X83572906Y-78191539D01*
X83637917Y-78130011D01*
X83688938Y-78082349D01*
X83722796Y-78051541D01*
X83736313Y-78040573D01*
X83743856Y-78053374D01*
G36*
X83743856Y-78053374D02*
G01*
X83763009Y-78091461D01*
X83791503Y-78150164D01*
X83827138Y-78224779D01*
X83867715Y-78310600D01*
X83911034Y-78402922D01*
X83954896Y-78497040D01*
X83997099Y-78588249D01*
X84035445Y-78671844D01*
X84067734Y-78743119D01*
X84091766Y-78797369D01*
X84105342Y-78829889D01*
X84108587Y-78843759D01*
X84100056Y-78849599D01*
X84072761Y-78846396D01*
X84020237Y-78834500D01*
X83992998Y-78828204D01*
X83931031Y-78814408D01*
X83846704Y-78795987D01*
X83745708Y-78774174D01*
X83633730Y-78750203D01*
X83516462Y-78725306D01*
X83108214Y-78639005D01*
X83418139Y-78339882D01*
X83497084Y-78263944D01*
X83572906Y-78191539D01*
X83637917Y-78130011D01*
X83688938Y-78082349D01*
X83722796Y-78051541D01*
X83736313Y-78040573D01*
X83743856Y-78053374D01*
G37*
X76270092Y-78050125D02*
X76302744Y-78079211D01*
X76352388Y-78125718D01*
X76415935Y-78186711D01*
X76490296Y-78259256D01*
X76572381Y-78340417D01*
X76652900Y-78420681D01*
X76726214Y-78494054D01*
X76788149Y-78556342D01*
X76835732Y-78604547D01*
X76865992Y-78635670D01*
X76875955Y-78646710D01*
X76870002Y-78647666D01*
X76837013Y-78654116D01*
X76779865Y-78665729D01*
X76703696Y-78681429D01*
X76613643Y-78700138D01*
X76514846Y-78720780D01*
X76412441Y-78742276D01*
X76311567Y-78763551D01*
X76217360Y-78783526D01*
X76134960Y-78801125D01*
X76069504Y-78815270D01*
X76026129Y-78824884D01*
X76005858Y-78829439D01*
X75948250Y-78841515D01*
X75906750Y-78848894D01*
X75889244Y-78850122D01*
X75890788Y-78844500D01*
X75903158Y-78814049D01*
X75925955Y-78761333D01*
X75957044Y-78691040D01*
X75994288Y-78607861D01*
X76035553Y-78516486D01*
X76078702Y-78421606D01*
X76121599Y-78327911D01*
X76162109Y-78240089D01*
X76198095Y-78162833D01*
X76227422Y-78100831D01*
X76247954Y-78058774D01*
X76257554Y-78041353D01*
X76270092Y-78050125D01*
G36*
X76270092Y-78050125D02*
G01*
X76302744Y-78079211D01*
X76352388Y-78125718D01*
X76415935Y-78186711D01*
X76490296Y-78259256D01*
X76572381Y-78340417D01*
X76652900Y-78420681D01*
X76726214Y-78494054D01*
X76788149Y-78556342D01*
X76835732Y-78604547D01*
X76865992Y-78635670D01*
X76875955Y-78646710D01*
X76870002Y-78647666D01*
X76837013Y-78654116D01*
X76779865Y-78665729D01*
X76703696Y-78681429D01*
X76613643Y-78700138D01*
X76514846Y-78720780D01*
X76412441Y-78742276D01*
X76311567Y-78763551D01*
X76217360Y-78783526D01*
X76134960Y-78801125D01*
X76069504Y-78815270D01*
X76026129Y-78824884D01*
X76005858Y-78829439D01*
X75948250Y-78841515D01*
X75906750Y-78848894D01*
X75889244Y-78850122D01*
X75890788Y-78844500D01*
X75903158Y-78814049D01*
X75925955Y-78761333D01*
X75957044Y-78691040D01*
X75994288Y-78607861D01*
X76035553Y-78516486D01*
X76078702Y-78421606D01*
X76121599Y-78327911D01*
X76162109Y-78240089D01*
X76198095Y-78162833D01*
X76227422Y-78100831D01*
X76247954Y-78058774D01*
X76257554Y-78041353D01*
X76270092Y-78050125D01*
G37*
X83539021Y-76046002D02*
X83556459Y-76078273D01*
X83584018Y-76133120D01*
X83619694Y-76206254D01*
X83661485Y-76293382D01*
X83707386Y-76390213D01*
X83755394Y-76492456D01*
X83803505Y-76595820D01*
X83849717Y-76696014D01*
X83892026Y-76788746D01*
X83928428Y-76869725D01*
X83956920Y-76934660D01*
X83975498Y-76979260D01*
X83982159Y-76999233D01*
X83980687Y-77001755D01*
X83961457Y-77023641D01*
X83921490Y-77065837D01*
X83862729Y-77126380D01*
X83787115Y-77203308D01*
X83696593Y-77294658D01*
X83593103Y-77398466D01*
X83478588Y-77512771D01*
X83354992Y-77635609D01*
X83224256Y-77765019D01*
X83176850Y-77811821D01*
X83048016Y-77938707D01*
X82926565Y-78057881D01*
X82814482Y-78167421D01*
X82713752Y-78265405D01*
X82626360Y-78349911D01*
X82554291Y-78419018D01*
X82499529Y-78470804D01*
X82464061Y-78503347D01*
X82449871Y-78514725D01*
X82435856Y-78513493D01*
X82393429Y-78508098D01*
X82328696Y-78499147D01*
X82247305Y-78487425D01*
X82154903Y-78473716D01*
X82067575Y-78461047D01*
X81939832Y-78443548D01*
X81800670Y-78425369D01*
X81661773Y-78408028D01*
X81534822Y-78393047D01*
X81502462Y-78389345D01*
X81403450Y-78377661D01*
X81317451Y-78366983D01*
X81249355Y-78357950D01*
X81204055Y-78351205D01*
X81186441Y-78347388D01*
X81188850Y-78344058D01*
X81210303Y-78321165D01*
X81252347Y-78278184D01*
X81313079Y-78216988D01*
X81390595Y-78139447D01*
X81482992Y-78047435D01*
X81588366Y-77942823D01*
X81704813Y-77827483D01*
X81830429Y-77703286D01*
X81963311Y-77572105D01*
X82101555Y-77435812D01*
X82243257Y-77296278D01*
X82386515Y-77155375D01*
X82529423Y-77014975D01*
X82670078Y-76876951D01*
X82806577Y-76743173D01*
X82937016Y-76615514D01*
X83059491Y-76495846D01*
X83172098Y-76386040D01*
X83272935Y-76287968D01*
X83360096Y-76203503D01*
X83431679Y-76134516D01*
X83485780Y-76082879D01*
X83520495Y-76050464D01*
X83533920Y-76039143D01*
X83539021Y-76046002D01*
G36*
X83539021Y-76046002D02*
G01*
X83556459Y-76078273D01*
X83584018Y-76133120D01*
X83619694Y-76206254D01*
X83661485Y-76293382D01*
X83707386Y-76390213D01*
X83755394Y-76492456D01*
X83803505Y-76595820D01*
X83849717Y-76696014D01*
X83892026Y-76788746D01*
X83928428Y-76869725D01*
X83956920Y-76934660D01*
X83975498Y-76979260D01*
X83982159Y-76999233D01*
X83980687Y-77001755D01*
X83961457Y-77023641D01*
X83921490Y-77065837D01*
X83862729Y-77126380D01*
X83787115Y-77203308D01*
X83696593Y-77294658D01*
X83593103Y-77398466D01*
X83478588Y-77512771D01*
X83354992Y-77635609D01*
X83224256Y-77765019D01*
X83176850Y-77811821D01*
X83048016Y-77938707D01*
X82926565Y-78057881D01*
X82814482Y-78167421D01*
X82713752Y-78265405D01*
X82626360Y-78349911D01*
X82554291Y-78419018D01*
X82499529Y-78470804D01*
X82464061Y-78503347D01*
X82449871Y-78514725D01*
X82435856Y-78513493D01*
X82393429Y-78508098D01*
X82328696Y-78499147D01*
X82247305Y-78487425D01*
X82154903Y-78473716D01*
X82067575Y-78461047D01*
X81939832Y-78443548D01*
X81800670Y-78425369D01*
X81661773Y-78408028D01*
X81534822Y-78393047D01*
X81502462Y-78389345D01*
X81403450Y-78377661D01*
X81317451Y-78366983D01*
X81249355Y-78357950D01*
X81204055Y-78351205D01*
X81186441Y-78347388D01*
X81188850Y-78344058D01*
X81210303Y-78321165D01*
X81252347Y-78278184D01*
X81313079Y-78216988D01*
X81390595Y-78139447D01*
X81482992Y-78047435D01*
X81588366Y-77942823D01*
X81704813Y-77827483D01*
X81830429Y-77703286D01*
X81963311Y-77572105D01*
X82101555Y-77435812D01*
X82243257Y-77296278D01*
X82386515Y-77155375D01*
X82529423Y-77014975D01*
X82670078Y-76876951D01*
X82806577Y-76743173D01*
X82937016Y-76615514D01*
X83059491Y-76495846D01*
X83172098Y-76386040D01*
X83272935Y-76287968D01*
X83360096Y-76203503D01*
X83431679Y-76134516D01*
X83485780Y-76082879D01*
X83520495Y-76050464D01*
X83533920Y-76039143D01*
X83539021Y-76046002D01*
G37*
X76467246Y-76038659D02*
X76492436Y-76061011D01*
X76537832Y-76103537D01*
X76601538Y-76164363D01*
X76681656Y-76241616D01*
X76776288Y-76333422D01*
X76883537Y-76437909D01*
X77001505Y-76553202D01*
X77128296Y-76677430D01*
X77262011Y-76808718D01*
X77400753Y-76945193D01*
X77542624Y-77084981D01*
X77685728Y-77226211D01*
X77828166Y-77367008D01*
X77968042Y-77505499D01*
X78103457Y-77639810D01*
X78232515Y-77768069D01*
X78353317Y-77888403D01*
X78463967Y-77998937D01*
X78562567Y-78097799D01*
X78647220Y-78183116D01*
X78716028Y-78253013D01*
X78767093Y-78305618D01*
X78798518Y-78339058D01*
X78808406Y-78351459D01*
X78805540Y-78352672D01*
X78776808Y-78358469D01*
X78722040Y-78366729D01*
X78646226Y-78376780D01*
X78554356Y-78387949D01*
X78451419Y-78399564D01*
X78339887Y-78412206D01*
X78209514Y-78428007D01*
X78080812Y-78444535D01*
X77964095Y-78460461D01*
X77869677Y-78474458D01*
X77837765Y-78479443D01*
X77751479Y-78492441D01*
X77675888Y-78503161D01*
X77618210Y-78510605D01*
X77585662Y-78513773D01*
X77575215Y-78512185D01*
X77559249Y-78504866D01*
X77537098Y-78490175D01*
X77507061Y-78466534D01*
X77467435Y-78432367D01*
X77416518Y-78386095D01*
X77352609Y-78326141D01*
X77274005Y-78250930D01*
X77179004Y-78158883D01*
X77065904Y-78048423D01*
X76933002Y-77917973D01*
X76778597Y-77765956D01*
X76729629Y-77717661D01*
X76600985Y-77590441D01*
X76480199Y-77470503D01*
X76369214Y-77359803D01*
X76269974Y-77260301D01*
X76184421Y-77173955D01*
X76114498Y-77102721D01*
X76062147Y-77048560D01*
X76029312Y-77013429D01*
X76017935Y-76999286D01*
X76021241Y-76989002D01*
X76036368Y-76952368D01*
X76061944Y-76893779D01*
X76095974Y-76817556D01*
X76136465Y-76728017D01*
X76181424Y-76629483D01*
X76228856Y-76526271D01*
X76276769Y-76422701D01*
X76323169Y-76323092D01*
X76366062Y-76231764D01*
X76403456Y-76153035D01*
X76433356Y-76091226D01*
X76453769Y-76050654D01*
X76462701Y-76035640D01*
X76467246Y-76038659D01*
G36*
X76467246Y-76038659D02*
G01*
X76492436Y-76061011D01*
X76537832Y-76103537D01*
X76601538Y-76164363D01*
X76681656Y-76241616D01*
X76776288Y-76333422D01*
X76883537Y-76437909D01*
X77001505Y-76553202D01*
X77128296Y-76677430D01*
X77262011Y-76808718D01*
X77400753Y-76945193D01*
X77542624Y-77084981D01*
X77685728Y-77226211D01*
X77828166Y-77367008D01*
X77968042Y-77505499D01*
X78103457Y-77639810D01*
X78232515Y-77768069D01*
X78353317Y-77888403D01*
X78463967Y-77998937D01*
X78562567Y-78097799D01*
X78647220Y-78183116D01*
X78716028Y-78253013D01*
X78767093Y-78305618D01*
X78798518Y-78339058D01*
X78808406Y-78351459D01*
X78805540Y-78352672D01*
X78776808Y-78358469D01*
X78722040Y-78366729D01*
X78646226Y-78376780D01*
X78554356Y-78387949D01*
X78451419Y-78399564D01*
X78339887Y-78412206D01*
X78209514Y-78428007D01*
X78080812Y-78444535D01*
X77964095Y-78460461D01*
X77869677Y-78474458D01*
X77837765Y-78479443D01*
X77751479Y-78492441D01*
X77675888Y-78503161D01*
X77618210Y-78510605D01*
X77585662Y-78513773D01*
X77575215Y-78512185D01*
X77559249Y-78504866D01*
X77537098Y-78490175D01*
X77507061Y-78466534D01*
X77467435Y-78432367D01*
X77416518Y-78386095D01*
X77352609Y-78326141D01*
X77274005Y-78250930D01*
X77179004Y-78158883D01*
X77065904Y-78048423D01*
X76933002Y-77917973D01*
X76778597Y-77765956D01*
X76729629Y-77717661D01*
X76600985Y-77590441D01*
X76480199Y-77470503D01*
X76369214Y-77359803D01*
X76269974Y-77260301D01*
X76184421Y-77173955D01*
X76114498Y-77102721D01*
X76062147Y-77048560D01*
X76029312Y-77013429D01*
X76017935Y-76999286D01*
X76021241Y-76989002D01*
X76036368Y-76952368D01*
X76061944Y-76893779D01*
X76095974Y-76817556D01*
X76136465Y-76728017D01*
X76181424Y-76629483D01*
X76228856Y-76526271D01*
X76276769Y-76422701D01*
X76323169Y-76323092D01*
X76366062Y-76231764D01*
X76403456Y-76153035D01*
X76433356Y-76091226D01*
X76453769Y-76050654D01*
X76462701Y-76035640D01*
X76467246Y-76038659D01*
G37*
X83312826Y-73999506D02*
X83329827Y-74031307D01*
X83357766Y-74087132D01*
X83394949Y-74163491D01*
X83439683Y-74256895D01*
X83490275Y-74363857D01*
X83545032Y-74480886D01*
X83771677Y-74967807D01*
X81894155Y-76840033D01*
X81733783Y-76999892D01*
X81531427Y-77201426D01*
X81336216Y-77395650D01*
X81149382Y-77581345D01*
X80972161Y-77757291D01*
X80805784Y-77922270D01*
X80651488Y-78075060D01*
X80510505Y-78214443D01*
X80384069Y-78339198D01*
X80273415Y-78448107D01*
X80179775Y-78539949D01*
X80104386Y-78613505D01*
X80048479Y-78667555D01*
X80013289Y-78700879D01*
X80000050Y-78712258D01*
X79998154Y-78711077D01*
X79977257Y-78692442D01*
X79934403Y-78651884D01*
X79870532Y-78590333D01*
X79786585Y-78508720D01*
X79683502Y-78407973D01*
X79562226Y-78289023D01*
X79423695Y-78152798D01*
X79268853Y-78000229D01*
X79098639Y-77832245D01*
X78913994Y-77649776D01*
X78715859Y-77453752D01*
X78505176Y-77245101D01*
X78282884Y-77024754D01*
X78049926Y-76793641D01*
X77807241Y-76552691D01*
X77555772Y-76302833D01*
X77296458Y-76044997D01*
X77030240Y-75780114D01*
X76758061Y-75509112D01*
X76228186Y-74981350D01*
X76476014Y-74485907D01*
X76520815Y-74396891D01*
X76576853Y-74287166D01*
X76627338Y-74190130D01*
X76670483Y-74109125D01*
X76704502Y-74047492D01*
X76727608Y-74008576D01*
X76738016Y-73995716D01*
X76744098Y-74001016D01*
X76771846Y-74027299D01*
X76820719Y-74074401D01*
X76889373Y-74141009D01*
X76976463Y-74225806D01*
X77080645Y-74327477D01*
X77200576Y-74444708D01*
X77334910Y-74576184D01*
X77482303Y-74720588D01*
X77641412Y-74876606D01*
X77810892Y-75042923D01*
X77989398Y-75218224D01*
X78175587Y-75401194D01*
X78368114Y-75590517D01*
X78495302Y-75715605D01*
X78683760Y-75900860D01*
X78864970Y-76078884D01*
X79037590Y-76248363D01*
X79200279Y-76407983D01*
X79351694Y-76556431D01*
X79490494Y-76692392D01*
X79615335Y-76814554D01*
X79724877Y-76921602D01*
X79817777Y-77012222D01*
X79892693Y-77085101D01*
X79948282Y-77138925D01*
X79983204Y-77172380D01*
X79996116Y-77184153D01*
X80003552Y-77178325D01*
X80033065Y-77151489D01*
X80083728Y-77104040D01*
X80154201Y-77037268D01*
X80243142Y-76952461D01*
X80349210Y-76850911D01*
X80471063Y-76733907D01*
X80607360Y-76602738D01*
X80756760Y-76458695D01*
X80917922Y-76303068D01*
X81089503Y-76137145D01*
X81270164Y-75962218D01*
X81458562Y-75779576D01*
X81653356Y-75590508D01*
X81798187Y-75449893D01*
X81988344Y-75265393D01*
X82171083Y-75088229D01*
X82345065Y-74919694D01*
X82508948Y-74761081D01*
X82661395Y-74613683D01*
X82801064Y-74478793D01*
X82926617Y-74357703D01*
X83036713Y-74251706D01*
X83130012Y-74162096D01*
X83205176Y-74090164D01*
X83260864Y-74037204D01*
X83295736Y-74004508D01*
X83308453Y-73993370D01*
X83312826Y-73999506D01*
G36*
X83312826Y-73999506D02*
G01*
X83329827Y-74031307D01*
X83357766Y-74087132D01*
X83394949Y-74163491D01*
X83439683Y-74256895D01*
X83490275Y-74363857D01*
X83545032Y-74480886D01*
X83771677Y-74967807D01*
X81894155Y-76840033D01*
X81733783Y-76999892D01*
X81531427Y-77201426D01*
X81336216Y-77395650D01*
X81149382Y-77581345D01*
X80972161Y-77757291D01*
X80805784Y-77922270D01*
X80651488Y-78075060D01*
X80510505Y-78214443D01*
X80384069Y-78339198D01*
X80273415Y-78448107D01*
X80179775Y-78539949D01*
X80104386Y-78613505D01*
X80048479Y-78667555D01*
X80013289Y-78700879D01*
X80000050Y-78712258D01*
X79998154Y-78711077D01*
X79977257Y-78692442D01*
X79934403Y-78651884D01*
X79870532Y-78590333D01*
X79786585Y-78508720D01*
X79683502Y-78407973D01*
X79562226Y-78289023D01*
X79423695Y-78152798D01*
X79268853Y-78000229D01*
X79098639Y-77832245D01*
X78913994Y-77649776D01*
X78715859Y-77453752D01*
X78505176Y-77245101D01*
X78282884Y-77024754D01*
X78049926Y-76793641D01*
X77807241Y-76552691D01*
X77555772Y-76302833D01*
X77296458Y-76044997D01*
X77030240Y-75780114D01*
X76758061Y-75509112D01*
X76228186Y-74981350D01*
X76476014Y-74485907D01*
X76520815Y-74396891D01*
X76576853Y-74287166D01*
X76627338Y-74190130D01*
X76670483Y-74109125D01*
X76704502Y-74047492D01*
X76727608Y-74008576D01*
X76738016Y-73995716D01*
X76744098Y-74001016D01*
X76771846Y-74027299D01*
X76820719Y-74074401D01*
X76889373Y-74141009D01*
X76976463Y-74225806D01*
X77080645Y-74327477D01*
X77200576Y-74444708D01*
X77334910Y-74576184D01*
X77482303Y-74720588D01*
X77641412Y-74876606D01*
X77810892Y-75042923D01*
X77989398Y-75218224D01*
X78175587Y-75401194D01*
X78368114Y-75590517D01*
X78495302Y-75715605D01*
X78683760Y-75900860D01*
X78864970Y-76078884D01*
X79037590Y-76248363D01*
X79200279Y-76407983D01*
X79351694Y-76556431D01*
X79490494Y-76692392D01*
X79615335Y-76814554D01*
X79724877Y-76921602D01*
X79817777Y-77012222D01*
X79892693Y-77085101D01*
X79948282Y-77138925D01*
X79983204Y-77172380D01*
X79996116Y-77184153D01*
X80003552Y-77178325D01*
X80033065Y-77151489D01*
X80083728Y-77104040D01*
X80154201Y-77037268D01*
X80243142Y-76952461D01*
X80349210Y-76850911D01*
X80471063Y-76733907D01*
X80607360Y-76602738D01*
X80756760Y-76458695D01*
X80917922Y-76303068D01*
X81089503Y-76137145D01*
X81270164Y-75962218D01*
X81458562Y-75779576D01*
X81653356Y-75590508D01*
X81798187Y-75449893D01*
X81988344Y-75265393D01*
X82171083Y-75088229D01*
X82345065Y-74919694D01*
X82508948Y-74761081D01*
X82661395Y-74613683D01*
X82801064Y-74478793D01*
X82926617Y-74357703D01*
X83036713Y-74251706D01*
X83130012Y-74162096D01*
X83205176Y-74090164D01*
X83260864Y-74037204D01*
X83295736Y-74004508D01*
X83308453Y-73993370D01*
X83312826Y-73999506D01*
G37*
X131054578Y-64269112D02*
X130254679Y-64269112D01*
X130177317Y-64269116D01*
X130105338Y-64269126D01*
X130038540Y-64269144D01*
X129976725Y-64269169D01*
X129919692Y-64269204D01*
X129867239Y-64269249D01*
X129819167Y-64269305D01*
X129775276Y-64269374D01*
X129735365Y-64269457D01*
X129699233Y-64269555D01*
X129666681Y-64269669D01*
X129637508Y-64269799D01*
X129611514Y-64269948D01*
X129588498Y-64270116D01*
X129568260Y-64270305D01*
X129550600Y-64270515D01*
X129535317Y-64270747D01*
X129522210Y-64271003D01*
X129511081Y-64271284D01*
X129501727Y-64271591D01*
X129493950Y-64271925D01*
X129487547Y-64272287D01*
X129482320Y-64272678D01*
X129478068Y-64273099D01*
X129474590Y-64273552D01*
X129455286Y-64276931D01*
X129411128Y-64288695D01*
X129368660Y-64305767D01*
X129327982Y-64328064D01*
X129289193Y-64355501D01*
X129252392Y-64387995D01*
X129217678Y-64425461D01*
X129185152Y-64467816D01*
X129154912Y-64514976D01*
X129127058Y-64566857D01*
X129122680Y-64575884D01*
X129103795Y-64618065D01*
X129087689Y-64660193D01*
X129074039Y-64703384D01*
X129062520Y-64748754D01*
X129052808Y-64797417D01*
X129044577Y-64850490D01*
X129043056Y-64862042D01*
X129041630Y-64874293D01*
X129040510Y-64886288D01*
X129039661Y-64898868D01*
X129039047Y-64912878D01*
X129038631Y-64929159D01*
X129038379Y-64948556D01*
X129038254Y-64971911D01*
X129038220Y-65000068D01*
X129038245Y-65024907D01*
X129038357Y-65048829D01*
X129038591Y-65068686D01*
X129038983Y-65085319D01*
X129039570Y-65099572D01*
X129040387Y-65112288D01*
X129041470Y-65124311D01*
X129042855Y-65136482D01*
X129044577Y-65149645D01*
X129048046Y-65173705D01*
X129056563Y-65223180D01*
X129066573Y-65268800D01*
X129078417Y-65311733D01*
X129092437Y-65353148D01*
X129108975Y-65394214D01*
X129128373Y-65436101D01*
X129146934Y-65471983D01*
X129172497Y-65515286D01*
X129199623Y-65554364D01*
X129228872Y-65590010D01*
X129260808Y-65623017D01*
X129260938Y-65623141D01*
X129295333Y-65653225D01*
X129330368Y-65678200D01*
X129366984Y-65698591D01*
X129406125Y-65714924D01*
X129448733Y-65727723D01*
X129478367Y-65735160D01*
X130269294Y-65735953D01*
X131060222Y-65736746D01*
X131060222Y-66470445D01*
X130286228Y-66470432D01*
X130238602Y-66470428D01*
X130152211Y-66470404D01*
X130070641Y-66470357D01*
X129993948Y-66470289D01*
X129922186Y-66470198D01*
X129855411Y-66470086D01*
X129793677Y-66469953D01*
X129737039Y-66469799D01*
X129685551Y-66469623D01*
X129639270Y-66469427D01*
X129598249Y-66469210D01*
X129562544Y-66468973D01*
X129532208Y-66468716D01*
X129507298Y-66468439D01*
X129487868Y-66468142D01*
X129473973Y-66467825D01*
X129465667Y-66467489D01*
X129412346Y-66462944D01*
X129335169Y-66451922D01*
X129260268Y-66435763D01*
X129187574Y-66414439D01*
X129117021Y-66387919D01*
X129048540Y-66356174D01*
X128982063Y-66319175D01*
X128917522Y-66276893D01*
X128854850Y-66229297D01*
X128793978Y-66176359D01*
X128783145Y-66166231D01*
X128747610Y-66131567D01*
X128714571Y-66096827D01*
X128682454Y-66060306D01*
X128649684Y-66020301D01*
X128621041Y-65983178D01*
X128567215Y-65906734D01*
X128518558Y-65828048D01*
X128475053Y-65747073D01*
X128436677Y-65663764D01*
X128403412Y-65578076D01*
X128375237Y-65489963D01*
X128352132Y-65399379D01*
X128334076Y-65306279D01*
X128331459Y-65289908D01*
X128319401Y-65196232D01*
X128312041Y-65101502D01*
X128309354Y-65006354D01*
X128311314Y-64911420D01*
X128317895Y-64817334D01*
X128329071Y-64724731D01*
X128344816Y-64634244D01*
X128365104Y-64546508D01*
X128371478Y-64522939D01*
X128398835Y-64435290D01*
X128431380Y-64349632D01*
X128468980Y-64266228D01*
X128511499Y-64185338D01*
X128558802Y-64107224D01*
X128610756Y-64032147D01*
X128667225Y-63960367D01*
X128711227Y-63910098D01*
X128769586Y-63850007D01*
X128829796Y-63795234D01*
X128891897Y-63745760D01*
X128955928Y-63701564D01*
X129021927Y-63662624D01*
X129089933Y-63628921D01*
X129159985Y-63600432D01*
X129232122Y-63577139D01*
X129306383Y-63559020D01*
X129382807Y-63546054D01*
X129461433Y-63538221D01*
X129463369Y-63538117D01*
X129472664Y-63537827D01*
X129487431Y-63537552D01*
X129507544Y-63537290D01*
X129532876Y-63537044D01*
X129563298Y-63536812D01*
X129598685Y-63536596D01*
X129638908Y-63536397D01*
X129683841Y-63536213D01*
X129733355Y-63536047D01*
X129787325Y-63535898D01*
X129845623Y-63535767D01*
X129908122Y-63535654D01*
X129974694Y-63535559D01*
X130045212Y-63535484D01*
X130119549Y-63535429D01*
X130197578Y-63535393D01*
X130279172Y-63535378D01*
X131054578Y-63535334D01*
X131054578Y-64269112D01*
G36*
X131054578Y-64269112D02*
G01*
X130254679Y-64269112D01*
X130177317Y-64269116D01*
X130105338Y-64269126D01*
X130038540Y-64269144D01*
X129976725Y-64269169D01*
X129919692Y-64269204D01*
X129867239Y-64269249D01*
X129819167Y-64269305D01*
X129775276Y-64269374D01*
X129735365Y-64269457D01*
X129699233Y-64269555D01*
X129666681Y-64269669D01*
X129637508Y-64269799D01*
X129611514Y-64269948D01*
X129588498Y-64270116D01*
X129568260Y-64270305D01*
X129550600Y-64270515D01*
X129535317Y-64270747D01*
X129522210Y-64271003D01*
X129511081Y-64271284D01*
X129501727Y-64271591D01*
X129493950Y-64271925D01*
X129487547Y-64272287D01*
X129482320Y-64272678D01*
X129478068Y-64273099D01*
X129474590Y-64273552D01*
X129455286Y-64276931D01*
X129411128Y-64288695D01*
X129368660Y-64305767D01*
X129327982Y-64328064D01*
X129289193Y-64355501D01*
X129252392Y-64387995D01*
X129217678Y-64425461D01*
X129185152Y-64467816D01*
X129154912Y-64514976D01*
X129127058Y-64566857D01*
X129122680Y-64575884D01*
X129103795Y-64618065D01*
X129087689Y-64660193D01*
X129074039Y-64703384D01*
X129062520Y-64748754D01*
X129052808Y-64797417D01*
X129044577Y-64850490D01*
X129043056Y-64862042D01*
X129041630Y-64874293D01*
X129040510Y-64886288D01*
X129039661Y-64898868D01*
X129039047Y-64912878D01*
X129038631Y-64929159D01*
X129038379Y-64948556D01*
X129038254Y-64971911D01*
X129038220Y-65000068D01*
X129038245Y-65024907D01*
X129038357Y-65048829D01*
X129038591Y-65068686D01*
X129038983Y-65085319D01*
X129039570Y-65099572D01*
X129040387Y-65112288D01*
X129041470Y-65124311D01*
X129042855Y-65136482D01*
X129044577Y-65149645D01*
X129048046Y-65173705D01*
X129056563Y-65223180D01*
X129066573Y-65268800D01*
X129078417Y-65311733D01*
X129092437Y-65353148D01*
X129108975Y-65394214D01*
X129128373Y-65436101D01*
X129146934Y-65471983D01*
X129172497Y-65515286D01*
X129199623Y-65554364D01*
X129228872Y-65590010D01*
X129260808Y-65623017D01*
X129260938Y-65623141D01*
X129295333Y-65653225D01*
X129330368Y-65678200D01*
X129366984Y-65698591D01*
X129406125Y-65714924D01*
X129448733Y-65727723D01*
X129478367Y-65735160D01*
X130269294Y-65735953D01*
X131060222Y-65736746D01*
X131060222Y-66470445D01*
X130286228Y-66470432D01*
X130238602Y-66470428D01*
X130152211Y-66470404D01*
X130070641Y-66470357D01*
X129993948Y-66470289D01*
X129922186Y-66470198D01*
X129855411Y-66470086D01*
X129793677Y-66469953D01*
X129737039Y-66469799D01*
X129685551Y-66469623D01*
X129639270Y-66469427D01*
X129598249Y-66469210D01*
X129562544Y-66468973D01*
X129532208Y-66468716D01*
X129507298Y-66468439D01*
X129487868Y-66468142D01*
X129473973Y-66467825D01*
X129465667Y-66467489D01*
X129412346Y-66462944D01*
X129335169Y-66451922D01*
X129260268Y-66435763D01*
X129187574Y-66414439D01*
X129117021Y-66387919D01*
X129048540Y-66356174D01*
X128982063Y-66319175D01*
X128917522Y-66276893D01*
X128854850Y-66229297D01*
X128793978Y-66176359D01*
X128783145Y-66166231D01*
X128747610Y-66131567D01*
X128714571Y-66096827D01*
X128682454Y-66060306D01*
X128649684Y-66020301D01*
X128621041Y-65983178D01*
X128567215Y-65906734D01*
X128518558Y-65828048D01*
X128475053Y-65747073D01*
X128436677Y-65663764D01*
X128403412Y-65578076D01*
X128375237Y-65489963D01*
X128352132Y-65399379D01*
X128334076Y-65306279D01*
X128331459Y-65289908D01*
X128319401Y-65196232D01*
X128312041Y-65101502D01*
X128309354Y-65006354D01*
X128311314Y-64911420D01*
X128317895Y-64817334D01*
X128329071Y-64724731D01*
X128344816Y-64634244D01*
X128365104Y-64546508D01*
X128371478Y-64522939D01*
X128398835Y-64435290D01*
X128431380Y-64349632D01*
X128468980Y-64266228D01*
X128511499Y-64185338D01*
X128558802Y-64107224D01*
X128610756Y-64032147D01*
X128667225Y-63960367D01*
X128711227Y-63910098D01*
X128769586Y-63850007D01*
X128829796Y-63795234D01*
X128891897Y-63745760D01*
X128955928Y-63701564D01*
X129021927Y-63662624D01*
X129089933Y-63628921D01*
X129159985Y-63600432D01*
X129232122Y-63577139D01*
X129306383Y-63559020D01*
X129382807Y-63546054D01*
X129461433Y-63538221D01*
X129463369Y-63538117D01*
X129472664Y-63537827D01*
X129487431Y-63537552D01*
X129507544Y-63537290D01*
X129532876Y-63537044D01*
X129563298Y-63536812D01*
X129598685Y-63536596D01*
X129638908Y-63536397D01*
X129683841Y-63536213D01*
X129733355Y-63536047D01*
X129787325Y-63535898D01*
X129845623Y-63535767D01*
X129908122Y-63535654D01*
X129974694Y-63535559D01*
X130045212Y-63535484D01*
X130119549Y-63535429D01*
X130197578Y-63535393D01*
X130279172Y-63535378D01*
X131054578Y-63535334D01*
X131054578Y-64269112D01*
G37*
X131060222Y-63275611D02*
X129886883Y-63276395D01*
X129873876Y-63276403D01*
X129777420Y-63276469D01*
X129686422Y-63276533D01*
X129600718Y-63276597D01*
X129520143Y-63276661D01*
X129444534Y-63276727D01*
X129373725Y-63276794D01*
X129307552Y-63276863D01*
X129245851Y-63276937D01*
X129188457Y-63277014D01*
X129135205Y-63277096D01*
X129085932Y-63277185D01*
X129040472Y-63277279D01*
X128998661Y-63277381D01*
X128960335Y-63277492D01*
X128925328Y-63277611D01*
X128893478Y-63277740D01*
X128864619Y-63277879D01*
X128838586Y-63278030D01*
X128815216Y-63278193D01*
X128794343Y-63278368D01*
X128775803Y-63278558D01*
X128759432Y-63278761D01*
X128745066Y-63278980D01*
X128732539Y-63279215D01*
X128721687Y-63279467D01*
X128712346Y-63279736D01*
X128704352Y-63280024D01*
X128697539Y-63280331D01*
X128691743Y-63280657D01*
X128686801Y-63281005D01*
X128682546Y-63281374D01*
X128678816Y-63281765D01*
X128675444Y-63282179D01*
X128649511Y-63285769D01*
X128583601Y-63296784D01*
X128521616Y-63310127D01*
X128462550Y-63326089D01*
X128405401Y-63344958D01*
X128349165Y-63367025D01*
X128292837Y-63392579D01*
X128226604Y-63427174D01*
X128156048Y-63469965D01*
X128087045Y-63518111D01*
X128019666Y-63571555D01*
X127953984Y-63630239D01*
X127890068Y-63694106D01*
X127827992Y-63763101D01*
X127812419Y-63781569D01*
X127750096Y-63860845D01*
X127692579Y-63943046D01*
X127639933Y-64028047D01*
X127592224Y-64115722D01*
X127549515Y-64205946D01*
X127511872Y-64298593D01*
X127479360Y-64393539D01*
X127452043Y-64490657D01*
X127444819Y-64520466D01*
X127425461Y-64614409D01*
X127410482Y-64711047D01*
X127399897Y-64809703D01*
X127393723Y-64909701D01*
X127391977Y-65010365D01*
X127394675Y-65111020D01*
X127401834Y-65210990D01*
X127413471Y-65309599D01*
X127429602Y-65406171D01*
X127432061Y-65418701D01*
X127454706Y-65518143D01*
X127482434Y-65615163D01*
X127515230Y-65709726D01*
X127553077Y-65801798D01*
X127595962Y-65891343D01*
X127643868Y-65978328D01*
X127696781Y-66062718D01*
X127754686Y-66144479D01*
X127789165Y-66189103D01*
X127850248Y-66262098D01*
X127913149Y-66329767D01*
X127977860Y-66392104D01*
X128044378Y-66449109D01*
X128112696Y-66500776D01*
X128182810Y-66547104D01*
X128254714Y-66588088D01*
X128328402Y-66623727D01*
X128403869Y-66654015D01*
X128481110Y-66678951D01*
X128560120Y-66698531D01*
X128640892Y-66712752D01*
X128723422Y-66721610D01*
X128726693Y-66721771D01*
X128736521Y-66722022D01*
X128751900Y-66722262D01*
X128772769Y-66722489D01*
X128799071Y-66722705D01*
X128830746Y-66722909D01*
X128867737Y-66723101D01*
X128909984Y-66723281D01*
X128957429Y-66723448D01*
X129010014Y-66723603D01*
X129067679Y-66723745D01*
X129130366Y-66723874D01*
X129198017Y-66723991D01*
X129270572Y-66724094D01*
X129347974Y-66724184D01*
X129430163Y-66724261D01*
X129517082Y-66724324D01*
X129608670Y-66724373D01*
X129704871Y-66724409D01*
X129805624Y-66724431D01*
X129910872Y-66724439D01*
X131060222Y-66724445D01*
X131060222Y-67537245D01*
X129917928Y-67537230D01*
X129857722Y-67537226D01*
X129756114Y-67537209D01*
X129658743Y-67537178D01*
X129565682Y-67537132D01*
X129477006Y-67537073D01*
X129392788Y-67537000D01*
X129313103Y-67536912D01*
X129238025Y-67536812D01*
X129167628Y-67536698D01*
X129101986Y-67536571D01*
X129041173Y-67536432D01*
X128985263Y-67536279D01*
X128934331Y-67536114D01*
X128888451Y-67535936D01*
X128847696Y-67535747D01*
X128812141Y-67535545D01*
X128781860Y-67535331D01*
X128756926Y-67535106D01*
X128737415Y-67534869D01*
X128723400Y-67534621D01*
X128714955Y-67534361D01*
X128622465Y-67528167D01*
X128515036Y-67516131D01*
X128409933Y-67498978D01*
X128307068Y-67476683D01*
X128206352Y-67449217D01*
X128107699Y-67416554D01*
X128011020Y-67378668D01*
X127916227Y-67335531D01*
X127823233Y-67287116D01*
X127731949Y-67233396D01*
X127656258Y-67183771D01*
X127572951Y-67123428D01*
X127491152Y-67058175D01*
X127411169Y-66988362D01*
X127333313Y-66914335D01*
X127257893Y-66836444D01*
X127185218Y-66755035D01*
X127115597Y-66670458D01*
X127049340Y-66583059D01*
X126986757Y-66493187D01*
X126928155Y-66401190D01*
X126873846Y-66307416D01*
X126824138Y-66212212D01*
X126787736Y-66135420D01*
X126744235Y-66033907D01*
X126705405Y-65931045D01*
X126671141Y-65826448D01*
X126641337Y-65719732D01*
X126615888Y-65610509D01*
X126594687Y-65498394D01*
X126577630Y-65383002D01*
X126564611Y-65263945D01*
X126562351Y-65237018D01*
X126558532Y-65177180D01*
X126555940Y-65113603D01*
X126554572Y-65047484D01*
X126554425Y-64980020D01*
X126555497Y-64912410D01*
X126557783Y-64845849D01*
X126561282Y-64781536D01*
X126565990Y-64720668D01*
X126579730Y-64597780D01*
X126598720Y-64476064D01*
X126622854Y-64356655D01*
X126652131Y-64239563D01*
X126686545Y-64124795D01*
X126726096Y-64012359D01*
X126770778Y-63902263D01*
X126820591Y-63794515D01*
X126875529Y-63689124D01*
X126935591Y-63586097D01*
X127000774Y-63485442D01*
X127071073Y-63387168D01*
X127139856Y-63299088D01*
X127214557Y-63210947D01*
X127291686Y-63127339D01*
X127371106Y-63048383D01*
X127452679Y-62974198D01*
X127536269Y-62904904D01*
X127621737Y-62840619D01*
X127708947Y-62781463D01*
X127797760Y-62727554D01*
X127888041Y-62679012D01*
X127939115Y-62653979D01*
X128000976Y-62625743D01*
X128061594Y-62600577D01*
X128122441Y-62577908D01*
X128184986Y-62557162D01*
X128250700Y-62537767D01*
X128264082Y-62534085D01*
X128314380Y-62521167D01*
X128365122Y-62509656D01*
X128417171Y-62499404D01*
X128471389Y-62490261D01*
X128528639Y-62482079D01*
X128589785Y-62474710D01*
X128655689Y-62468004D01*
X128657100Y-62467892D01*
X128662933Y-62467603D01*
X128671860Y-62467327D01*
X128683993Y-62467063D01*
X128699442Y-62466811D01*
X128718319Y-62466571D01*
X128740733Y-62466343D01*
X128766797Y-62466125D01*
X128796621Y-62465918D01*
X128830315Y-62465721D01*
X128867990Y-62465534D01*
X128909759Y-62465356D01*
X128955730Y-62465188D01*
X129006015Y-62465028D01*
X129060726Y-62464876D01*
X129119972Y-62464732D01*
X129183865Y-62464596D01*
X129252516Y-62464467D01*
X129326035Y-62464344D01*
X129404533Y-62464228D01*
X129488122Y-62464117D01*
X129576911Y-62464013D01*
X129671013Y-62463913D01*
X129770537Y-62463818D01*
X129875594Y-62463727D01*
X131060222Y-62462755D01*
X131060222Y-63275611D01*
G36*
X131060222Y-63275611D02*
G01*
X129886883Y-63276395D01*
X129873876Y-63276403D01*
X129777420Y-63276469D01*
X129686422Y-63276533D01*
X129600718Y-63276597D01*
X129520143Y-63276661D01*
X129444534Y-63276727D01*
X129373725Y-63276794D01*
X129307552Y-63276863D01*
X129245851Y-63276937D01*
X129188457Y-63277014D01*
X129135205Y-63277096D01*
X129085932Y-63277185D01*
X129040472Y-63277279D01*
X128998661Y-63277381D01*
X128960335Y-63277492D01*
X128925328Y-63277611D01*
X128893478Y-63277740D01*
X128864619Y-63277879D01*
X128838586Y-63278030D01*
X128815216Y-63278193D01*
X128794343Y-63278368D01*
X128775803Y-63278558D01*
X128759432Y-63278761D01*
X128745066Y-63278980D01*
X128732539Y-63279215D01*
X128721687Y-63279467D01*
X128712346Y-63279736D01*
X128704352Y-63280024D01*
X128697539Y-63280331D01*
X128691743Y-63280657D01*
X128686801Y-63281005D01*
X128682546Y-63281374D01*
X128678816Y-63281765D01*
X128675444Y-63282179D01*
X128649511Y-63285769D01*
X128583601Y-63296784D01*
X128521616Y-63310127D01*
X128462550Y-63326089D01*
X128405401Y-63344958D01*
X128349165Y-63367025D01*
X128292837Y-63392579D01*
X128226604Y-63427174D01*
X128156048Y-63469965D01*
X128087045Y-63518111D01*
X128019666Y-63571555D01*
X127953984Y-63630239D01*
X127890068Y-63694106D01*
X127827992Y-63763101D01*
X127812419Y-63781569D01*
X127750096Y-63860845D01*
X127692579Y-63943046D01*
X127639933Y-64028047D01*
X127592224Y-64115722D01*
X127549515Y-64205946D01*
X127511872Y-64298593D01*
X127479360Y-64393539D01*
X127452043Y-64490657D01*
X127444819Y-64520466D01*
X127425461Y-64614409D01*
X127410482Y-64711047D01*
X127399897Y-64809703D01*
X127393723Y-64909701D01*
X127391977Y-65010365D01*
X127394675Y-65111020D01*
X127401834Y-65210990D01*
X127413471Y-65309599D01*
X127429602Y-65406171D01*
X127432061Y-65418701D01*
X127454706Y-65518143D01*
X127482434Y-65615163D01*
X127515230Y-65709726D01*
X127553077Y-65801798D01*
X127595962Y-65891343D01*
X127643868Y-65978328D01*
X127696781Y-66062718D01*
X127754686Y-66144479D01*
X127789165Y-66189103D01*
X127850248Y-66262098D01*
X127913149Y-66329767D01*
X127977860Y-66392104D01*
X128044378Y-66449109D01*
X128112696Y-66500776D01*
X128182810Y-66547104D01*
X128254714Y-66588088D01*
X128328402Y-66623727D01*
X128403869Y-66654015D01*
X128481110Y-66678951D01*
X128560120Y-66698531D01*
X128640892Y-66712752D01*
X128723422Y-66721610D01*
X128726693Y-66721771D01*
X128736521Y-66722022D01*
X128751900Y-66722262D01*
X128772769Y-66722489D01*
X128799071Y-66722705D01*
X128830746Y-66722909D01*
X128867737Y-66723101D01*
X128909984Y-66723281D01*
X128957429Y-66723448D01*
X129010014Y-66723603D01*
X129067679Y-66723745D01*
X129130366Y-66723874D01*
X129198017Y-66723991D01*
X129270572Y-66724094D01*
X129347974Y-66724184D01*
X129430163Y-66724261D01*
X129517082Y-66724324D01*
X129608670Y-66724373D01*
X129704871Y-66724409D01*
X129805624Y-66724431D01*
X129910872Y-66724439D01*
X131060222Y-66724445D01*
X131060222Y-67537245D01*
X129917928Y-67537230D01*
X129857722Y-67537226D01*
X129756114Y-67537209D01*
X129658743Y-67537178D01*
X129565682Y-67537132D01*
X129477006Y-67537073D01*
X129392788Y-67537000D01*
X129313103Y-67536912D01*
X129238025Y-67536812D01*
X129167628Y-67536698D01*
X129101986Y-67536571D01*
X129041173Y-67536432D01*
X128985263Y-67536279D01*
X128934331Y-67536114D01*
X128888451Y-67535936D01*
X128847696Y-67535747D01*
X128812141Y-67535545D01*
X128781860Y-67535331D01*
X128756926Y-67535106D01*
X128737415Y-67534869D01*
X128723400Y-67534621D01*
X128714955Y-67534361D01*
X128622465Y-67528167D01*
X128515036Y-67516131D01*
X128409933Y-67498978D01*
X128307068Y-67476683D01*
X128206352Y-67449217D01*
X128107699Y-67416554D01*
X128011020Y-67378668D01*
X127916227Y-67335531D01*
X127823233Y-67287116D01*
X127731949Y-67233396D01*
X127656258Y-67183771D01*
X127572951Y-67123428D01*
X127491152Y-67058175D01*
X127411169Y-66988362D01*
X127333313Y-66914335D01*
X127257893Y-66836444D01*
X127185218Y-66755035D01*
X127115597Y-66670458D01*
X127049340Y-66583059D01*
X126986757Y-66493187D01*
X126928155Y-66401190D01*
X126873846Y-66307416D01*
X126824138Y-66212212D01*
X126787736Y-66135420D01*
X126744235Y-66033907D01*
X126705405Y-65931045D01*
X126671141Y-65826448D01*
X126641337Y-65719732D01*
X126615888Y-65610509D01*
X126594687Y-65498394D01*
X126577630Y-65383002D01*
X126564611Y-65263945D01*
X126562351Y-65237018D01*
X126558532Y-65177180D01*
X126555940Y-65113603D01*
X126554572Y-65047484D01*
X126554425Y-64980020D01*
X126555497Y-64912410D01*
X126557783Y-64845849D01*
X126561282Y-64781536D01*
X126565990Y-64720668D01*
X126579730Y-64597780D01*
X126598720Y-64476064D01*
X126622854Y-64356655D01*
X126652131Y-64239563D01*
X126686545Y-64124795D01*
X126726096Y-64012359D01*
X126770778Y-63902263D01*
X126820591Y-63794515D01*
X126875529Y-63689124D01*
X126935591Y-63586097D01*
X127000774Y-63485442D01*
X127071073Y-63387168D01*
X127139856Y-63299088D01*
X127214557Y-63210947D01*
X127291686Y-63127339D01*
X127371106Y-63048383D01*
X127452679Y-62974198D01*
X127536269Y-62904904D01*
X127621737Y-62840619D01*
X127708947Y-62781463D01*
X127797760Y-62727554D01*
X127888041Y-62679012D01*
X127939115Y-62653979D01*
X128000976Y-62625743D01*
X128061594Y-62600577D01*
X128122441Y-62577908D01*
X128184986Y-62557162D01*
X128250700Y-62537767D01*
X128264082Y-62534085D01*
X128314380Y-62521167D01*
X128365122Y-62509656D01*
X128417171Y-62499404D01*
X128471389Y-62490261D01*
X128528639Y-62482079D01*
X128589785Y-62474710D01*
X128655689Y-62468004D01*
X128657100Y-62467892D01*
X128662933Y-62467603D01*
X128671860Y-62467327D01*
X128683993Y-62467063D01*
X128699442Y-62466811D01*
X128718319Y-62466571D01*
X128740733Y-62466343D01*
X128766797Y-62466125D01*
X128796621Y-62465918D01*
X128830315Y-62465721D01*
X128867990Y-62465534D01*
X128909759Y-62465356D01*
X128955730Y-62465188D01*
X129006015Y-62465028D01*
X129060726Y-62464876D01*
X129119972Y-62464732D01*
X129183865Y-62464596D01*
X129252516Y-62464467D01*
X129326035Y-62464344D01*
X129404533Y-62464228D01*
X129488122Y-62464117D01*
X129576911Y-62464013D01*
X129671013Y-62463913D01*
X129770537Y-62463818D01*
X129875594Y-62463727D01*
X131060222Y-62462755D01*
X131060222Y-63275611D01*
G37*
X77116353Y-81552824D02*
X76892235Y-81552824D01*
X76892235Y-80492000D01*
X77116353Y-80492000D01*
X77116353Y-81552824D01*
G36*
X77116353Y-81552824D02*
G01*
X76892235Y-81552824D01*
X76892235Y-80492000D01*
X77116353Y-80492000D01*
X77116353Y-81552824D01*
G37*
X77050534Y-80061004D02*
X77052352Y-80061519D01*
X77104192Y-80089944D01*
X77136699Y-80135058D01*
X77148306Y-80189698D01*
X77137449Y-80246704D01*
X77102561Y-80298914D01*
X77075451Y-80320734D01*
X77016218Y-80342731D01*
X76954144Y-80338090D01*
X76896804Y-80306529D01*
X76874397Y-80283985D01*
X76858823Y-80251258D01*
X76854882Y-80203145D01*
X76857299Y-80170980D01*
X76879296Y-80111067D01*
X76921259Y-80071004D01*
X76979551Y-80053436D01*
X77050534Y-80061004D01*
G36*
X77050534Y-80061004D02*
G01*
X77052352Y-80061519D01*
X77104192Y-80089944D01*
X77136699Y-80135058D01*
X77148306Y-80189698D01*
X77137449Y-80246704D01*
X77102561Y-80298914D01*
X77075451Y-80320734D01*
X77016218Y-80342731D01*
X76954144Y-80338090D01*
X76896804Y-80306529D01*
X76874397Y-80283985D01*
X76858823Y-80251258D01*
X76854882Y-80203145D01*
X76857299Y-80170980D01*
X76879296Y-80111067D01*
X76921259Y-80071004D01*
X76979551Y-80053436D01*
X77050534Y-80061004D01*
G37*
X78707012Y-81244169D02*
X78761651Y-81270027D01*
X78800547Y-81312592D01*
X78822662Y-81365955D01*
X78826957Y-81424207D01*
X78812392Y-81481441D01*
X78777929Y-81531746D01*
X78722530Y-81569216D01*
X78698695Y-81575867D01*
X78644527Y-81576711D01*
X78589123Y-81564965D01*
X78547484Y-81542884D01*
X78518811Y-81511872D01*
X78488963Y-81452053D01*
X78483658Y-81390469D01*
X78500726Y-81332752D01*
X78538000Y-81284533D01*
X78593309Y-81251444D01*
X78664485Y-81239115D01*
X78707012Y-81244169D01*
G36*
X78707012Y-81244169D02*
G01*
X78761651Y-81270027D01*
X78800547Y-81312592D01*
X78822662Y-81365955D01*
X78826957Y-81424207D01*
X78812392Y-81481441D01*
X78777929Y-81531746D01*
X78722530Y-81569216D01*
X78698695Y-81575867D01*
X78644527Y-81576711D01*
X78589123Y-81564965D01*
X78547484Y-81542884D01*
X78518811Y-81511872D01*
X78488963Y-81452053D01*
X78483658Y-81390469D01*
X78500726Y-81332752D01*
X78538000Y-81284533D01*
X78593309Y-81251444D01*
X78664485Y-81239115D01*
X78707012Y-81244169D01*
G37*
X78999433Y-80492966D02*
X79083021Y-80505588D01*
X79145836Y-80534104D01*
X79192098Y-80580132D01*
X79214418Y-80606838D01*
X79235909Y-80616749D01*
X79248705Y-80598118D01*
X79252941Y-80550883D01*
X79252941Y-80492000D01*
X79462118Y-80492000D01*
X79462118Y-81552824D01*
X79254896Y-81552824D01*
X79250184Y-81197971D01*
X79249232Y-81130355D01*
X79247452Y-81031966D01*
X79245251Y-80957118D01*
X79242287Y-80901761D01*
X79238215Y-80861844D01*
X79232691Y-80833319D01*
X79225372Y-80812135D01*
X79215915Y-80794242D01*
X79201354Y-80773555D01*
X79143490Y-80725558D01*
X79063887Y-80696195D01*
X78964342Y-80686235D01*
X78864471Y-80686235D01*
X78864471Y-80492000D01*
X78962068Y-80492000D01*
X78999433Y-80492966D01*
G36*
X78999433Y-80492966D02*
G01*
X79083021Y-80505588D01*
X79145836Y-80534104D01*
X79192098Y-80580132D01*
X79214418Y-80606838D01*
X79235909Y-80616749D01*
X79248705Y-80598118D01*
X79252941Y-80550883D01*
X79252941Y-80492000D01*
X79462118Y-80492000D01*
X79462118Y-81552824D01*
X79254896Y-81552824D01*
X79250184Y-81197971D01*
X79249232Y-81130355D01*
X79247452Y-81031966D01*
X79245251Y-80957118D01*
X79242287Y-80901761D01*
X79238215Y-80861844D01*
X79232691Y-80833319D01*
X79225372Y-80812135D01*
X79215915Y-80794242D01*
X79201354Y-80773555D01*
X79143490Y-80725558D01*
X79063887Y-80696195D01*
X78964342Y-80686235D01*
X78864471Y-80686235D01*
X78864471Y-80492000D01*
X78962068Y-80492000D01*
X78999433Y-80492966D01*
G37*
X81837765Y-81552824D02*
X81628588Y-81552824D01*
X81628588Y-81328706D01*
X81628560Y-81303593D01*
X81627789Y-81221577D01*
X81625701Y-81164559D01*
X81621936Y-81128649D01*
X81616136Y-81109955D01*
X81607944Y-81104588D01*
X81605268Y-81105464D01*
X81583820Y-81121373D01*
X81546138Y-81154837D01*
X81495611Y-81202672D01*
X81435626Y-81261690D01*
X81369572Y-81328706D01*
X81151846Y-81552824D01*
X80869317Y-81552824D01*
X81145282Y-81280427D01*
X81421246Y-81008030D01*
X81155123Y-80750764D01*
X80889000Y-80493499D01*
X81031141Y-80492750D01*
X81173283Y-80492000D01*
X81382059Y-80701177D01*
X81391520Y-80710637D01*
X81455844Y-80773917D01*
X81513342Y-80828760D01*
X81560498Y-80871935D01*
X81593793Y-80900210D01*
X81609712Y-80910353D01*
X81609798Y-80910352D01*
X81615468Y-80903997D01*
X81619953Y-80883498D01*
X81623367Y-80846233D01*
X81625822Y-80789578D01*
X81627435Y-80710913D01*
X81628319Y-80607614D01*
X81628588Y-80477059D01*
X81628588Y-80043765D01*
X81837765Y-80043765D01*
X81837765Y-81552824D01*
G36*
X81837765Y-81552824D02*
G01*
X81628588Y-81552824D01*
X81628588Y-81328706D01*
X81628560Y-81303593D01*
X81627789Y-81221577D01*
X81625701Y-81164559D01*
X81621936Y-81128649D01*
X81616136Y-81109955D01*
X81607944Y-81104588D01*
X81605268Y-81105464D01*
X81583820Y-81121373D01*
X81546138Y-81154837D01*
X81495611Y-81202672D01*
X81435626Y-81261690D01*
X81369572Y-81328706D01*
X81151846Y-81552824D01*
X80869317Y-81552824D01*
X81145282Y-81280427D01*
X81421246Y-81008030D01*
X81155123Y-80750764D01*
X80889000Y-80493499D01*
X81031141Y-80492750D01*
X81173283Y-80492000D01*
X81382059Y-80701177D01*
X81391520Y-80710637D01*
X81455844Y-80773917D01*
X81513342Y-80828760D01*
X81560498Y-80871935D01*
X81593793Y-80900210D01*
X81609712Y-80910353D01*
X81609798Y-80910352D01*
X81615468Y-80903997D01*
X81619953Y-80883498D01*
X81623367Y-80846233D01*
X81625822Y-80789578D01*
X81627435Y-80710913D01*
X81628319Y-80607614D01*
X81628588Y-80477059D01*
X81628588Y-80043765D01*
X81837765Y-80043765D01*
X81837765Y-81552824D01*
G37*
X77699231Y-80940788D02*
X77740738Y-81072736D01*
X77774879Y-81178479D01*
X77802343Y-81259857D01*
X77823924Y-81319048D01*
X77840417Y-81358232D01*
X77852616Y-81379585D01*
X77861316Y-81385288D01*
X77870894Y-81376707D01*
X77889605Y-81341015D01*
X77913483Y-81279533D01*
X77941698Y-81194235D01*
X77954085Y-81154590D01*
X77982811Y-81062991D01*
X78015755Y-80958278D01*
X78049752Y-80850508D01*
X78081635Y-80749735D01*
X78163334Y-80492000D01*
X78275939Y-80492000D01*
X78297302Y-80492128D01*
X78349891Y-80494547D01*
X78377476Y-80500519D01*
X78383710Y-80510677D01*
X78378426Y-80527368D01*
X78364634Y-80569389D01*
X78343477Y-80633263D01*
X78316056Y-80715680D01*
X78283472Y-80813329D01*
X78246826Y-80922902D01*
X78207220Y-81041088D01*
X78035565Y-81552824D01*
X77686604Y-81552824D01*
X77563693Y-81183030D01*
X77540318Y-81112894D01*
X77502915Y-81001373D01*
X77466431Y-80893369D01*
X77432978Y-80795099D01*
X77404664Y-80712777D01*
X77383601Y-80652618D01*
X77326419Y-80492000D01*
X77559290Y-80492000D01*
X77699231Y-80940788D01*
G36*
X77699231Y-80940788D02*
G01*
X77740738Y-81072736D01*
X77774879Y-81178479D01*
X77802343Y-81259857D01*
X77823924Y-81319048D01*
X77840417Y-81358232D01*
X77852616Y-81379585D01*
X77861316Y-81385288D01*
X77870894Y-81376707D01*
X77889605Y-81341015D01*
X77913483Y-81279533D01*
X77941698Y-81194235D01*
X77954085Y-81154590D01*
X77982811Y-81062991D01*
X78015755Y-80958278D01*
X78049752Y-80850508D01*
X78081635Y-80749735D01*
X78163334Y-80492000D01*
X78275939Y-80492000D01*
X78297302Y-80492128D01*
X78349891Y-80494547D01*
X78377476Y-80500519D01*
X78383710Y-80510677D01*
X78378426Y-80527368D01*
X78364634Y-80569389D01*
X78343477Y-80633263D01*
X78316056Y-80715680D01*
X78283472Y-80813329D01*
X78246826Y-80922902D01*
X78207220Y-81041088D01*
X78035565Y-81552824D01*
X77686604Y-81552824D01*
X77563693Y-81183030D01*
X77540318Y-81112894D01*
X77502915Y-81001373D01*
X77466431Y-80893369D01*
X77432978Y-80795099D01*
X77404664Y-80712777D01*
X77383601Y-80652618D01*
X77326419Y-80492000D01*
X77559290Y-80492000D01*
X77699231Y-80940788D01*
G37*
X76102099Y-80493770D02*
X76109017Y-80495305D01*
X76159478Y-80511599D01*
X76203575Y-80538661D01*
X76252958Y-80583418D01*
X76254428Y-80584886D01*
X76291456Y-80620945D01*
X76319522Y-80646590D01*
X76332653Y-80656353D01*
X76335432Y-80649040D01*
X76338300Y-80619192D01*
X76339412Y-80574177D01*
X76339412Y-80492000D01*
X76563530Y-80492000D01*
X76563530Y-81552824D01*
X76339412Y-81552824D01*
X76339412Y-80900770D01*
X76298324Y-80819650D01*
X76263777Y-80764119D01*
X76203271Y-80707447D01*
X76126767Y-80674917D01*
X76031744Y-80665069D01*
X75994835Y-80666499D01*
X75935408Y-80676919D01*
X75885705Y-80699941D01*
X75860840Y-80716020D01*
X75835192Y-80736554D01*
X75815491Y-80760646D01*
X75800886Y-80792056D01*
X75790522Y-80834544D01*
X75783547Y-80891872D01*
X75779107Y-80967800D01*
X75776349Y-81066089D01*
X75774421Y-81190500D01*
X75769723Y-81552824D01*
X75562471Y-81552824D01*
X75562471Y-81189477D01*
X75562808Y-81074733D01*
X75564527Y-80962980D01*
X75568419Y-80873884D01*
X75575267Y-80803530D01*
X75585856Y-80748004D01*
X75600969Y-80703390D01*
X75621390Y-80665774D01*
X75647902Y-80631241D01*
X75681289Y-80595877D01*
X75689115Y-80588227D01*
X75774052Y-80525295D01*
X75870150Y-80488828D01*
X75978977Y-80478447D01*
X76102099Y-80493770D01*
G36*
X76102099Y-80493770D02*
G01*
X76109017Y-80495305D01*
X76159478Y-80511599D01*
X76203575Y-80538661D01*
X76252958Y-80583418D01*
X76254428Y-80584886D01*
X76291456Y-80620945D01*
X76319522Y-80646590D01*
X76332653Y-80656353D01*
X76335432Y-80649040D01*
X76338300Y-80619192D01*
X76339412Y-80574177D01*
X76339412Y-80492000D01*
X76563530Y-80492000D01*
X76563530Y-81552824D01*
X76339412Y-81552824D01*
X76339412Y-80900770D01*
X76298324Y-80819650D01*
X76263777Y-80764119D01*
X76203271Y-80707447D01*
X76126767Y-80674917D01*
X76031744Y-80665069D01*
X75994835Y-80666499D01*
X75935408Y-80676919D01*
X75885705Y-80699941D01*
X75860840Y-80716020D01*
X75835192Y-80736554D01*
X75815491Y-80760646D01*
X75800886Y-80792056D01*
X75790522Y-80834544D01*
X75783547Y-80891872D01*
X75779107Y-80967800D01*
X75776349Y-81066089D01*
X75774421Y-81190500D01*
X75769723Y-81552824D01*
X75562471Y-81552824D01*
X75562471Y-81189477D01*
X75562808Y-81074733D01*
X75564527Y-80962980D01*
X75568419Y-80873884D01*
X75575267Y-80803530D01*
X75585856Y-80748004D01*
X75600969Y-80703390D01*
X75621390Y-80665774D01*
X75647902Y-80631241D01*
X75681289Y-80595877D01*
X75689115Y-80588227D01*
X75774052Y-80525295D01*
X75870150Y-80488828D01*
X75978977Y-80478447D01*
X76102099Y-80493770D01*
G37*
X75280479Y-81097433D02*
X75265765Y-81196630D01*
X75240897Y-81279526D01*
X75193609Y-81364169D01*
X75116632Y-81448014D01*
X75019105Y-81514224D01*
X74904697Y-81559742D01*
X74818414Y-81574508D01*
X74712994Y-81575758D01*
X74605536Y-81562760D01*
X74508126Y-81536228D01*
X74445179Y-81506108D01*
X74357244Y-81440365D01*
X74284020Y-81356369D01*
X74232410Y-81261008D01*
X74213631Y-81198132D01*
X74198539Y-81095008D01*
X74197203Y-81022412D01*
X74412167Y-81022412D01*
X74413367Y-81060137D01*
X74419378Y-81122244D01*
X74428745Y-81171774D01*
X74429644Y-81174876D01*
X74459796Y-81235324D01*
X74509094Y-81294353D01*
X74568430Y-81342856D01*
X74628697Y-81371726D01*
X74725449Y-81387366D01*
X74822501Y-81378639D01*
X74908909Y-81344469D01*
X74980799Y-81285803D01*
X74989074Y-81276294D01*
X75035319Y-81205267D01*
X75061292Y-81123037D01*
X75069412Y-81022412D01*
X75068748Y-80990643D01*
X75055796Y-80896399D01*
X75024526Y-80819412D01*
X74972596Y-80753169D01*
X74934215Y-80720154D01*
X74851348Y-80675733D01*
X74761541Y-80656637D01*
X74670460Y-80662887D01*
X74583774Y-80694503D01*
X74507152Y-80751505D01*
X74473859Y-80789257D01*
X74437765Y-80852164D01*
X74418111Y-80927286D01*
X74412167Y-81022412D01*
X74197203Y-81022412D01*
X74196505Y-80984508D01*
X74207547Y-80878017D01*
X74231682Y-80786916D01*
X74283919Y-80689370D01*
X74359829Y-80604793D01*
X74454225Y-80538185D01*
X74562949Y-80491843D01*
X74681846Y-80468063D01*
X74806758Y-80469141D01*
X74903284Y-80487102D01*
X75019111Y-80531870D01*
X75115893Y-80598849D01*
X75192209Y-80686681D01*
X75246639Y-80794010D01*
X75277763Y-80919476D01*
X75283787Y-80994157D01*
X75282881Y-81022412D01*
X75280479Y-81097433D01*
G36*
X75280479Y-81097433D02*
G01*
X75265765Y-81196630D01*
X75240897Y-81279526D01*
X75193609Y-81364169D01*
X75116632Y-81448014D01*
X75019105Y-81514224D01*
X74904697Y-81559742D01*
X74818414Y-81574508D01*
X74712994Y-81575758D01*
X74605536Y-81562760D01*
X74508126Y-81536228D01*
X74445179Y-81506108D01*
X74357244Y-81440365D01*
X74284020Y-81356369D01*
X74232410Y-81261008D01*
X74213631Y-81198132D01*
X74198539Y-81095008D01*
X74197203Y-81022412D01*
X74412167Y-81022412D01*
X74413367Y-81060137D01*
X74419378Y-81122244D01*
X74428745Y-81171774D01*
X74429644Y-81174876D01*
X74459796Y-81235324D01*
X74509094Y-81294353D01*
X74568430Y-81342856D01*
X74628697Y-81371726D01*
X74725449Y-81387366D01*
X74822501Y-81378639D01*
X74908909Y-81344469D01*
X74980799Y-81285803D01*
X74989074Y-81276294D01*
X75035319Y-81205267D01*
X75061292Y-81123037D01*
X75069412Y-81022412D01*
X75068748Y-80990643D01*
X75055796Y-80896399D01*
X75024526Y-80819412D01*
X74972596Y-80753169D01*
X74934215Y-80720154D01*
X74851348Y-80675733D01*
X74761541Y-80656637D01*
X74670460Y-80662887D01*
X74583774Y-80694503D01*
X74507152Y-80751505D01*
X74473859Y-80789257D01*
X74437765Y-80852164D01*
X74418111Y-80927286D01*
X74412167Y-81022412D01*
X74197203Y-81022412D01*
X74196505Y-80984508D01*
X74207547Y-80878017D01*
X74231682Y-80786916D01*
X74283919Y-80689370D01*
X74359829Y-80604793D01*
X74454225Y-80538185D01*
X74562949Y-80491843D01*
X74681846Y-80468063D01*
X74806758Y-80469141D01*
X74903284Y-80487102D01*
X75019111Y-80531870D01*
X75115893Y-80598849D01*
X75192209Y-80686681D01*
X75246639Y-80794010D01*
X75277763Y-80919476D01*
X75283787Y-80994157D01*
X75282881Y-81022412D01*
X75280479Y-81097433D01*
G37*
X73958773Y-81092284D02*
X73953262Y-81141445D01*
X73921866Y-81265181D01*
X73867727Y-81371751D01*
X73792327Y-81459273D01*
X73697143Y-81525864D01*
X73583656Y-81569642D01*
X73557742Y-81574552D01*
X73486504Y-81577866D01*
X73406058Y-81571957D01*
X73329143Y-81558117D01*
X73268499Y-81537640D01*
X73253408Y-81529646D01*
X73201119Y-81494110D01*
X73158054Y-81454691D01*
X73144480Y-81439971D01*
X73115997Y-81413783D01*
X73097633Y-81403412D01*
X73092125Y-81408317D01*
X73085010Y-81435280D01*
X73082235Y-81478118D01*
X73082235Y-81552824D01*
X72857841Y-81552824D01*
X72860578Y-81022412D01*
X73082892Y-81022412D01*
X73084141Y-81065025D01*
X73101190Y-81169487D01*
X73138890Y-81253337D01*
X73198112Y-81318092D01*
X73279726Y-81365266D01*
X73297967Y-81372149D01*
X73389322Y-81388612D01*
X73485196Y-81380005D01*
X73576810Y-81346869D01*
X73627303Y-81316376D01*
X73665178Y-81279272D01*
X73698046Y-81225634D01*
X73718387Y-81183013D01*
X73731750Y-81140563D01*
X73737932Y-81091581D01*
X73739319Y-81024441D01*
X73734031Y-80945346D01*
X73708212Y-80844588D01*
X73661896Y-80764080D01*
X73596181Y-80705052D01*
X73512164Y-80668733D01*
X73410941Y-80656353D01*
X73341450Y-80661948D01*
X73251571Y-80690564D01*
X73179575Y-80742259D01*
X73126663Y-80815692D01*
X73094035Y-80909523D01*
X73082892Y-81022412D01*
X72860578Y-81022412D01*
X72861715Y-80802030D01*
X72865588Y-80051235D01*
X72973912Y-80046846D01*
X73082235Y-80042456D01*
X73082235Y-80341934D01*
X73082483Y-80410735D01*
X73084100Y-80510512D01*
X73087190Y-80582726D01*
X73091714Y-80626613D01*
X73097633Y-80641412D01*
X73103955Y-80639246D01*
X73127872Y-80620962D01*
X73158054Y-80590133D01*
X73200895Y-80548310D01*
X73273819Y-80503447D01*
X73362032Y-80477927D01*
X73470706Y-80469756D01*
X73538516Y-80471099D01*
X73589620Y-80476939D01*
X73633704Y-80489530D01*
X73682281Y-80511122D01*
X73730264Y-80537964D01*
X73820279Y-80612010D01*
X73888759Y-80705771D01*
X73935083Y-80817942D01*
X73958628Y-80947216D01*
X73958706Y-81024441D01*
X73958773Y-81092284D01*
G36*
X73958773Y-81092284D02*
G01*
X73953262Y-81141445D01*
X73921866Y-81265181D01*
X73867727Y-81371751D01*
X73792327Y-81459273D01*
X73697143Y-81525864D01*
X73583656Y-81569642D01*
X73557742Y-81574552D01*
X73486504Y-81577866D01*
X73406058Y-81571957D01*
X73329143Y-81558117D01*
X73268499Y-81537640D01*
X73253408Y-81529646D01*
X73201119Y-81494110D01*
X73158054Y-81454691D01*
X73144480Y-81439971D01*
X73115997Y-81413783D01*
X73097633Y-81403412D01*
X73092125Y-81408317D01*
X73085010Y-81435280D01*
X73082235Y-81478118D01*
X73082235Y-81552824D01*
X72857841Y-81552824D01*
X72860578Y-81022412D01*
X73082892Y-81022412D01*
X73084141Y-81065025D01*
X73101190Y-81169487D01*
X73138890Y-81253337D01*
X73198112Y-81318092D01*
X73279726Y-81365266D01*
X73297967Y-81372149D01*
X73389322Y-81388612D01*
X73485196Y-81380005D01*
X73576810Y-81346869D01*
X73627303Y-81316376D01*
X73665178Y-81279272D01*
X73698046Y-81225634D01*
X73718387Y-81183013D01*
X73731750Y-81140563D01*
X73737932Y-81091581D01*
X73739319Y-81024441D01*
X73734031Y-80945346D01*
X73708212Y-80844588D01*
X73661896Y-80764080D01*
X73596181Y-80705052D01*
X73512164Y-80668733D01*
X73410941Y-80656353D01*
X73341450Y-80661948D01*
X73251571Y-80690564D01*
X73179575Y-80742259D01*
X73126663Y-80815692D01*
X73094035Y-80909523D01*
X73082892Y-81022412D01*
X72860578Y-81022412D01*
X72861715Y-80802030D01*
X72865588Y-80051235D01*
X72973912Y-80046846D01*
X73082235Y-80042456D01*
X73082235Y-80341934D01*
X73082483Y-80410735D01*
X73084100Y-80510512D01*
X73087190Y-80582726D01*
X73091714Y-80626613D01*
X73097633Y-80641412D01*
X73103955Y-80639246D01*
X73127872Y-80620962D01*
X73158054Y-80590133D01*
X73200895Y-80548310D01*
X73273819Y-80503447D01*
X73362032Y-80477927D01*
X73470706Y-80469756D01*
X73538516Y-80471099D01*
X73589620Y-80476939D01*
X73633704Y-80489530D01*
X73682281Y-80511122D01*
X73730264Y-80537964D01*
X73820279Y-80612010D01*
X73888759Y-80705771D01*
X73935083Y-80817942D01*
X73958628Y-80947216D01*
X73958706Y-81024441D01*
X73958773Y-81092284D01*
G37*
X80774344Y-81011558D02*
X80762346Y-81148471D01*
X80759492Y-81163084D01*
X80721117Y-81282894D01*
X80660483Y-81385688D01*
X80579927Y-81468984D01*
X80481785Y-81530298D01*
X80368394Y-81567146D01*
X80265288Y-81579146D01*
X80143506Y-81572293D01*
X80030512Y-81543286D01*
X79933078Y-81493274D01*
X79924117Y-81486828D01*
X79883107Y-81451582D01*
X79842743Y-81409469D01*
X79808497Y-81367113D01*
X79785838Y-81331139D01*
X79780237Y-81308173D01*
X79791292Y-81296688D01*
X79822268Y-81274675D01*
X79865334Y-81248609D01*
X79869836Y-81246077D01*
X79915383Y-81222789D01*
X79941438Y-81215605D01*
X79952395Y-81223244D01*
X79958056Y-81235737D01*
X79986924Y-81274898D01*
X80028837Y-81316843D01*
X80074476Y-81352886D01*
X80114523Y-81374343D01*
X80145912Y-81381147D01*
X80202472Y-81386183D01*
X80262641Y-81385693D01*
X80308299Y-81379994D01*
X80397098Y-81349404D01*
X80468305Y-81295795D01*
X80519437Y-81221405D01*
X80548008Y-81128473D01*
X80556734Y-81074706D01*
X79727198Y-81074706D01*
X79737801Y-80967099D01*
X79745505Y-80908405D01*
X79748034Y-80894932D01*
X79955177Y-80894932D01*
X79959922Y-80898459D01*
X79991286Y-80903608D01*
X80051393Y-80907331D01*
X80139536Y-80909591D01*
X80255007Y-80910353D01*
X80554837Y-80910353D01*
X80544467Y-80876735D01*
X80536377Y-80853236D01*
X80489920Y-80769515D01*
X80423984Y-80707680D01*
X80340969Y-80669484D01*
X80243274Y-80656681D01*
X80213648Y-80658485D01*
X80141234Y-80674527D01*
X80075016Y-80703449D01*
X80026717Y-80740702D01*
X80024925Y-80742788D01*
X80002801Y-80776303D01*
X79980072Y-80820872D01*
X79962333Y-80864435D01*
X79955177Y-80894932D01*
X79748034Y-80894932D01*
X79757844Y-80842666D01*
X79771310Y-80791540D01*
X79781829Y-80763377D01*
X79836369Y-80666354D01*
X79910313Y-80587199D01*
X79999406Y-80526825D01*
X80099392Y-80486150D01*
X80206014Y-80466089D01*
X80315017Y-80467558D01*
X80422144Y-80491471D01*
X80523139Y-80538746D01*
X80613746Y-80610297D01*
X80655276Y-80657094D01*
X80719895Y-80762558D01*
X80759890Y-80881817D01*
X80763070Y-80910353D01*
X80774344Y-81011558D01*
G36*
X80774344Y-81011558D02*
G01*
X80762346Y-81148471D01*
X80759492Y-81163084D01*
X80721117Y-81282894D01*
X80660483Y-81385688D01*
X80579927Y-81468984D01*
X80481785Y-81530298D01*
X80368394Y-81567146D01*
X80265288Y-81579146D01*
X80143506Y-81572293D01*
X80030512Y-81543286D01*
X79933078Y-81493274D01*
X79924117Y-81486828D01*
X79883107Y-81451582D01*
X79842743Y-81409469D01*
X79808497Y-81367113D01*
X79785838Y-81331139D01*
X79780237Y-81308173D01*
X79791292Y-81296688D01*
X79822268Y-81274675D01*
X79865334Y-81248609D01*
X79869836Y-81246077D01*
X79915383Y-81222789D01*
X79941438Y-81215605D01*
X79952395Y-81223244D01*
X79958056Y-81235737D01*
X79986924Y-81274898D01*
X80028837Y-81316843D01*
X80074476Y-81352886D01*
X80114523Y-81374343D01*
X80145912Y-81381147D01*
X80202472Y-81386183D01*
X80262641Y-81385693D01*
X80308299Y-81379994D01*
X80397098Y-81349404D01*
X80468305Y-81295795D01*
X80519437Y-81221405D01*
X80548008Y-81128473D01*
X80556734Y-81074706D01*
X79727198Y-81074706D01*
X79737801Y-80967099D01*
X79745505Y-80908405D01*
X79748034Y-80894932D01*
X79955177Y-80894932D01*
X79959922Y-80898459D01*
X79991286Y-80903608D01*
X80051393Y-80907331D01*
X80139536Y-80909591D01*
X80255007Y-80910353D01*
X80554837Y-80910353D01*
X80544467Y-80876735D01*
X80536377Y-80853236D01*
X80489920Y-80769515D01*
X80423984Y-80707680D01*
X80340969Y-80669484D01*
X80243274Y-80656681D01*
X80213648Y-80658485D01*
X80141234Y-80674527D01*
X80075016Y-80703449D01*
X80026717Y-80740702D01*
X80024925Y-80742788D01*
X80002801Y-80776303D01*
X79980072Y-80820872D01*
X79962333Y-80864435D01*
X79955177Y-80894932D01*
X79748034Y-80894932D01*
X79757844Y-80842666D01*
X79771310Y-80791540D01*
X79781829Y-80763377D01*
X79836369Y-80666354D01*
X79910313Y-80587199D01*
X79999406Y-80526825D01*
X80099392Y-80486150D01*
X80206014Y-80466089D01*
X80315017Y-80467558D01*
X80422144Y-80491471D01*
X80523139Y-80538746D01*
X80613746Y-80610297D01*
X80655276Y-80657094D01*
X80719895Y-80762558D01*
X80759890Y-80881817D01*
X80763070Y-80910353D01*
X80774344Y-81011558D01*
G37*
X84474217Y-80482859D02*
X84561673Y-80513209D01*
X84636795Y-80568220D01*
X84661461Y-80591026D01*
X84691137Y-80612879D01*
X84708102Y-80617992D01*
X84710666Y-80615303D01*
X84718328Y-80590372D01*
X84721412Y-80550883D01*
X84721412Y-80492000D01*
X84930588Y-80492000D01*
X84930588Y-81552824D01*
X84723746Y-81552824D01*
X84718844Y-81190500D01*
X84717670Y-81109386D01*
X84715842Y-81012686D01*
X84713587Y-80939112D01*
X84710567Y-80884644D01*
X84706442Y-80845263D01*
X84700875Y-80816949D01*
X84693527Y-80795683D01*
X84684059Y-80777444D01*
X84676760Y-80765519D01*
X84627115Y-80706857D01*
X84567030Y-80674041D01*
X84490990Y-80663824D01*
X84487656Y-80663835D01*
X84406847Y-80673730D01*
X84347048Y-80702993D01*
X84305520Y-80752942D01*
X84304638Y-80754585D01*
X84296894Y-80773586D01*
X84290801Y-80800081D01*
X84286098Y-80837801D01*
X84282526Y-80890477D01*
X84279823Y-80961842D01*
X84277727Y-81055625D01*
X84275980Y-81175559D01*
X84271312Y-81552824D01*
X84064000Y-81552824D01*
X84064000Y-81198953D01*
X84063925Y-81117495D01*
X84063404Y-81022559D01*
X84062116Y-80950329D01*
X84059746Y-80896569D01*
X84055985Y-80857042D01*
X84050518Y-80827512D01*
X84043034Y-80803742D01*
X84033220Y-80781498D01*
X84004530Y-80737634D01*
X83950436Y-80692625D01*
X83885788Y-80666844D01*
X83816983Y-80660611D01*
X83750419Y-80674243D01*
X83692493Y-80708061D01*
X83649603Y-80762382D01*
X83646061Y-80772216D01*
X83640425Y-80805910D01*
X83636189Y-80860966D01*
X83633258Y-80939508D01*
X83631536Y-81043664D01*
X83630926Y-81175559D01*
X83630706Y-81552824D01*
X83404093Y-81552824D01*
X83409439Y-81145677D01*
X83410449Y-81073572D01*
X83412415Y-80963784D01*
X83414766Y-80878057D01*
X83417760Y-80812638D01*
X83421653Y-80763773D01*
X83426700Y-80727709D01*
X83433158Y-80700692D01*
X83441282Y-80678969D01*
X83477377Y-80615637D01*
X83543966Y-80547999D01*
X83629759Y-80503068D01*
X83734213Y-80481211D01*
X83797275Y-80478815D01*
X83882012Y-80491193D01*
X83954875Y-80525723D01*
X84023295Y-80585078D01*
X84025884Y-80587809D01*
X84061288Y-80623702D01*
X84087533Y-80647696D01*
X84099104Y-80654725D01*
X84100401Y-80652954D01*
X84114103Y-80633456D01*
X84136176Y-80601609D01*
X84153593Y-80581542D01*
X84196533Y-80546027D01*
X84246330Y-80515698D01*
X84284668Y-80499151D01*
X84380018Y-80477922D01*
X84474217Y-80482859D01*
G36*
X84474217Y-80482859D02*
G01*
X84561673Y-80513209D01*
X84636795Y-80568220D01*
X84661461Y-80591026D01*
X84691137Y-80612879D01*
X84708102Y-80617992D01*
X84710666Y-80615303D01*
X84718328Y-80590372D01*
X84721412Y-80550883D01*
X84721412Y-80492000D01*
X84930588Y-80492000D01*
X84930588Y-81552824D01*
X84723746Y-81552824D01*
X84718844Y-81190500D01*
X84717670Y-81109386D01*
X84715842Y-81012686D01*
X84713587Y-80939112D01*
X84710567Y-80884644D01*
X84706442Y-80845263D01*
X84700875Y-80816949D01*
X84693527Y-80795683D01*
X84684059Y-80777444D01*
X84676760Y-80765519D01*
X84627115Y-80706857D01*
X84567030Y-80674041D01*
X84490990Y-80663824D01*
X84487656Y-80663835D01*
X84406847Y-80673730D01*
X84347048Y-80702993D01*
X84305520Y-80752942D01*
X84304638Y-80754585D01*
X84296894Y-80773586D01*
X84290801Y-80800081D01*
X84286098Y-80837801D01*
X84282526Y-80890477D01*
X84279823Y-80961842D01*
X84277727Y-81055625D01*
X84275980Y-81175559D01*
X84271312Y-81552824D01*
X84064000Y-81552824D01*
X84064000Y-81198953D01*
X84063925Y-81117495D01*
X84063404Y-81022559D01*
X84062116Y-80950329D01*
X84059746Y-80896569D01*
X84055985Y-80857042D01*
X84050518Y-80827512D01*
X84043034Y-80803742D01*
X84033220Y-80781498D01*
X84004530Y-80737634D01*
X83950436Y-80692625D01*
X83885788Y-80666844D01*
X83816983Y-80660611D01*
X83750419Y-80674243D01*
X83692493Y-80708061D01*
X83649603Y-80762382D01*
X83646061Y-80772216D01*
X83640425Y-80805910D01*
X83636189Y-80860966D01*
X83633258Y-80939508D01*
X83631536Y-81043664D01*
X83630926Y-81175559D01*
X83630706Y-81552824D01*
X83404093Y-81552824D01*
X83409439Y-81145677D01*
X83410449Y-81073572D01*
X83412415Y-80963784D01*
X83414766Y-80878057D01*
X83417760Y-80812638D01*
X83421653Y-80763773D01*
X83426700Y-80727709D01*
X83433158Y-80700692D01*
X83441282Y-80678969D01*
X83477377Y-80615637D01*
X83543966Y-80547999D01*
X83629759Y-80503068D01*
X83734213Y-80481211D01*
X83797275Y-80478815D01*
X83882012Y-80491193D01*
X83954875Y-80525723D01*
X84023295Y-80585078D01*
X84025884Y-80587809D01*
X84061288Y-80623702D01*
X84087533Y-80647696D01*
X84099104Y-80654725D01*
X84100401Y-80652954D01*
X84114103Y-80633456D01*
X84136176Y-80601609D01*
X84153593Y-80581542D01*
X84196533Y-80546027D01*
X84246330Y-80515698D01*
X84284668Y-80499151D01*
X84380018Y-80477922D01*
X84474217Y-80482859D01*
G37*
X83151922Y-81262817D02*
X83137327Y-81360639D01*
X83132666Y-81374916D01*
X83094422Y-81438932D01*
X83032867Y-81495945D01*
X82953354Y-81541847D01*
X82861235Y-81572529D01*
X82823242Y-81578426D01*
X82736380Y-81579101D01*
X82642573Y-81565937D01*
X82632805Y-81563743D01*
X82583633Y-81547519D01*
X82541074Y-81520718D01*
X82493396Y-81476290D01*
X82455652Y-81439632D01*
X82424754Y-81413414D01*
X82407492Y-81403412D01*
X82396181Y-81413850D01*
X82387846Y-81443023D01*
X82373191Y-81484464D01*
X82334411Y-81518556D01*
X82270623Y-81540357D01*
X82180403Y-81550605D01*
X82061882Y-81555988D01*
X82061882Y-81373530D01*
X82119818Y-81373530D01*
X82129421Y-81373282D01*
X82169121Y-81366986D01*
X82193013Y-81354853D01*
X82198051Y-81335753D01*
X82203155Y-81290666D01*
X82207774Y-81224234D01*
X82211234Y-81148996D01*
X82435412Y-81148996D01*
X82439998Y-81197032D01*
X82469317Y-81272119D01*
X82524289Y-81333981D01*
X82603224Y-81380287D01*
X82622376Y-81387410D01*
X82696321Y-81401430D01*
X82771042Y-81397946D01*
X82839343Y-81378733D01*
X82894025Y-81345566D01*
X82927893Y-81300219D01*
X82928634Y-81298397D01*
X82938762Y-81236112D01*
X82921444Y-81177070D01*
X82878753Y-81128521D01*
X82870221Y-81122506D01*
X82848473Y-81111200D01*
X82819966Y-81103383D01*
X82778919Y-81098192D01*
X82719552Y-81094761D01*
X82636082Y-81092225D01*
X82435412Y-81087332D01*
X82435412Y-81148996D01*
X82211234Y-81148996D01*
X82211609Y-81140830D01*
X82214359Y-81044824D01*
X82215511Y-80994443D01*
X82219119Y-80889370D01*
X82224672Y-80807640D01*
X82233227Y-80744602D01*
X82245841Y-80695605D01*
X82263570Y-80656002D01*
X82287474Y-80621142D01*
X82318608Y-80586376D01*
X82373638Y-80539423D01*
X82450761Y-80499969D01*
X82544388Y-80477670D01*
X82659530Y-80470830D01*
X82761217Y-80476310D01*
X82853844Y-80495878D01*
X82931522Y-80531759D01*
X83000751Y-80586148D01*
X83008224Y-80593624D01*
X83043115Y-80635462D01*
X83075184Y-80683215D01*
X83098658Y-80727553D01*
X83107765Y-80759145D01*
X83100910Y-80767243D01*
X83072419Y-80782728D01*
X83029324Y-80799270D01*
X82997587Y-80809754D01*
X82957026Y-80823319D01*
X82934341Y-80831132D01*
X82932820Y-80831489D01*
X82916067Y-80820820D01*
X82898883Y-80791534D01*
X82886793Y-80767017D01*
X82837945Y-80708686D01*
X82772861Y-80668043D01*
X82698249Y-80646421D01*
X82620818Y-80645157D01*
X82547274Y-80665583D01*
X82484328Y-80709037D01*
X82468274Y-80725768D01*
X82446896Y-80755771D01*
X82437503Y-80790160D01*
X82435412Y-80841624D01*
X82435412Y-80925294D01*
X82641877Y-80925294D01*
X82668494Y-80925391D01*
X82782734Y-80928910D01*
X82873181Y-80938225D01*
X82944601Y-80954337D01*
X83001758Y-80978247D01*
X83049418Y-81010956D01*
X83056798Y-81017420D01*
X83110152Y-81085218D01*
X83142362Y-81169013D01*
X83149201Y-81236112D01*
X83151922Y-81262817D01*
G36*
X83151922Y-81262817D02*
G01*
X83137327Y-81360639D01*
X83132666Y-81374916D01*
X83094422Y-81438932D01*
X83032867Y-81495945D01*
X82953354Y-81541847D01*
X82861235Y-81572529D01*
X82823242Y-81578426D01*
X82736380Y-81579101D01*
X82642573Y-81565937D01*
X82632805Y-81563743D01*
X82583633Y-81547519D01*
X82541074Y-81520718D01*
X82493396Y-81476290D01*
X82455652Y-81439632D01*
X82424754Y-81413414D01*
X82407492Y-81403412D01*
X82396181Y-81413850D01*
X82387846Y-81443023D01*
X82373191Y-81484464D01*
X82334411Y-81518556D01*
X82270623Y-81540357D01*
X82180403Y-81550605D01*
X82061882Y-81555988D01*
X82061882Y-81373530D01*
X82119818Y-81373530D01*
X82129421Y-81373282D01*
X82169121Y-81366986D01*
X82193013Y-81354853D01*
X82198051Y-81335753D01*
X82203155Y-81290666D01*
X82207774Y-81224234D01*
X82211234Y-81148996D01*
X82435412Y-81148996D01*
X82439998Y-81197032D01*
X82469317Y-81272119D01*
X82524289Y-81333981D01*
X82603224Y-81380287D01*
X82622376Y-81387410D01*
X82696321Y-81401430D01*
X82771042Y-81397946D01*
X82839343Y-81378733D01*
X82894025Y-81345566D01*
X82927893Y-81300219D01*
X82928634Y-81298397D01*
X82938762Y-81236112D01*
X82921444Y-81177070D01*
X82878753Y-81128521D01*
X82870221Y-81122506D01*
X82848473Y-81111200D01*
X82819966Y-81103383D01*
X82778919Y-81098192D01*
X82719552Y-81094761D01*
X82636082Y-81092225D01*
X82435412Y-81087332D01*
X82435412Y-81148996D01*
X82211234Y-81148996D01*
X82211609Y-81140830D01*
X82214359Y-81044824D01*
X82215511Y-80994443D01*
X82219119Y-80889370D01*
X82224672Y-80807640D01*
X82233227Y-80744602D01*
X82245841Y-80695605D01*
X82263570Y-80656002D01*
X82287474Y-80621142D01*
X82318608Y-80586376D01*
X82373638Y-80539423D01*
X82450761Y-80499969D01*
X82544388Y-80477670D01*
X82659530Y-80470830D01*
X82761217Y-80476310D01*
X82853844Y-80495878D01*
X82931522Y-80531759D01*
X83000751Y-80586148D01*
X83008224Y-80593624D01*
X83043115Y-80635462D01*
X83075184Y-80683215D01*
X83098658Y-80727553D01*
X83107765Y-80759145D01*
X83100910Y-80767243D01*
X83072419Y-80782728D01*
X83029324Y-80799270D01*
X82997587Y-80809754D01*
X82957026Y-80823319D01*
X82934341Y-80831132D01*
X82932820Y-80831489D01*
X82916067Y-80820820D01*
X82898883Y-80791534D01*
X82886793Y-80767017D01*
X82837945Y-80708686D01*
X82772861Y-80668043D01*
X82698249Y-80646421D01*
X82620818Y-80645157D01*
X82547274Y-80665583D01*
X82484328Y-80709037D01*
X82468274Y-80725768D01*
X82446896Y-80755771D01*
X82437503Y-80790160D01*
X82435412Y-80841624D01*
X82435412Y-80925294D01*
X82641877Y-80925294D01*
X82668494Y-80925391D01*
X82782734Y-80928910D01*
X82873181Y-80938225D01*
X82944601Y-80954337D01*
X83001758Y-80978247D01*
X83049418Y-81010956D01*
X83056798Y-81017420D01*
X83110152Y-81085218D01*
X83142362Y-81169013D01*
X83149201Y-81236112D01*
X83151922Y-81262817D01*
G37*
X86667284Y-81135055D02*
X86648724Y-81224933D01*
X86605068Y-81338402D01*
X86542636Y-81430072D01*
X86462448Y-81498887D01*
X86365524Y-81543793D01*
X86252882Y-81563736D01*
X86218452Y-81565329D01*
X86166051Y-81563863D01*
X86124407Y-81554518D01*
X86081059Y-81535227D01*
X86066826Y-81527167D01*
X86016073Y-81488320D01*
X85977703Y-81444500D01*
X85952645Y-81411202D01*
X85926292Y-81391132D01*
X85908375Y-81396005D01*
X85901765Y-81426503D01*
X85898853Y-81446741D01*
X85874146Y-81490086D01*
X85830270Y-81525602D01*
X85774558Y-81546378D01*
X85732287Y-81550474D01*
X85672422Y-81551305D01*
X85608939Y-81548550D01*
X85551155Y-81541598D01*
X85457985Y-81514387D01*
X85384189Y-81466629D01*
X85326267Y-81395662D01*
X85280721Y-81298824D01*
X85272727Y-81271166D01*
X85261027Y-81203721D01*
X85252565Y-81118891D01*
X85247679Y-81024555D01*
X85246704Y-80928595D01*
X85249978Y-80838889D01*
X85257838Y-80763318D01*
X85263930Y-80727866D01*
X85307280Y-80568719D01*
X85373696Y-80428537D01*
X85462898Y-80307644D01*
X85574605Y-80206363D01*
X85708536Y-80125018D01*
X85864412Y-80063932D01*
X85921657Y-80051414D01*
X86008122Y-80041521D01*
X86108581Y-80036480D01*
X86214740Y-80036281D01*
X86318304Y-80040916D01*
X86410979Y-80050373D01*
X86484471Y-80064644D01*
X86605905Y-80106447D01*
X86746040Y-80180764D01*
X86866770Y-80276814D01*
X86966584Y-80393081D01*
X87043973Y-80528048D01*
X87097426Y-80680199D01*
X87111275Y-80752184D01*
X87122119Y-80856002D01*
X87126971Y-80971410D01*
X87125719Y-81088825D01*
X87118253Y-81198667D01*
X87104464Y-81291353D01*
X87103230Y-81297135D01*
X87056247Y-81447080D01*
X86984606Y-81581582D01*
X86890042Y-81699145D01*
X86774288Y-81798272D01*
X86639079Y-81877470D01*
X86486151Y-81935243D01*
X86317236Y-81970094D01*
X86290667Y-81972791D01*
X86228460Y-81976836D01*
X86148512Y-81980290D01*
X86058291Y-81982852D01*
X85965265Y-81984223D01*
X85707530Y-81986118D01*
X85707530Y-81795926D01*
X86010088Y-81787804D01*
X86052317Y-81786575D01*
X86176582Y-81781466D01*
X86274386Y-81774718D01*
X86348346Y-81766112D01*
X86401077Y-81755433D01*
X86427033Y-81747883D01*
X86562839Y-81691900D01*
X86678366Y-81614195D01*
X86772835Y-81515551D01*
X86845465Y-81396752D01*
X86895478Y-81258583D01*
X86905677Y-81204838D01*
X86913949Y-81117981D01*
X86917037Y-81019222D01*
X86914944Y-80918353D01*
X86907677Y-80825164D01*
X86895239Y-80749449D01*
X86878333Y-80688157D01*
X86822869Y-80558434D01*
X86745881Y-80449133D01*
X86648086Y-80360823D01*
X86530202Y-80294073D01*
X86392946Y-80249451D01*
X86237035Y-80227527D01*
X86116493Y-80225751D01*
X85965095Y-80243167D01*
X85831894Y-80283294D01*
X85717543Y-80345749D01*
X85622693Y-80430152D01*
X85547994Y-80536119D01*
X85494097Y-80663269D01*
X85491704Y-80670971D01*
X85478626Y-80718876D01*
X85469813Y-80766770D01*
X85464506Y-80822120D01*
X85461946Y-80892394D01*
X85461373Y-80985059D01*
X85461813Y-81049154D01*
X85464015Y-81127277D01*
X85468497Y-81184332D01*
X85475748Y-81225652D01*
X85486257Y-81256573D01*
X85524144Y-81314635D01*
X85576711Y-81348530D01*
X85642887Y-81355823D01*
X85700059Y-81351118D01*
X85702764Y-81057970D01*
X85925010Y-81057970D01*
X85931328Y-81134721D01*
X85946136Y-81194235D01*
X85964789Y-81234852D01*
X86013687Y-81305632D01*
X86072243Y-81348973D01*
X86148469Y-81374591D01*
X86232294Y-81378648D01*
X86307328Y-81355608D01*
X86370620Y-81306464D01*
X86419220Y-81232210D01*
X86434511Y-81195501D01*
X86446672Y-81150108D01*
X86452740Y-81095583D01*
X86454442Y-81021610D01*
X86454438Y-81011464D01*
X86452837Y-80943602D01*
X86447154Y-80894087D01*
X86435548Y-80852711D01*
X86416182Y-80809266D01*
X86405653Y-80789321D01*
X86361589Y-80728966D01*
X86306927Y-80690625D01*
X86236365Y-80671563D01*
X86144602Y-80669041D01*
X86135758Y-80669920D01*
X86084143Y-80689758D01*
X86031511Y-80730330D01*
X85984863Y-80785169D01*
X85951197Y-80847803D01*
X85937183Y-80898219D01*
X85927017Y-80975348D01*
X85925010Y-81057970D01*
X85702764Y-81057970D01*
X85704023Y-80921559D01*
X85707988Y-80492000D01*
X85916706Y-80492000D01*
X85916706Y-80558354D01*
X85917256Y-80576728D01*
X85922426Y-80614509D01*
X85931274Y-80633711D01*
X85945385Y-80630250D01*
X85974143Y-80609692D01*
X86009716Y-80576289D01*
X86077235Y-80522719D01*
X86162632Y-80487536D01*
X86254829Y-80477140D01*
X86348890Y-80491369D01*
X86439876Y-80530064D01*
X86522851Y-80593061D01*
X86580681Y-80664616D01*
X86630499Y-80764855D01*
X86662532Y-80880404D01*
X86675291Y-81005669D01*
X86674304Y-81021610D01*
X86667284Y-81135055D01*
G36*
X86667284Y-81135055D02*
G01*
X86648724Y-81224933D01*
X86605068Y-81338402D01*
X86542636Y-81430072D01*
X86462448Y-81498887D01*
X86365524Y-81543793D01*
X86252882Y-81563736D01*
X86218452Y-81565329D01*
X86166051Y-81563863D01*
X86124407Y-81554518D01*
X86081059Y-81535227D01*
X86066826Y-81527167D01*
X86016073Y-81488320D01*
X85977703Y-81444500D01*
X85952645Y-81411202D01*
X85926292Y-81391132D01*
X85908375Y-81396005D01*
X85901765Y-81426503D01*
X85898853Y-81446741D01*
X85874146Y-81490086D01*
X85830270Y-81525602D01*
X85774558Y-81546378D01*
X85732287Y-81550474D01*
X85672422Y-81551305D01*
X85608939Y-81548550D01*
X85551155Y-81541598D01*
X85457985Y-81514387D01*
X85384189Y-81466629D01*
X85326267Y-81395662D01*
X85280721Y-81298824D01*
X85272727Y-81271166D01*
X85261027Y-81203721D01*
X85252565Y-81118891D01*
X85247679Y-81024555D01*
X85246704Y-80928595D01*
X85249978Y-80838889D01*
X85257838Y-80763318D01*
X85263930Y-80727866D01*
X85307280Y-80568719D01*
X85373696Y-80428537D01*
X85462898Y-80307644D01*
X85574605Y-80206363D01*
X85708536Y-80125018D01*
X85864412Y-80063932D01*
X85921657Y-80051414D01*
X86008122Y-80041521D01*
X86108581Y-80036480D01*
X86214740Y-80036281D01*
X86318304Y-80040916D01*
X86410979Y-80050373D01*
X86484471Y-80064644D01*
X86605905Y-80106447D01*
X86746040Y-80180764D01*
X86866770Y-80276814D01*
X86966584Y-80393081D01*
X87043973Y-80528048D01*
X87097426Y-80680199D01*
X87111275Y-80752184D01*
X87122119Y-80856002D01*
X87126971Y-80971410D01*
X87125719Y-81088825D01*
X87118253Y-81198667D01*
X87104464Y-81291353D01*
X87103230Y-81297135D01*
X87056247Y-81447080D01*
X86984606Y-81581582D01*
X86890042Y-81699145D01*
X86774288Y-81798272D01*
X86639079Y-81877470D01*
X86486151Y-81935243D01*
X86317236Y-81970094D01*
X86290667Y-81972791D01*
X86228460Y-81976836D01*
X86148512Y-81980290D01*
X86058291Y-81982852D01*
X85965265Y-81984223D01*
X85707530Y-81986118D01*
X85707530Y-81795926D01*
X86010088Y-81787804D01*
X86052317Y-81786575D01*
X86176582Y-81781466D01*
X86274386Y-81774718D01*
X86348346Y-81766112D01*
X86401077Y-81755433D01*
X86427033Y-81747883D01*
X86562839Y-81691900D01*
X86678366Y-81614195D01*
X86772835Y-81515551D01*
X86845465Y-81396752D01*
X86895478Y-81258583D01*
X86905677Y-81204838D01*
X86913949Y-81117981D01*
X86917037Y-81019222D01*
X86914944Y-80918353D01*
X86907677Y-80825164D01*
X86895239Y-80749449D01*
X86878333Y-80688157D01*
X86822869Y-80558434D01*
X86745881Y-80449133D01*
X86648086Y-80360823D01*
X86530202Y-80294073D01*
X86392946Y-80249451D01*
X86237035Y-80227527D01*
X86116493Y-80225751D01*
X85965095Y-80243167D01*
X85831894Y-80283294D01*
X85717543Y-80345749D01*
X85622693Y-80430152D01*
X85547994Y-80536119D01*
X85494097Y-80663269D01*
X85491704Y-80670971D01*
X85478626Y-80718876D01*
X85469813Y-80766770D01*
X85464506Y-80822120D01*
X85461946Y-80892394D01*
X85461373Y-80985059D01*
X85461813Y-81049154D01*
X85464015Y-81127277D01*
X85468497Y-81184332D01*
X85475748Y-81225652D01*
X85486257Y-81256573D01*
X85524144Y-81314635D01*
X85576711Y-81348530D01*
X85642887Y-81355823D01*
X85700059Y-81351118D01*
X85702764Y-81057970D01*
X85925010Y-81057970D01*
X85931328Y-81134721D01*
X85946136Y-81194235D01*
X85964789Y-81234852D01*
X86013687Y-81305632D01*
X86072243Y-81348973D01*
X86148469Y-81374591D01*
X86232294Y-81378648D01*
X86307328Y-81355608D01*
X86370620Y-81306464D01*
X86419220Y-81232210D01*
X86434511Y-81195501D01*
X86446672Y-81150108D01*
X86452740Y-81095583D01*
X86454442Y-81021610D01*
X86454438Y-81011464D01*
X86452837Y-80943602D01*
X86447154Y-80894087D01*
X86435548Y-80852711D01*
X86416182Y-80809266D01*
X86405653Y-80789321D01*
X86361589Y-80728966D01*
X86306927Y-80690625D01*
X86236365Y-80671563D01*
X86144602Y-80669041D01*
X86135758Y-80669920D01*
X86084143Y-80689758D01*
X86031511Y-80730330D01*
X85984863Y-80785169D01*
X85951197Y-80847803D01*
X85937183Y-80898219D01*
X85927017Y-80975348D01*
X85925010Y-81057970D01*
X85702764Y-81057970D01*
X85704023Y-80921559D01*
X85707988Y-80492000D01*
X85916706Y-80492000D01*
X85916706Y-80558354D01*
X85917256Y-80576728D01*
X85922426Y-80614509D01*
X85931274Y-80633711D01*
X85945385Y-80630250D01*
X85974143Y-80609692D01*
X86009716Y-80576289D01*
X86077235Y-80522719D01*
X86162632Y-80487536D01*
X86254829Y-80477140D01*
X86348890Y-80491369D01*
X86439876Y-80530064D01*
X86522851Y-80593061D01*
X86580681Y-80664616D01*
X86630499Y-80764855D01*
X86662532Y-80880404D01*
X86675291Y-81005669D01*
X86674304Y-81021610D01*
X86667284Y-81135055D01*
G37*
X85332829Y-51067702D02*
X85069422Y-51067702D01*
X85069422Y-49731851D01*
X85332829Y-49731851D01*
X85332829Y-51067702D01*
G36*
X85332829Y-51067702D02*
G01*
X85069422Y-51067702D01*
X85069422Y-49731851D01*
X85332829Y-49731851D01*
X85332829Y-51067702D01*
G37*
X85257993Y-49184569D02*
X85321382Y-49221595D01*
X85364166Y-49284201D01*
X85379866Y-49368107D01*
X85377301Y-49415627D01*
X85362145Y-49460161D01*
X85327077Y-49498294D01*
X85277268Y-49529407D01*
X85204676Y-49544466D01*
X85133494Y-49531988D01*
X85072178Y-49495556D01*
X85029187Y-49438756D01*
X85012978Y-49365172D01*
X85022169Y-49289887D01*
X85055297Y-49233090D01*
X85116804Y-49194272D01*
X85180478Y-49177405D01*
X85257993Y-49184569D01*
G36*
X85257993Y-49184569D02*
G01*
X85321382Y-49221595D01*
X85364166Y-49284201D01*
X85379866Y-49368107D01*
X85377301Y-49415627D01*
X85362145Y-49460161D01*
X85327077Y-49498294D01*
X85277268Y-49529407D01*
X85204676Y-49544466D01*
X85133494Y-49531988D01*
X85072178Y-49495556D01*
X85029187Y-49438756D01*
X85012978Y-49365172D01*
X85022169Y-49289887D01*
X85055297Y-49233090D01*
X85116804Y-49194272D01*
X85180478Y-49177405D01*
X85257993Y-49184569D01*
G37*
X62174059Y-50687394D02*
X62244380Y-50730296D01*
X62288320Y-50798968D01*
X62303496Y-50891084D01*
X62297152Y-50953708D01*
X62266072Y-51017229D01*
X62203518Y-51068639D01*
X62142712Y-51096886D01*
X62073867Y-51102152D01*
X61993697Y-51078592D01*
X61952585Y-51055693D01*
X61901911Y-51000428D01*
X61876919Y-50932460D01*
X61875970Y-50859519D01*
X61897425Y-50789332D01*
X61939644Y-50729629D01*
X62000987Y-50688139D01*
X62079816Y-50672591D01*
X62174059Y-50687394D01*
G36*
X62174059Y-50687394D02*
G01*
X62244380Y-50730296D01*
X62288320Y-50798968D01*
X62303496Y-50891084D01*
X62297152Y-50953708D01*
X62266072Y-51017229D01*
X62203518Y-51068639D01*
X62142712Y-51096886D01*
X62073867Y-51102152D01*
X61993697Y-51078592D01*
X61952585Y-51055693D01*
X61901911Y-51000428D01*
X61876919Y-50932460D01*
X61875970Y-50859519D01*
X61897425Y-50789332D01*
X61939644Y-50729629D01*
X62000987Y-50688139D01*
X62079816Y-50672591D01*
X62174059Y-50687394D01*
G37*
X80778815Y-49732037D02*
X80892941Y-49745732D01*
X80980288Y-49782214D01*
X81044748Y-49843010D01*
X81052622Y-49853331D01*
X81083025Y-49887427D01*
X81103034Y-49901184D01*
X81107596Y-49897306D01*
X81115276Y-49867019D01*
X81118311Y-49816517D01*
X81118311Y-49731851D01*
X81400533Y-49731851D01*
X81400533Y-51067702D01*
X81118311Y-51067702D01*
X81118282Y-50630258D01*
X81118121Y-50535142D01*
X81116668Y-50398348D01*
X81112785Y-50291691D01*
X81105378Y-50210434D01*
X81093353Y-50149840D01*
X81075617Y-50105173D01*
X81051075Y-50071697D01*
X81018634Y-50044675D01*
X80977200Y-50019370D01*
X80929501Y-49997104D01*
X80862863Y-49981421D01*
X80774941Y-49976753D01*
X80647941Y-49976443D01*
X80647941Y-49731851D01*
X80761434Y-49731851D01*
X80778815Y-49732037D01*
G36*
X80778815Y-49732037D02*
G01*
X80892941Y-49745732D01*
X80980288Y-49782214D01*
X81044748Y-49843010D01*
X81052622Y-49853331D01*
X81083025Y-49887427D01*
X81103034Y-49901184D01*
X81107596Y-49897306D01*
X81115276Y-49867019D01*
X81118311Y-49816517D01*
X81118311Y-49731851D01*
X81400533Y-49731851D01*
X81400533Y-51067702D01*
X81118311Y-51067702D01*
X81118282Y-50630258D01*
X81118121Y-50535142D01*
X81116668Y-50398348D01*
X81112785Y-50291691D01*
X81105378Y-50210434D01*
X81093353Y-50149840D01*
X81075617Y-50105173D01*
X81051075Y-50071697D01*
X81018634Y-50044675D01*
X80977200Y-50019370D01*
X80929501Y-49997104D01*
X80862863Y-49981421D01*
X80774941Y-49976753D01*
X80647941Y-49976443D01*
X80647941Y-49731851D01*
X80761434Y-49731851D01*
X80778815Y-49732037D01*
G37*
X67735625Y-49732783D02*
X67844073Y-49748292D01*
X67926246Y-49784386D01*
X67987266Y-49843010D01*
X67995140Y-49853331D01*
X68025544Y-49887427D01*
X68045553Y-49901184D01*
X68050114Y-49897306D01*
X68057794Y-49867019D01*
X68060829Y-49816517D01*
X68060829Y-49731851D01*
X68324237Y-49731851D01*
X68324237Y-51067702D01*
X68063252Y-51067702D01*
X68057337Y-50611443D01*
X68057037Y-50588459D01*
X68055047Y-50450387D01*
X68052856Y-50344204D01*
X68049996Y-50264900D01*
X68046001Y-50207464D01*
X68040404Y-50166885D01*
X68032738Y-50138151D01*
X68022536Y-50116252D01*
X68009331Y-50096176D01*
X67996735Y-50080193D01*
X67923011Y-50023192D01*
X67821111Y-49988290D01*
X67693560Y-49976443D01*
X67571644Y-49976443D01*
X67571644Y-49731851D01*
X67694545Y-49731851D01*
X67735625Y-49732783D01*
G36*
X67735625Y-49732783D02*
G01*
X67844073Y-49748292D01*
X67926246Y-49784386D01*
X67987266Y-49843010D01*
X67995140Y-49853331D01*
X68025544Y-49887427D01*
X68045553Y-49901184D01*
X68050114Y-49897306D01*
X68057794Y-49867019D01*
X68060829Y-49816517D01*
X68060829Y-49731851D01*
X68324237Y-49731851D01*
X68324237Y-51067702D01*
X68063252Y-51067702D01*
X68057337Y-50611443D01*
X68057037Y-50588459D01*
X68055047Y-50450387D01*
X68052856Y-50344204D01*
X68049996Y-50264900D01*
X68046001Y-50207464D01*
X68040404Y-50166885D01*
X68032738Y-50138151D01*
X68022536Y-50116252D01*
X68009331Y-50096176D01*
X67996735Y-50080193D01*
X67923011Y-50023192D01*
X67821111Y-49988290D01*
X67693560Y-49976443D01*
X67571644Y-49976443D01*
X67571644Y-49731851D01*
X67694545Y-49731851D01*
X67735625Y-49732783D01*
G37*
X62919681Y-49171579D02*
X63178385Y-49176814D01*
X63379763Y-49571925D01*
X63415135Y-49641666D01*
X63468594Y-49748460D01*
X63514417Y-49841723D01*
X63550199Y-49916478D01*
X63573536Y-49967747D01*
X63582022Y-49990554D01*
X63582015Y-49991481D01*
X63567631Y-50004478D01*
X63523599Y-50011785D01*
X63446054Y-50014073D01*
X63309204Y-50014073D01*
X63150163Y-49694221D01*
X63147769Y-49689411D01*
X63096994Y-49589937D01*
X63050554Y-49503467D01*
X63011442Y-49435231D01*
X62982647Y-49390456D01*
X62967161Y-49374369D01*
X62961681Y-49380329D01*
X62956714Y-49401869D01*
X62952661Y-49441777D01*
X62949446Y-49502805D01*
X62946990Y-49587703D01*
X62945215Y-49699225D01*
X62944043Y-49840119D01*
X62943398Y-50013139D01*
X62943200Y-50221036D01*
X62943200Y-51067702D01*
X62660978Y-51067702D01*
X62660978Y-49166344D01*
X62919681Y-49171579D01*
G36*
X62919681Y-49171579D02*
G01*
X63178385Y-49176814D01*
X63379763Y-49571925D01*
X63415135Y-49641666D01*
X63468594Y-49748460D01*
X63514417Y-49841723D01*
X63550199Y-49916478D01*
X63573536Y-49967747D01*
X63582022Y-49990554D01*
X63582015Y-49991481D01*
X63567631Y-50004478D01*
X63523599Y-50011785D01*
X63446054Y-50014073D01*
X63309204Y-50014073D01*
X63150163Y-49694221D01*
X63147769Y-49689411D01*
X63096994Y-49589937D01*
X63050554Y-49503467D01*
X63011442Y-49435231D01*
X62982647Y-49390456D01*
X62967161Y-49374369D01*
X62961681Y-49380329D01*
X62956714Y-49401869D01*
X62952661Y-49441777D01*
X62949446Y-49502805D01*
X62946990Y-49587703D01*
X62945215Y-49699225D01*
X62944043Y-49840119D01*
X62943398Y-50013139D01*
X62943200Y-50221036D01*
X62943200Y-51067702D01*
X62660978Y-51067702D01*
X62660978Y-49166344D01*
X62919681Y-49171579D01*
G37*
X64098272Y-50056406D02*
X64118874Y-50121450D01*
X64161018Y-50254592D01*
X64203809Y-50389867D01*
X64243239Y-50514608D01*
X64275302Y-50616147D01*
X64304263Y-50703543D01*
X64334638Y-50784155D01*
X64359289Y-50836596D01*
X64376469Y-50856710D01*
X64384388Y-50852385D01*
X64399378Y-50827705D01*
X64420231Y-50779152D01*
X64447843Y-50704263D01*
X64483110Y-50600577D01*
X64526927Y-50465633D01*
X64580190Y-50296969D01*
X64756950Y-49731851D01*
X65049428Y-49731851D01*
X64824166Y-50393443D01*
X64820250Y-50404945D01*
X64769541Y-50554065D01*
X64722968Y-50691339D01*
X64681867Y-50812805D01*
X64647575Y-50914502D01*
X64621426Y-50992469D01*
X64604757Y-51042745D01*
X64598904Y-51061369D01*
X64581830Y-51063802D01*
X64534364Y-51065829D01*
X64463846Y-51067199D01*
X64377622Y-51067702D01*
X64156341Y-51067702D01*
X63942163Y-50423295D01*
X63894971Y-50281371D01*
X63848815Y-50142697D01*
X63807552Y-50018859D01*
X63772573Y-49914032D01*
X63745274Y-49832391D01*
X63727046Y-49778112D01*
X63719284Y-49755369D01*
X63718712Y-49749759D01*
X63733989Y-49739246D01*
X63777154Y-49733559D01*
X63853014Y-49731851D01*
X63995446Y-49731851D01*
X64098272Y-50056406D01*
G36*
X64098272Y-50056406D02*
G01*
X64118874Y-50121450D01*
X64161018Y-50254592D01*
X64203809Y-50389867D01*
X64243239Y-50514608D01*
X64275302Y-50616147D01*
X64304263Y-50703543D01*
X64334638Y-50784155D01*
X64359289Y-50836596D01*
X64376469Y-50856710D01*
X64384388Y-50852385D01*
X64399378Y-50827705D01*
X64420231Y-50779152D01*
X64447843Y-50704263D01*
X64483110Y-50600577D01*
X64526927Y-50465633D01*
X64580190Y-50296969D01*
X64756950Y-49731851D01*
X65049428Y-49731851D01*
X64824166Y-50393443D01*
X64820250Y-50404945D01*
X64769541Y-50554065D01*
X64722968Y-50691339D01*
X64681867Y-50812805D01*
X64647575Y-50914502D01*
X64621426Y-50992469D01*
X64604757Y-51042745D01*
X64598904Y-51061369D01*
X64581830Y-51063802D01*
X64534364Y-51065829D01*
X64463846Y-51067199D01*
X64377622Y-51067702D01*
X64156341Y-51067702D01*
X63942163Y-50423295D01*
X63894971Y-50281371D01*
X63848815Y-50142697D01*
X63807552Y-50018859D01*
X63772573Y-49914032D01*
X63745274Y-49832391D01*
X63727046Y-49778112D01*
X63719284Y-49755369D01*
X63718712Y-49749759D01*
X63733989Y-49739246D01*
X63777154Y-49733559D01*
X63853014Y-49731851D01*
X63995446Y-49731851D01*
X64098272Y-50056406D01*
G37*
X89422109Y-49721261D02*
X89505498Y-49741120D01*
X89594007Y-49780998D01*
X89668191Y-49833287D01*
X89716405Y-49891261D01*
X89720242Y-49898222D01*
X89749209Y-49935361D01*
X89771881Y-49936468D01*
X89786659Y-49902730D01*
X89791941Y-49835332D01*
X89791941Y-49731851D01*
X90055348Y-49731851D01*
X90055348Y-51067702D01*
X89795070Y-51067702D01*
X89788666Y-50649073D01*
X89787506Y-50576342D01*
X89785106Y-50455477D01*
X89782174Y-50363956D01*
X89778178Y-50296246D01*
X89772584Y-50246813D01*
X89764860Y-50210125D01*
X89754472Y-50180647D01*
X89740889Y-50152847D01*
X89696789Y-50086396D01*
X89614221Y-50010021D01*
X89516979Y-49961393D01*
X89411877Y-49942441D01*
X89305731Y-49955095D01*
X89205356Y-50001283D01*
X89183384Y-50016514D01*
X89150375Y-50044024D01*
X89124978Y-50075698D01*
X89106204Y-50116315D01*
X89093062Y-50170655D01*
X89084561Y-50243499D01*
X89079712Y-50339626D01*
X89077524Y-50463817D01*
X89077007Y-50620851D01*
X89076978Y-51067702D01*
X88791434Y-51067702D01*
X88799649Y-50592628D01*
X88802358Y-50452161D01*
X88806211Y-50318168D01*
X88811702Y-50212455D01*
X88819782Y-50129977D01*
X88831403Y-50065691D01*
X88847519Y-50014549D01*
X88869080Y-49971509D01*
X88897039Y-49931524D01*
X88932349Y-49889551D01*
X89031078Y-49799895D01*
X89143907Y-49742100D01*
X89273115Y-49716279D01*
X89422109Y-49721261D01*
G36*
X89422109Y-49721261D02*
G01*
X89505498Y-49741120D01*
X89594007Y-49780998D01*
X89668191Y-49833287D01*
X89716405Y-49891261D01*
X89720242Y-49898222D01*
X89749209Y-49935361D01*
X89771881Y-49936468D01*
X89786659Y-49902730D01*
X89791941Y-49835332D01*
X89791941Y-49731851D01*
X90055348Y-49731851D01*
X90055348Y-51067702D01*
X89795070Y-51067702D01*
X89788666Y-50649073D01*
X89787506Y-50576342D01*
X89785106Y-50455477D01*
X89782174Y-50363956D01*
X89778178Y-50296246D01*
X89772584Y-50246813D01*
X89764860Y-50210125D01*
X89754472Y-50180647D01*
X89740889Y-50152847D01*
X89696789Y-50086396D01*
X89614221Y-50010021D01*
X89516979Y-49961393D01*
X89411877Y-49942441D01*
X89305731Y-49955095D01*
X89205356Y-50001283D01*
X89183384Y-50016514D01*
X89150375Y-50044024D01*
X89124978Y-50075698D01*
X89106204Y-50116315D01*
X89093062Y-50170655D01*
X89084561Y-50243499D01*
X89079712Y-50339626D01*
X89077524Y-50463817D01*
X89077007Y-50620851D01*
X89076978Y-51067702D01*
X88791434Y-51067702D01*
X88799649Y-50592628D01*
X88802358Y-50452161D01*
X88806211Y-50318168D01*
X88811702Y-50212455D01*
X88819782Y-50129977D01*
X88831403Y-50065691D01*
X88847519Y-50014549D01*
X88869080Y-49971509D01*
X88897039Y-49931524D01*
X88932349Y-49889551D01*
X89031078Y-49799895D01*
X89143907Y-49742100D01*
X89273115Y-49716279D01*
X89422109Y-49721261D01*
G37*
X84059361Y-49730597D02*
X84111727Y-49747945D01*
X84188563Y-49788632D01*
X84255203Y-49839771D01*
X84298317Y-49892342D01*
X84301835Y-49898734D01*
X84330611Y-49935600D01*
X84353211Y-49936484D01*
X84367983Y-49902642D01*
X84373274Y-49835332D01*
X84373274Y-49731851D01*
X84636681Y-49731851D01*
X84636681Y-51067702D01*
X84376404Y-51067702D01*
X84369999Y-50649073D01*
X84368839Y-50576342D01*
X84366439Y-50455477D01*
X84363508Y-50363956D01*
X84359511Y-50296246D01*
X84353917Y-50246813D01*
X84346193Y-50210125D01*
X84335806Y-50180647D01*
X84322222Y-50152847D01*
X84278122Y-50086396D01*
X84195554Y-50010021D01*
X84098312Y-49961393D01*
X83993210Y-49942441D01*
X83887065Y-49955095D01*
X83786689Y-50001283D01*
X83764717Y-50016514D01*
X83731708Y-50044024D01*
X83706312Y-50075698D01*
X83687537Y-50116315D01*
X83674395Y-50170655D01*
X83665894Y-50243499D01*
X83661045Y-50339626D01*
X83658857Y-50463817D01*
X83658340Y-50620851D01*
X83658311Y-51067702D01*
X83372767Y-51067702D01*
X83380982Y-50592628D01*
X83384006Y-50437810D01*
X83387967Y-50306593D01*
X83393713Y-50203126D01*
X83402245Y-50122338D01*
X83414568Y-50059162D01*
X83431686Y-50008527D01*
X83454601Y-49965365D01*
X83484318Y-49924606D01*
X83521840Y-49881182D01*
X83543741Y-49858323D01*
X83650881Y-49778649D01*
X83775739Y-49729904D01*
X83913503Y-49713437D01*
X84059361Y-49730597D01*
G36*
X84059361Y-49730597D02*
G01*
X84111727Y-49747945D01*
X84188563Y-49788632D01*
X84255203Y-49839771D01*
X84298317Y-49892342D01*
X84301835Y-49898734D01*
X84330611Y-49935600D01*
X84353211Y-49936484D01*
X84367983Y-49902642D01*
X84373274Y-49835332D01*
X84373274Y-49731851D01*
X84636681Y-49731851D01*
X84636681Y-51067702D01*
X84376404Y-51067702D01*
X84369999Y-50649073D01*
X84368839Y-50576342D01*
X84366439Y-50455477D01*
X84363508Y-50363956D01*
X84359511Y-50296246D01*
X84353917Y-50246813D01*
X84346193Y-50210125D01*
X84335806Y-50180647D01*
X84322222Y-50152847D01*
X84278122Y-50086396D01*
X84195554Y-50010021D01*
X84098312Y-49961393D01*
X83993210Y-49942441D01*
X83887065Y-49955095D01*
X83786689Y-50001283D01*
X83764717Y-50016514D01*
X83731708Y-50044024D01*
X83706312Y-50075698D01*
X83687537Y-50116315D01*
X83674395Y-50170655D01*
X83665894Y-50243499D01*
X83661045Y-50339626D01*
X83658857Y-50463817D01*
X83658340Y-50620851D01*
X83658311Y-51067702D01*
X83372767Y-51067702D01*
X83380982Y-50592628D01*
X83384006Y-50437810D01*
X83387967Y-50306593D01*
X83393713Y-50203126D01*
X83402245Y-50122338D01*
X83414568Y-50059162D01*
X83431686Y-50008527D01*
X83454601Y-49965365D01*
X83484318Y-49924606D01*
X83521840Y-49881182D01*
X83543741Y-49858323D01*
X83650881Y-49778649D01*
X83775739Y-49729904D01*
X83913503Y-49713437D01*
X84059361Y-49730597D01*
G37*
X71624829Y-50435605D02*
X71608864Y-50588007D01*
X71568973Y-50724492D01*
X71507262Y-50833801D01*
X71410098Y-50938139D01*
X71287953Y-51020026D01*
X71146003Y-51075170D01*
X71026186Y-51098128D01*
X70868344Y-51100600D01*
X70718821Y-51072348D01*
X70582304Y-51015476D01*
X70463476Y-50932086D01*
X70367024Y-50824284D01*
X70297633Y-50694174D01*
X70272555Y-50605062D01*
X70256336Y-50478061D01*
X70255593Y-50384937D01*
X70526714Y-50384937D01*
X70530593Y-50494062D01*
X70546656Y-50587863D01*
X70547788Y-50591769D01*
X70585758Y-50667888D01*
X70647837Y-50742221D01*
X70722556Y-50803299D01*
X70798447Y-50839654D01*
X70920284Y-50859348D01*
X71042497Y-50848358D01*
X71151307Y-50805330D01*
X71241835Y-50731454D01*
X71252256Y-50719479D01*
X71310491Y-50630038D01*
X71343197Y-50526490D01*
X71353422Y-50399776D01*
X71352586Y-50359771D01*
X71336276Y-50241094D01*
X71296899Y-50144147D01*
X71231505Y-50060730D01*
X71162872Y-50004784D01*
X71053328Y-49955082D01*
X70930966Y-49939852D01*
X70798385Y-49959699D01*
X70793955Y-49960981D01*
X70719817Y-49998556D01*
X70647009Y-50060671D01*
X70586330Y-50136314D01*
X70548574Y-50214473D01*
X70534921Y-50279148D01*
X70526714Y-50384937D01*
X70255593Y-50384937D01*
X70255256Y-50342629D01*
X70269296Y-50212955D01*
X70298438Y-50103226D01*
X70320312Y-50053565D01*
X70399112Y-49934383D01*
X70503198Y-49837621D01*
X70627742Y-49765084D01*
X70767914Y-49718580D01*
X70918886Y-49699914D01*
X71075828Y-49710893D01*
X71233911Y-49753323D01*
X71310012Y-49791129D01*
X71408280Y-49865075D01*
X71494067Y-49956634D01*
X71555769Y-50054932D01*
X71585977Y-50133711D01*
X71617117Y-50279951D01*
X71623054Y-50399776D01*
X71624829Y-50435605D01*
G36*
X71624829Y-50435605D02*
G01*
X71608864Y-50588007D01*
X71568973Y-50724492D01*
X71507262Y-50833801D01*
X71410098Y-50938139D01*
X71287953Y-51020026D01*
X71146003Y-51075170D01*
X71026186Y-51098128D01*
X70868344Y-51100600D01*
X70718821Y-51072348D01*
X70582304Y-51015476D01*
X70463476Y-50932086D01*
X70367024Y-50824284D01*
X70297633Y-50694174D01*
X70272555Y-50605062D01*
X70256336Y-50478061D01*
X70255593Y-50384937D01*
X70526714Y-50384937D01*
X70530593Y-50494062D01*
X70546656Y-50587863D01*
X70547788Y-50591769D01*
X70585758Y-50667888D01*
X70647837Y-50742221D01*
X70722556Y-50803299D01*
X70798447Y-50839654D01*
X70920284Y-50859348D01*
X71042497Y-50848358D01*
X71151307Y-50805330D01*
X71241835Y-50731454D01*
X71252256Y-50719479D01*
X71310491Y-50630038D01*
X71343197Y-50526490D01*
X71353422Y-50399776D01*
X71352586Y-50359771D01*
X71336276Y-50241094D01*
X71296899Y-50144147D01*
X71231505Y-50060730D01*
X71162872Y-50004784D01*
X71053328Y-49955082D01*
X70930966Y-49939852D01*
X70798385Y-49959699D01*
X70793955Y-49960981D01*
X70719817Y-49998556D01*
X70647009Y-50060671D01*
X70586330Y-50136314D01*
X70548574Y-50214473D01*
X70534921Y-50279148D01*
X70526714Y-50384937D01*
X70255593Y-50384937D01*
X70255256Y-50342629D01*
X70269296Y-50212955D01*
X70298438Y-50103226D01*
X70320312Y-50053565D01*
X70399112Y-49934383D01*
X70503198Y-49837621D01*
X70627742Y-49765084D01*
X70767914Y-49718580D01*
X70918886Y-49699914D01*
X71075828Y-49710893D01*
X71233911Y-49753323D01*
X71310012Y-49791129D01*
X71408280Y-49865075D01*
X71494067Y-49956634D01*
X71555769Y-50054932D01*
X71585977Y-50133711D01*
X71617117Y-50279951D01*
X71623054Y-50399776D01*
X71624829Y-50435605D01*
G37*
X83031008Y-50293285D02*
X83033246Y-50455338D01*
X83026303Y-50533213D01*
X82990243Y-50692053D01*
X82926096Y-50825969D01*
X82833993Y-50934789D01*
X82714062Y-51018342D01*
X82566433Y-51076456D01*
X82551982Y-51080244D01*
X82436959Y-51096664D01*
X82309161Y-51096045D01*
X82184463Y-51079332D01*
X82078735Y-51047467D01*
X82067373Y-51042226D01*
X81993379Y-50995683D01*
X81915324Y-50930277D01*
X81845898Y-50857663D01*
X81797793Y-50789495D01*
X81796070Y-50786220D01*
X81788660Y-50763977D01*
X81797405Y-50745283D01*
X81828291Y-50723658D01*
X81887303Y-50692626D01*
X81998590Y-50636448D01*
X82047657Y-50710592D01*
X82056845Y-50723831D01*
X82134318Y-50799842D01*
X82233737Y-50845417D01*
X82354635Y-50860326D01*
X82471921Y-50846092D01*
X82575490Y-50806565D01*
X82655524Y-50745372D01*
X82670255Y-50727714D01*
X82712451Y-50658471D01*
X82743264Y-50581173D01*
X82755200Y-50513270D01*
X82755200Y-50465628D01*
X81733896Y-50465628D01*
X81743676Y-50308865D01*
X81748109Y-50258665D01*
X82021422Y-50258665D01*
X82759279Y-50258665D01*
X82746687Y-50206925D01*
X82734796Y-50168594D01*
X82682320Y-50077865D01*
X82605361Y-50007368D01*
X82510734Y-49959847D01*
X82405256Y-49938044D01*
X82295743Y-49944700D01*
X82189011Y-49982558D01*
X82140661Y-50015103D01*
X82080485Y-50077628D01*
X82038046Y-50148613D01*
X82021732Y-50216332D01*
X82021422Y-50258665D01*
X81748109Y-50258665D01*
X81749344Y-50244678D01*
X81774949Y-50116584D01*
X81820934Y-50008971D01*
X81890910Y-49912108D01*
X81929943Y-49871685D01*
X82044103Y-49787073D01*
X82172822Y-49730670D01*
X82310132Y-49702158D01*
X82450064Y-49701219D01*
X82586649Y-49727535D01*
X82713919Y-49780787D01*
X82825906Y-49860656D01*
X82916639Y-49966825D01*
X82951682Y-50025506D01*
X83004513Y-50152915D01*
X83024474Y-50258665D01*
X83031008Y-50293285D01*
G36*
X83031008Y-50293285D02*
G01*
X83033246Y-50455338D01*
X83026303Y-50533213D01*
X82990243Y-50692053D01*
X82926096Y-50825969D01*
X82833993Y-50934789D01*
X82714062Y-51018342D01*
X82566433Y-51076456D01*
X82551982Y-51080244D01*
X82436959Y-51096664D01*
X82309161Y-51096045D01*
X82184463Y-51079332D01*
X82078735Y-51047467D01*
X82067373Y-51042226D01*
X81993379Y-50995683D01*
X81915324Y-50930277D01*
X81845898Y-50857663D01*
X81797793Y-50789495D01*
X81796070Y-50786220D01*
X81788660Y-50763977D01*
X81797405Y-50745283D01*
X81828291Y-50723658D01*
X81887303Y-50692626D01*
X81998590Y-50636448D01*
X82047657Y-50710592D01*
X82056845Y-50723831D01*
X82134318Y-50799842D01*
X82233737Y-50845417D01*
X82354635Y-50860326D01*
X82471921Y-50846092D01*
X82575490Y-50806565D01*
X82655524Y-50745372D01*
X82670255Y-50727714D01*
X82712451Y-50658471D01*
X82743264Y-50581173D01*
X82755200Y-50513270D01*
X82755200Y-50465628D01*
X81733896Y-50465628D01*
X81743676Y-50308865D01*
X81748109Y-50258665D01*
X82021422Y-50258665D01*
X82759279Y-50258665D01*
X82746687Y-50206925D01*
X82734796Y-50168594D01*
X82682320Y-50077865D01*
X82605361Y-50007368D01*
X82510734Y-49959847D01*
X82405256Y-49938044D01*
X82295743Y-49944700D01*
X82189011Y-49982558D01*
X82140661Y-50015103D01*
X82080485Y-50077628D01*
X82038046Y-50148613D01*
X82021732Y-50216332D01*
X82021422Y-50258665D01*
X81748109Y-50258665D01*
X81749344Y-50244678D01*
X81774949Y-50116584D01*
X81820934Y-50008971D01*
X81890910Y-49912108D01*
X81929943Y-49871685D01*
X82044103Y-49787073D01*
X82172822Y-49730670D01*
X82310132Y-49702158D01*
X82450064Y-49701219D01*
X82586649Y-49727535D01*
X82713919Y-49780787D01*
X82825906Y-49860656D01*
X82916639Y-49966825D01*
X82951682Y-50025506D01*
X83004513Y-50152915D01*
X83024474Y-50258665D01*
X83031008Y-50293285D01*
G37*
X98106324Y-50416061D02*
X98086956Y-50582295D01*
X98054163Y-50693373D01*
X97982974Y-50828531D01*
X97883971Y-50939622D01*
X97759445Y-51024246D01*
X97611688Y-51080004D01*
X97587158Y-51085453D01*
X97477608Y-51096827D01*
X97354198Y-51094233D01*
X97233196Y-51078650D01*
X97130872Y-51051057D01*
X97008629Y-50988041D01*
X96897127Y-50890519D01*
X96808625Y-50763539D01*
X96802809Y-50752801D01*
X96778180Y-50705490D01*
X96761615Y-50665575D01*
X96751516Y-50624052D01*
X96746282Y-50571914D01*
X96744315Y-50500158D01*
X96744015Y-50399777D01*
X96744173Y-50352361D01*
X97005439Y-50352361D01*
X97006445Y-50463240D01*
X97021204Y-50566318D01*
X97049717Y-50647983D01*
X97086771Y-50704413D01*
X97172632Y-50785461D01*
X97278341Y-50839326D01*
X97295038Y-50844538D01*
X97414141Y-50861283D01*
X97530137Y-50844864D01*
X97636096Y-50798174D01*
X97725092Y-50724106D01*
X97790196Y-50625554D01*
X97811194Y-50558669D01*
X97824206Y-50460546D01*
X97825153Y-50353978D01*
X97814016Y-50253547D01*
X97790777Y-50173837D01*
X97778906Y-50149854D01*
X97710975Y-50058604D01*
X97623361Y-49993095D01*
X97522588Y-49953522D01*
X97415182Y-49940082D01*
X97307666Y-49952971D01*
X97206567Y-49992384D01*
X97118409Y-50058519D01*
X97049717Y-50151570D01*
X97044690Y-50161648D01*
X97018188Y-50247292D01*
X97005439Y-50352361D01*
X96744173Y-50352361D01*
X96744295Y-50315937D01*
X96746149Y-50237742D01*
X96750904Y-50181486D01*
X96759878Y-50138436D01*
X96774388Y-50099863D01*
X96795754Y-50057035D01*
X96872907Y-49939913D01*
X96976754Y-49841140D01*
X97109237Y-49762808D01*
X97150297Y-49744073D01*
X97205723Y-49723007D01*
X97258969Y-49711253D01*
X97323289Y-49706311D01*
X97411941Y-49705677D01*
X97527676Y-49711472D01*
X97661868Y-49736603D01*
X97776454Y-49783902D01*
X97879233Y-49855877D01*
X97888687Y-49864155D01*
X97984181Y-49974050D01*
X98053346Y-50106376D01*
X98094591Y-50255567D01*
X98101786Y-50353978D01*
X98106324Y-50416061D01*
G36*
X98106324Y-50416061D02*
G01*
X98086956Y-50582295D01*
X98054163Y-50693373D01*
X97982974Y-50828531D01*
X97883971Y-50939622D01*
X97759445Y-51024246D01*
X97611688Y-51080004D01*
X97587158Y-51085453D01*
X97477608Y-51096827D01*
X97354198Y-51094233D01*
X97233196Y-51078650D01*
X97130872Y-51051057D01*
X97008629Y-50988041D01*
X96897127Y-50890519D01*
X96808625Y-50763539D01*
X96802809Y-50752801D01*
X96778180Y-50705490D01*
X96761615Y-50665575D01*
X96751516Y-50624052D01*
X96746282Y-50571914D01*
X96744315Y-50500158D01*
X96744015Y-50399777D01*
X96744173Y-50352361D01*
X97005439Y-50352361D01*
X97006445Y-50463240D01*
X97021204Y-50566318D01*
X97049717Y-50647983D01*
X97086771Y-50704413D01*
X97172632Y-50785461D01*
X97278341Y-50839326D01*
X97295038Y-50844538D01*
X97414141Y-50861283D01*
X97530137Y-50844864D01*
X97636096Y-50798174D01*
X97725092Y-50724106D01*
X97790196Y-50625554D01*
X97811194Y-50558669D01*
X97824206Y-50460546D01*
X97825153Y-50353978D01*
X97814016Y-50253547D01*
X97790777Y-50173837D01*
X97778906Y-50149854D01*
X97710975Y-50058604D01*
X97623361Y-49993095D01*
X97522588Y-49953522D01*
X97415182Y-49940082D01*
X97307666Y-49952971D01*
X97206567Y-49992384D01*
X97118409Y-50058519D01*
X97049717Y-50151570D01*
X97044690Y-50161648D01*
X97018188Y-50247292D01*
X97005439Y-50352361D01*
X96744173Y-50352361D01*
X96744295Y-50315937D01*
X96746149Y-50237742D01*
X96750904Y-50181486D01*
X96759878Y-50138436D01*
X96774388Y-50099863D01*
X96795754Y-50057035D01*
X96872907Y-49939913D01*
X96976754Y-49841140D01*
X97109237Y-49762808D01*
X97150297Y-49744073D01*
X97205723Y-49723007D01*
X97258969Y-49711253D01*
X97323289Y-49706311D01*
X97411941Y-49705677D01*
X97527676Y-49711472D01*
X97661868Y-49736603D01*
X97776454Y-49783902D01*
X97879233Y-49855877D01*
X97888687Y-49864155D01*
X97984181Y-49974050D01*
X98053346Y-50106376D01*
X98094591Y-50255567D01*
X98101786Y-50353978D01*
X98106324Y-50416061D01*
G37*
X67393606Y-50482186D02*
X67390444Y-50513395D01*
X67356620Y-50677054D01*
X67295723Y-50814774D01*
X67207232Y-50927250D01*
X67090623Y-51015179D01*
X66945374Y-51079258D01*
X66895706Y-51090777D01*
X66800100Y-51098097D01*
X66696020Y-51093192D01*
X66598451Y-51077072D01*
X66522384Y-51050748D01*
X66503641Y-51040090D01*
X66442758Y-50996759D01*
X66387324Y-50947055D01*
X66366230Y-50925755D01*
X66321036Y-50888583D01*
X66292544Y-50883696D01*
X66277692Y-50911806D01*
X66273422Y-50973628D01*
X66273422Y-51067702D01*
X66010015Y-51067702D01*
X66010015Y-50389710D01*
X66292237Y-50389710D01*
X66295806Y-50483357D01*
X66315731Y-50598141D01*
X66355628Y-50687790D01*
X66418294Y-50757841D01*
X66506526Y-50813830D01*
X66575516Y-50841195D01*
X66694287Y-50860418D01*
X66811977Y-50848419D01*
X66920351Y-50806471D01*
X67011173Y-50735845D01*
X67063817Y-50657551D01*
X67101379Y-50552538D01*
X67119502Y-50434269D01*
X67116613Y-50313290D01*
X67091136Y-50200149D01*
X67062439Y-50137212D01*
X66994706Y-50050744D01*
X66907844Y-49988251D01*
X66808275Y-49950216D01*
X66702422Y-49937124D01*
X66596707Y-49949459D01*
X66497554Y-49987705D01*
X66411385Y-50052346D01*
X66344624Y-50143867D01*
X66323886Y-50186314D01*
X66304062Y-50242959D01*
X66294633Y-50305499D01*
X66292237Y-50389710D01*
X66010015Y-50389710D01*
X66010015Y-49165758D01*
X66282829Y-49176814D01*
X66287931Y-49548406D01*
X66288216Y-49567717D01*
X66290680Y-49679424D01*
X66294169Y-49776173D01*
X66298380Y-49852298D01*
X66303011Y-49902129D01*
X66307759Y-49919999D01*
X66316895Y-49915753D01*
X66347240Y-49891100D01*
X66387324Y-49851776D01*
X66463943Y-49786990D01*
X66577436Y-49730217D01*
X66702396Y-49702151D01*
X66832589Y-49702004D01*
X66961782Y-49728987D01*
X67083741Y-49782312D01*
X67192232Y-49861189D01*
X67281022Y-49964830D01*
X67318866Y-50031686D01*
X67368293Y-50168776D01*
X67393911Y-50322184D01*
X67393697Y-50434269D01*
X67393606Y-50482186D01*
G36*
X67393606Y-50482186D02*
G01*
X67390444Y-50513395D01*
X67356620Y-50677054D01*
X67295723Y-50814774D01*
X67207232Y-50927250D01*
X67090623Y-51015179D01*
X66945374Y-51079258D01*
X66895706Y-51090777D01*
X66800100Y-51098097D01*
X66696020Y-51093192D01*
X66598451Y-51077072D01*
X66522384Y-51050748D01*
X66503641Y-51040090D01*
X66442758Y-50996759D01*
X66387324Y-50947055D01*
X66366230Y-50925755D01*
X66321036Y-50888583D01*
X66292544Y-50883696D01*
X66277692Y-50911806D01*
X66273422Y-50973628D01*
X66273422Y-51067702D01*
X66010015Y-51067702D01*
X66010015Y-50389710D01*
X66292237Y-50389710D01*
X66295806Y-50483357D01*
X66315731Y-50598141D01*
X66355628Y-50687790D01*
X66418294Y-50757841D01*
X66506526Y-50813830D01*
X66575516Y-50841195D01*
X66694287Y-50860418D01*
X66811977Y-50848419D01*
X66920351Y-50806471D01*
X67011173Y-50735845D01*
X67063817Y-50657551D01*
X67101379Y-50552538D01*
X67119502Y-50434269D01*
X67116613Y-50313290D01*
X67091136Y-50200149D01*
X67062439Y-50137212D01*
X66994706Y-50050744D01*
X66907844Y-49988251D01*
X66808275Y-49950216D01*
X66702422Y-49937124D01*
X66596707Y-49949459D01*
X66497554Y-49987705D01*
X66411385Y-50052346D01*
X66344624Y-50143867D01*
X66323886Y-50186314D01*
X66304062Y-50242959D01*
X66294633Y-50305499D01*
X66292237Y-50389710D01*
X66010015Y-50389710D01*
X66010015Y-49165758D01*
X66282829Y-49176814D01*
X66287931Y-49548406D01*
X66288216Y-49567717D01*
X66290680Y-49679424D01*
X66294169Y-49776173D01*
X66298380Y-49852298D01*
X66303011Y-49902129D01*
X66307759Y-49919999D01*
X66316895Y-49915753D01*
X66347240Y-49891100D01*
X66387324Y-49851776D01*
X66463943Y-49786990D01*
X66577436Y-49730217D01*
X66702396Y-49702151D01*
X66832589Y-49702004D01*
X66961782Y-49728987D01*
X67083741Y-49782312D01*
X67192232Y-49861189D01*
X67281022Y-49964830D01*
X67318866Y-50031686D01*
X67368293Y-50168776D01*
X67393911Y-50322184D01*
X67393697Y-50434269D01*
X67393606Y-50482186D01*
G37*
X74936635Y-50298470D02*
X74937367Y-50390369D01*
X74934863Y-50489478D01*
X74921367Y-50610149D01*
X74893726Y-50709241D01*
X74849182Y-50795574D01*
X74784981Y-50877966D01*
X74750021Y-50915351D01*
X74666992Y-50988654D01*
X74579884Y-51039537D01*
X74475150Y-51076689D01*
X74364912Y-51096739D01*
X74227333Y-51097868D01*
X74090487Y-51076775D01*
X73965361Y-51035283D01*
X73862940Y-50975212D01*
X73851850Y-50965814D01*
X73813327Y-50927496D01*
X73769739Y-50878715D01*
X73728892Y-50828848D01*
X73698591Y-50787275D01*
X73686642Y-50763375D01*
X73700195Y-50749808D01*
X73738820Y-50724136D01*
X73793753Y-50692564D01*
X73833055Y-50671861D01*
X73877499Y-50652326D01*
X73902670Y-50649671D01*
X73916429Y-50661936D01*
X73956403Y-50719219D01*
X74021407Y-50784913D01*
X74088899Y-50830270D01*
X74177848Y-50856446D01*
X74284356Y-50860203D01*
X74392282Y-50841540D01*
X74489818Y-50802561D01*
X74565154Y-50745372D01*
X74579884Y-50727714D01*
X74622080Y-50658471D01*
X74652893Y-50581173D01*
X74664829Y-50513270D01*
X74664829Y-50465628D01*
X73644111Y-50465628D01*
X73652750Y-50310406D01*
X73658712Y-50258665D01*
X73911520Y-50258665D01*
X74665546Y-50258665D01*
X74653364Y-50206925D01*
X74651933Y-50201042D01*
X74608757Y-50098254D01*
X74537846Y-50020304D01*
X74440701Y-49968374D01*
X74318824Y-49943644D01*
X74237602Y-49943690D01*
X74125700Y-49969229D01*
X74033416Y-50023357D01*
X73964673Y-50103460D01*
X73923398Y-50206925D01*
X73911520Y-50258665D01*
X73658712Y-50258665D01*
X73667683Y-50180814D01*
X73703061Y-50061267D01*
X73761945Y-49958986D01*
X73848197Y-49865172D01*
X73877547Y-49839904D01*
X74005969Y-49759116D01*
X74148562Y-49711648D01*
X74300799Y-49698570D01*
X74458156Y-49720954D01*
X74465448Y-49722845D01*
X74601685Y-49771970D01*
X74711969Y-49842989D01*
X74802254Y-49940854D01*
X74878493Y-50070517D01*
X74880317Y-50074293D01*
X74906689Y-50132098D01*
X74923438Y-50180972D01*
X74932706Y-50232550D01*
X74934263Y-50258665D01*
X74936635Y-50298470D01*
G36*
X74936635Y-50298470D02*
G01*
X74937367Y-50390369D01*
X74934863Y-50489478D01*
X74921367Y-50610149D01*
X74893726Y-50709241D01*
X74849182Y-50795574D01*
X74784981Y-50877966D01*
X74750021Y-50915351D01*
X74666992Y-50988654D01*
X74579884Y-51039537D01*
X74475150Y-51076689D01*
X74364912Y-51096739D01*
X74227333Y-51097868D01*
X74090487Y-51076775D01*
X73965361Y-51035283D01*
X73862940Y-50975212D01*
X73851850Y-50965814D01*
X73813327Y-50927496D01*
X73769739Y-50878715D01*
X73728892Y-50828848D01*
X73698591Y-50787275D01*
X73686642Y-50763375D01*
X73700195Y-50749808D01*
X73738820Y-50724136D01*
X73793753Y-50692564D01*
X73833055Y-50671861D01*
X73877499Y-50652326D01*
X73902670Y-50649671D01*
X73916429Y-50661936D01*
X73956403Y-50719219D01*
X74021407Y-50784913D01*
X74088899Y-50830270D01*
X74177848Y-50856446D01*
X74284356Y-50860203D01*
X74392282Y-50841540D01*
X74489818Y-50802561D01*
X74565154Y-50745372D01*
X74579884Y-50727714D01*
X74622080Y-50658471D01*
X74652893Y-50581173D01*
X74664829Y-50513270D01*
X74664829Y-50465628D01*
X73644111Y-50465628D01*
X73652750Y-50310406D01*
X73658712Y-50258665D01*
X73911520Y-50258665D01*
X74665546Y-50258665D01*
X74653364Y-50206925D01*
X74651933Y-50201042D01*
X74608757Y-50098254D01*
X74537846Y-50020304D01*
X74440701Y-49968374D01*
X74318824Y-49943644D01*
X74237602Y-49943690D01*
X74125700Y-49969229D01*
X74033416Y-50023357D01*
X73964673Y-50103460D01*
X73923398Y-50206925D01*
X73911520Y-50258665D01*
X73658712Y-50258665D01*
X73667683Y-50180814D01*
X73703061Y-50061267D01*
X73761945Y-49958986D01*
X73848197Y-49865172D01*
X73877547Y-49839904D01*
X74005969Y-49759116D01*
X74148562Y-49711648D01*
X74300799Y-49698570D01*
X74458156Y-49720954D01*
X74465448Y-49722845D01*
X74601685Y-49771970D01*
X74711969Y-49842989D01*
X74802254Y-49940854D01*
X74878493Y-50070517D01*
X74880317Y-50074293D01*
X74906689Y-50132098D01*
X74923438Y-50180972D01*
X74932706Y-50232550D01*
X74934263Y-50258665D01*
X74936635Y-50298470D01*
G37*
X91776862Y-50430034D02*
X91775595Y-50520978D01*
X91771458Y-50586800D01*
X91762977Y-50637328D01*
X91748677Y-50682391D01*
X91727083Y-50731820D01*
X91653358Y-50852548D01*
X91548057Y-50959384D01*
X91420670Y-51038096D01*
X91275832Y-51085057D01*
X91267462Y-51086665D01*
X91095737Y-51102859D01*
X90935605Y-51086159D01*
X90790263Y-51038027D01*
X90662909Y-50959922D01*
X90556742Y-50853303D01*
X90474961Y-50719628D01*
X90474711Y-50719093D01*
X90451009Y-50664752D01*
X90435722Y-50616600D01*
X90427050Y-50563686D01*
X90423191Y-50495061D01*
X90422343Y-50399777D01*
X90695878Y-50399777D01*
X90701094Y-50503720D01*
X90723369Y-50605858D01*
X90766163Y-50688815D01*
X90832695Y-50761097D01*
X90850611Y-50775645D01*
X90912864Y-50815383D01*
X90972056Y-50840793D01*
X91035860Y-50854494D01*
X91160656Y-50857066D01*
X91273541Y-50827225D01*
X91370067Y-50767298D01*
X91445785Y-50679614D01*
X91496250Y-50566500D01*
X91503475Y-50538969D01*
X91519140Y-50403996D01*
X91505097Y-50269855D01*
X91462347Y-50148862D01*
X91430399Y-50098043D01*
X91351773Y-50021408D01*
X91254781Y-49969683D01*
X91146913Y-49944185D01*
X91035660Y-49946231D01*
X90928513Y-49977138D01*
X90832962Y-50038222D01*
X90776246Y-50097285D01*
X90729438Y-50177676D01*
X90703729Y-50275659D01*
X90695878Y-50399777D01*
X90422343Y-50399777D01*
X90422347Y-50394709D01*
X90423375Y-50300997D01*
X90427488Y-50233244D01*
X90436560Y-50180303D01*
X90452466Y-50131028D01*
X90477079Y-50074271D01*
X90494037Y-50040389D01*
X90580047Y-49918676D01*
X90692099Y-49819022D01*
X90822962Y-49748244D01*
X90868249Y-49733151D01*
X90991041Y-49709906D01*
X91125887Y-49703436D01*
X91257636Y-49713925D01*
X91371134Y-49741558D01*
X91458676Y-49784436D01*
X91563773Y-49862876D01*
X91655919Y-49960355D01*
X91724331Y-50066941D01*
X91734948Y-50088952D01*
X91754154Y-50134304D01*
X91766414Y-50178324D01*
X91773267Y-50230751D01*
X91776251Y-50301322D01*
X91776904Y-50399777D01*
X91776898Y-50403996D01*
X91776862Y-50430034D01*
G36*
X91776862Y-50430034D02*
G01*
X91775595Y-50520978D01*
X91771458Y-50586800D01*
X91762977Y-50637328D01*
X91748677Y-50682391D01*
X91727083Y-50731820D01*
X91653358Y-50852548D01*
X91548057Y-50959384D01*
X91420670Y-51038096D01*
X91275832Y-51085057D01*
X91267462Y-51086665D01*
X91095737Y-51102859D01*
X90935605Y-51086159D01*
X90790263Y-51038027D01*
X90662909Y-50959922D01*
X90556742Y-50853303D01*
X90474961Y-50719628D01*
X90474711Y-50719093D01*
X90451009Y-50664752D01*
X90435722Y-50616600D01*
X90427050Y-50563686D01*
X90423191Y-50495061D01*
X90422343Y-50399777D01*
X90695878Y-50399777D01*
X90701094Y-50503720D01*
X90723369Y-50605858D01*
X90766163Y-50688815D01*
X90832695Y-50761097D01*
X90850611Y-50775645D01*
X90912864Y-50815383D01*
X90972056Y-50840793D01*
X91035860Y-50854494D01*
X91160656Y-50857066D01*
X91273541Y-50827225D01*
X91370067Y-50767298D01*
X91445785Y-50679614D01*
X91496250Y-50566500D01*
X91503475Y-50538969D01*
X91519140Y-50403996D01*
X91505097Y-50269855D01*
X91462347Y-50148862D01*
X91430399Y-50098043D01*
X91351773Y-50021408D01*
X91254781Y-49969683D01*
X91146913Y-49944185D01*
X91035660Y-49946231D01*
X90928513Y-49977138D01*
X90832962Y-50038222D01*
X90776246Y-50097285D01*
X90729438Y-50177676D01*
X90703729Y-50275659D01*
X90695878Y-50399777D01*
X90422343Y-50399777D01*
X90422347Y-50394709D01*
X90423375Y-50300997D01*
X90427488Y-50233244D01*
X90436560Y-50180303D01*
X90452466Y-50131028D01*
X90477079Y-50074271D01*
X90494037Y-50040389D01*
X90580047Y-49918676D01*
X90692099Y-49819022D01*
X90822962Y-49748244D01*
X90868249Y-49733151D01*
X90991041Y-49709906D01*
X91125887Y-49703436D01*
X91257636Y-49713925D01*
X91371134Y-49741558D01*
X91458676Y-49784436D01*
X91563773Y-49862876D01*
X91655919Y-49960355D01*
X91724331Y-50066941D01*
X91734948Y-50088952D01*
X91754154Y-50134304D01*
X91766414Y-50178324D01*
X91773267Y-50230751D01*
X91776251Y-50301322D01*
X91776904Y-50399777D01*
X91776898Y-50403996D01*
X91776862Y-50430034D01*
G37*
X93459913Y-49716946D02*
X93572841Y-49754979D01*
X93676570Y-49827353D01*
X93712032Y-49858968D01*
X93749423Y-49889415D01*
X93768674Y-49901184D01*
X93772257Y-49897311D01*
X93778295Y-49867026D01*
X93780681Y-49816517D01*
X93780681Y-49731851D01*
X94044089Y-49731851D01*
X94044089Y-51067702D01*
X93780681Y-51067702D01*
X93780576Y-50639665D01*
X93780396Y-50582647D01*
X93778842Y-50458248D01*
X93775905Y-50345569D01*
X93771835Y-50251087D01*
X93766885Y-50181279D01*
X93761305Y-50142621D01*
X93744393Y-50101645D01*
X93691876Y-50032427D01*
X93621024Y-49977103D01*
X93544084Y-49946715D01*
X93534842Y-49945163D01*
X93441407Y-49947548D01*
X93353164Y-49978887D01*
X93283475Y-50034671D01*
X93235052Y-50092219D01*
X93235052Y-51067702D01*
X92952829Y-51067702D01*
X92952829Y-50615397D01*
X92952708Y-50497498D01*
X92952007Y-50380456D01*
X92950338Y-50291605D01*
X92947317Y-50225710D01*
X92942557Y-50177537D01*
X92935676Y-50141850D01*
X92926288Y-50113415D01*
X92914009Y-50086998D01*
X92912340Y-50083790D01*
X92855502Y-50013752D01*
X92777017Y-49966499D01*
X92686556Y-49944447D01*
X92593791Y-49950015D01*
X92508393Y-49985620D01*
X92496307Y-49993915D01*
X92469447Y-50017291D01*
X92448542Y-50046879D01*
X92432861Y-50087167D01*
X92421672Y-50142641D01*
X92414243Y-50217787D01*
X92409842Y-50317094D01*
X92407738Y-50445048D01*
X92407200Y-50606135D01*
X92407200Y-51067702D01*
X92143792Y-51067702D01*
X92143792Y-50562510D01*
X92143894Y-50469046D01*
X92144833Y-50323055D01*
X92147220Y-50207273D01*
X92151612Y-50116894D01*
X92158567Y-50047108D01*
X92168642Y-49993108D01*
X92182394Y-49950085D01*
X92200381Y-49913231D01*
X92223159Y-49877738D01*
X92251569Y-49844152D01*
X92330372Y-49784732D01*
X92428521Y-49740854D01*
X92534192Y-49718567D01*
X92618085Y-49715478D01*
X92724326Y-49731145D01*
X92815247Y-49774049D01*
X92900042Y-49847430D01*
X92988366Y-49940861D01*
X93078783Y-49847642D01*
X93123361Y-49806937D01*
X93229429Y-49743120D01*
X93343527Y-49713057D01*
X93459913Y-49716946D01*
G36*
X93459913Y-49716946D02*
G01*
X93572841Y-49754979D01*
X93676570Y-49827353D01*
X93712032Y-49858968D01*
X93749423Y-49889415D01*
X93768674Y-49901184D01*
X93772257Y-49897311D01*
X93778295Y-49867026D01*
X93780681Y-49816517D01*
X93780681Y-49731851D01*
X94044089Y-49731851D01*
X94044089Y-51067702D01*
X93780681Y-51067702D01*
X93780576Y-50639665D01*
X93780396Y-50582647D01*
X93778842Y-50458248D01*
X93775905Y-50345569D01*
X93771835Y-50251087D01*
X93766885Y-50181279D01*
X93761305Y-50142621D01*
X93744393Y-50101645D01*
X93691876Y-50032427D01*
X93621024Y-49977103D01*
X93544084Y-49946715D01*
X93534842Y-49945163D01*
X93441407Y-49947548D01*
X93353164Y-49978887D01*
X93283475Y-50034671D01*
X93235052Y-50092219D01*
X93235052Y-51067702D01*
X92952829Y-51067702D01*
X92952829Y-50615397D01*
X92952708Y-50497498D01*
X92952007Y-50380456D01*
X92950338Y-50291605D01*
X92947317Y-50225710D01*
X92942557Y-50177537D01*
X92935676Y-50141850D01*
X92926288Y-50113415D01*
X92914009Y-50086998D01*
X92912340Y-50083790D01*
X92855502Y-50013752D01*
X92777017Y-49966499D01*
X92686556Y-49944447D01*
X92593791Y-49950015D01*
X92508393Y-49985620D01*
X92496307Y-49993915D01*
X92469447Y-50017291D01*
X92448542Y-50046879D01*
X92432861Y-50087167D01*
X92421672Y-50142641D01*
X92414243Y-50217787D01*
X92409842Y-50317094D01*
X92407738Y-50445048D01*
X92407200Y-50606135D01*
X92407200Y-51067702D01*
X92143792Y-51067702D01*
X92143792Y-50562510D01*
X92143894Y-50469046D01*
X92144833Y-50323055D01*
X92147220Y-50207273D01*
X92151612Y-50116894D01*
X92158567Y-50047108D01*
X92168642Y-49993108D01*
X92182394Y-49950085D01*
X92200381Y-49913231D01*
X92223159Y-49877738D01*
X92251569Y-49844152D01*
X92330372Y-49784732D01*
X92428521Y-49740854D01*
X92534192Y-49718567D01*
X92618085Y-49715478D01*
X92724326Y-49731145D01*
X92815247Y-49774049D01*
X92900042Y-49847430D01*
X92988366Y-49940861D01*
X93078783Y-49847642D01*
X93123361Y-49806937D01*
X93229429Y-49743120D01*
X93343527Y-49713057D01*
X93459913Y-49716946D01*
G37*
X99203007Y-49144661D02*
X99356269Y-49176548D01*
X99496596Y-49233340D01*
X99615862Y-49314461D01*
X99675415Y-49380489D01*
X99737310Y-49478959D01*
X99787296Y-49590575D01*
X99818601Y-49702380D01*
X99827418Y-49770791D01*
X99834315Y-49874702D01*
X99837996Y-49997556D01*
X99838543Y-50129941D01*
X99836038Y-50262444D01*
X99830564Y-50385654D01*
X99822204Y-50490158D01*
X99811038Y-50566543D01*
X99763864Y-50715310D01*
X99687222Y-50845340D01*
X99582915Y-50950007D01*
X99451479Y-51028777D01*
X99293449Y-51081119D01*
X99232864Y-51090664D01*
X99128640Y-51096560D01*
X99014666Y-51094411D01*
X98906504Y-51084656D01*
X98819716Y-51067736D01*
X98766391Y-51047581D01*
X98671881Y-50993798D01*
X98581353Y-50923088D01*
X98508692Y-50845378D01*
X98463132Y-50771762D01*
X98412630Y-50637467D01*
X98380398Y-50470332D01*
X98367965Y-50371554D01*
X98649446Y-50371554D01*
X98662780Y-50460925D01*
X98665134Y-50475788D01*
X98701202Y-50607776D01*
X98760315Y-50710066D01*
X98842776Y-50782934D01*
X98948886Y-50826657D01*
X99078948Y-50841511D01*
X99111604Y-50841006D01*
X99242483Y-50822844D01*
X99348726Y-50777538D01*
X99432996Y-50703551D01*
X99497954Y-50599345D01*
X99507646Y-50578404D01*
X99522048Y-50543822D01*
X99532474Y-50509200D01*
X99539566Y-50468273D01*
X99543965Y-50414778D01*
X99546313Y-50342448D01*
X99547252Y-50245018D01*
X99547422Y-50116224D01*
X99547422Y-49738597D01*
X99490689Y-49627665D01*
X99457287Y-49569066D01*
X99407370Y-49508652D01*
X99341646Y-49459662D01*
X99317517Y-49445104D01*
X99272398Y-49422260D01*
X99227498Y-49409472D01*
X99170212Y-49403912D01*
X99087935Y-49402754D01*
X99075739Y-49402799D01*
X98981625Y-49406536D01*
X98914474Y-49417256D01*
X98865014Y-49436355D01*
X98834505Y-49455905D01*
X98762580Y-49528220D01*
X98705835Y-49624137D01*
X98670623Y-49733932D01*
X98648823Y-49844739D01*
X98369190Y-49844739D01*
X98381229Y-49755369D01*
X98385450Y-49726320D01*
X98422362Y-49567677D01*
X98480093Y-49437457D01*
X98560786Y-49331842D01*
X98666583Y-49247015D01*
X98746869Y-49204210D01*
X98890182Y-49157915D01*
X99044936Y-49138258D01*
X99203007Y-49144661D01*
G36*
X99203007Y-49144661D02*
G01*
X99356269Y-49176548D01*
X99496596Y-49233340D01*
X99615862Y-49314461D01*
X99675415Y-49380489D01*
X99737310Y-49478959D01*
X99787296Y-49590575D01*
X99818601Y-49702380D01*
X99827418Y-49770791D01*
X99834315Y-49874702D01*
X99837996Y-49997556D01*
X99838543Y-50129941D01*
X99836038Y-50262444D01*
X99830564Y-50385654D01*
X99822204Y-50490158D01*
X99811038Y-50566543D01*
X99763864Y-50715310D01*
X99687222Y-50845340D01*
X99582915Y-50950007D01*
X99451479Y-51028777D01*
X99293449Y-51081119D01*
X99232864Y-51090664D01*
X99128640Y-51096560D01*
X99014666Y-51094411D01*
X98906504Y-51084656D01*
X98819716Y-51067736D01*
X98766391Y-51047581D01*
X98671881Y-50993798D01*
X98581353Y-50923088D01*
X98508692Y-50845378D01*
X98463132Y-50771762D01*
X98412630Y-50637467D01*
X98380398Y-50470332D01*
X98367965Y-50371554D01*
X98649446Y-50371554D01*
X98662780Y-50460925D01*
X98665134Y-50475788D01*
X98701202Y-50607776D01*
X98760315Y-50710066D01*
X98842776Y-50782934D01*
X98948886Y-50826657D01*
X99078948Y-50841511D01*
X99111604Y-50841006D01*
X99242483Y-50822844D01*
X99348726Y-50777538D01*
X99432996Y-50703551D01*
X99497954Y-50599345D01*
X99507646Y-50578404D01*
X99522048Y-50543822D01*
X99532474Y-50509200D01*
X99539566Y-50468273D01*
X99543965Y-50414778D01*
X99546313Y-50342448D01*
X99547252Y-50245018D01*
X99547422Y-50116224D01*
X99547422Y-49738597D01*
X99490689Y-49627665D01*
X99457287Y-49569066D01*
X99407370Y-49508652D01*
X99341646Y-49459662D01*
X99317517Y-49445104D01*
X99272398Y-49422260D01*
X99227498Y-49409472D01*
X99170212Y-49403912D01*
X99087935Y-49402754D01*
X99075739Y-49402799D01*
X98981625Y-49406536D01*
X98914474Y-49417256D01*
X98865014Y-49436355D01*
X98834505Y-49455905D01*
X98762580Y-49528220D01*
X98705835Y-49624137D01*
X98670623Y-49733932D01*
X98648823Y-49844739D01*
X98369190Y-49844739D01*
X98381229Y-49755369D01*
X98385450Y-49726320D01*
X98422362Y-49567677D01*
X98480093Y-49437457D01*
X98560786Y-49331842D01*
X98666583Y-49247015D01*
X98746869Y-49204210D01*
X98890182Y-49157915D01*
X99044936Y-49138258D01*
X99203007Y-49144661D01*
G37*
X79481422Y-50804295D02*
X79726015Y-50804295D01*
X79726015Y-51070218D01*
X79166274Y-51062932D01*
X79133741Y-51062489D01*
X78941345Y-51058889D01*
X78785037Y-51054092D01*
X78665198Y-51048116D01*
X78582209Y-51040979D01*
X78536453Y-51032699D01*
X78449695Y-50994205D01*
X78347714Y-50916294D01*
X78269605Y-50814847D01*
X78219621Y-50695811D01*
X78202015Y-50565132D01*
X78203149Y-50553721D01*
X78487205Y-50553721D01*
X78510203Y-50639615D01*
X78559618Y-50714844D01*
X78635130Y-50771340D01*
X78653948Y-50779717D01*
X78695923Y-50791680D01*
X78752586Y-50799210D01*
X78831567Y-50803131D01*
X78940496Y-50804266D01*
X79180385Y-50804295D01*
X79180385Y-50236159D01*
X78931089Y-50242708D01*
X78929330Y-50242755D01*
X78822393Y-50246447D01*
X78745281Y-50251676D01*
X78690298Y-50259536D01*
X78649749Y-50271122D01*
X78615941Y-50287528D01*
X78579915Y-50312717D01*
X78521741Y-50382205D01*
X78490944Y-50465229D01*
X78487205Y-50553721D01*
X78203149Y-50553721D01*
X78214292Y-50441631D01*
X78256499Y-50326903D01*
X78329117Y-50234059D01*
X78432496Y-50162486D01*
X78449459Y-50153065D01*
X78487436Y-50125259D01*
X78502174Y-50103061D01*
X78498547Y-50094659D01*
X78470515Y-50069368D01*
X78424026Y-50041975D01*
X78354016Y-49997339D01*
X78277733Y-49913239D01*
X78228502Y-49808468D01*
X78213618Y-49718971D01*
X78503052Y-49718971D01*
X78503623Y-49741593D01*
X78522532Y-49833847D01*
X78569599Y-49902464D01*
X78646718Y-49950501D01*
X78650546Y-49952016D01*
X78712122Y-49965614D01*
X78809978Y-49973743D01*
X78944596Y-49976443D01*
X79180385Y-49976443D01*
X79180385Y-49430814D01*
X78951140Y-49430814D01*
X78861540Y-49431482D01*
X78783480Y-49434627D01*
X78726514Y-49441400D01*
X78681722Y-49452936D01*
X78640182Y-49470370D01*
X78601861Y-49491861D01*
X78544430Y-49546103D01*
X78512762Y-49619507D01*
X78503052Y-49718971D01*
X78213618Y-49718971D01*
X78208499Y-49688193D01*
X78219902Y-49557579D01*
X78239187Y-49486929D01*
X78289932Y-49387509D01*
X78367891Y-49307105D01*
X78477944Y-49239704D01*
X78605642Y-49176814D01*
X79165828Y-49170437D01*
X79726015Y-49164061D01*
X79726015Y-49430814D01*
X79481422Y-49430814D01*
X79481422Y-50804295D01*
G36*
X79481422Y-50804295D02*
G01*
X79726015Y-50804295D01*
X79726015Y-51070218D01*
X79166274Y-51062932D01*
X79133741Y-51062489D01*
X78941345Y-51058889D01*
X78785037Y-51054092D01*
X78665198Y-51048116D01*
X78582209Y-51040979D01*
X78536453Y-51032699D01*
X78449695Y-50994205D01*
X78347714Y-50916294D01*
X78269605Y-50814847D01*
X78219621Y-50695811D01*
X78202015Y-50565132D01*
X78203149Y-50553721D01*
X78487205Y-50553721D01*
X78510203Y-50639615D01*
X78559618Y-50714844D01*
X78635130Y-50771340D01*
X78653948Y-50779717D01*
X78695923Y-50791680D01*
X78752586Y-50799210D01*
X78831567Y-50803131D01*
X78940496Y-50804266D01*
X79180385Y-50804295D01*
X79180385Y-50236159D01*
X78931089Y-50242708D01*
X78929330Y-50242755D01*
X78822393Y-50246447D01*
X78745281Y-50251676D01*
X78690298Y-50259536D01*
X78649749Y-50271122D01*
X78615941Y-50287528D01*
X78579915Y-50312717D01*
X78521741Y-50382205D01*
X78490944Y-50465229D01*
X78487205Y-50553721D01*
X78203149Y-50553721D01*
X78214292Y-50441631D01*
X78256499Y-50326903D01*
X78329117Y-50234059D01*
X78432496Y-50162486D01*
X78449459Y-50153065D01*
X78487436Y-50125259D01*
X78502174Y-50103061D01*
X78498547Y-50094659D01*
X78470515Y-50069368D01*
X78424026Y-50041975D01*
X78354016Y-49997339D01*
X78277733Y-49913239D01*
X78228502Y-49808468D01*
X78213618Y-49718971D01*
X78503052Y-49718971D01*
X78503623Y-49741593D01*
X78522532Y-49833847D01*
X78569599Y-49902464D01*
X78646718Y-49950501D01*
X78650546Y-49952016D01*
X78712122Y-49965614D01*
X78809978Y-49973743D01*
X78944596Y-49976443D01*
X79180385Y-49976443D01*
X79180385Y-49430814D01*
X78951140Y-49430814D01*
X78861540Y-49431482D01*
X78783480Y-49434627D01*
X78726514Y-49441400D01*
X78681722Y-49452936D01*
X78640182Y-49470370D01*
X78601861Y-49491861D01*
X78544430Y-49546103D01*
X78512762Y-49619507D01*
X78503052Y-49718971D01*
X78213618Y-49718971D01*
X78208499Y-49688193D01*
X78219902Y-49557579D01*
X78239187Y-49486929D01*
X78289932Y-49387509D01*
X78367891Y-49307105D01*
X78477944Y-49239704D01*
X78605642Y-49176814D01*
X79165828Y-49170437D01*
X79726015Y-49164061D01*
X79726015Y-49430814D01*
X79481422Y-49430814D01*
X79481422Y-50804295D01*
G37*
X73291348Y-51067702D02*
X73027941Y-51067702D01*
X73027941Y-50973628D01*
X73021769Y-50912297D01*
X73005075Y-50880182D01*
X72981101Y-50880730D01*
X72953091Y-50916419D01*
X72927442Y-50950926D01*
X72867321Y-51002616D01*
X72791229Y-51048514D01*
X72711465Y-51080281D01*
X72710043Y-51080679D01*
X72610354Y-51096288D01*
X72495273Y-51095902D01*
X72381755Y-51080662D01*
X72286752Y-51051709D01*
X72264872Y-51041356D01*
X72152227Y-50965830D01*
X72054880Y-50863468D01*
X71981563Y-50743099D01*
X71975167Y-50729132D01*
X71953341Y-50676926D01*
X71939357Y-50629403D01*
X71931498Y-50575989D01*
X71928043Y-50506107D01*
X71927274Y-50409184D01*
X71927327Y-50403935D01*
X72195280Y-50403935D01*
X72195329Y-50422559D01*
X72206506Y-50549104D01*
X72238765Y-50649278D01*
X72294877Y-50729014D01*
X72377614Y-50794244D01*
X72442629Y-50828747D01*
X72508628Y-50847896D01*
X72592954Y-50856158D01*
X72692255Y-50851672D01*
X72806926Y-50818176D01*
X72900146Y-50755428D01*
X72969599Y-50665775D01*
X73012969Y-50551567D01*
X73027941Y-50415150D01*
X73025802Y-50347673D01*
X73007431Y-50232745D01*
X72967908Y-50139203D01*
X72904398Y-50058873D01*
X72896018Y-50050724D01*
X72799669Y-49982868D01*
X72692251Y-49945992D01*
X72580493Y-49938864D01*
X72471128Y-49960252D01*
X72370886Y-50008927D01*
X72286497Y-50083657D01*
X72224694Y-50183209D01*
X72212648Y-50221939D01*
X72200149Y-50303354D01*
X72195280Y-50403935D01*
X71927327Y-50403935D01*
X71928000Y-50337083D01*
X71933091Y-50236861D01*
X71943925Y-50159170D01*
X71961526Y-50094596D01*
X71995131Y-50021244D01*
X72069252Y-49916893D01*
X72164571Y-49825110D01*
X72271536Y-49756317D01*
X72332442Y-49729157D01*
X72387922Y-49713098D01*
X72451847Y-49705610D01*
X72538755Y-49703840D01*
X72627881Y-49707992D01*
X72751789Y-49732970D01*
X72851179Y-49781871D01*
X72930038Y-49856248D01*
X72959214Y-49891242D01*
X72983358Y-49913594D01*
X73001084Y-49917187D01*
X73013379Y-49898875D01*
X73021227Y-49855516D01*
X73025614Y-49783963D01*
X73027523Y-49681074D01*
X73027941Y-49543702D01*
X73027941Y-49167406D01*
X73291348Y-49167406D01*
X73291348Y-50415150D01*
X73291348Y-51067702D01*
G36*
X73291348Y-51067702D02*
G01*
X73027941Y-51067702D01*
X73027941Y-50973628D01*
X73021769Y-50912297D01*
X73005075Y-50880182D01*
X72981101Y-50880730D01*
X72953091Y-50916419D01*
X72927442Y-50950926D01*
X72867321Y-51002616D01*
X72791229Y-51048514D01*
X72711465Y-51080281D01*
X72710043Y-51080679D01*
X72610354Y-51096288D01*
X72495273Y-51095902D01*
X72381755Y-51080662D01*
X72286752Y-51051709D01*
X72264872Y-51041356D01*
X72152227Y-50965830D01*
X72054880Y-50863468D01*
X71981563Y-50743099D01*
X71975167Y-50729132D01*
X71953341Y-50676926D01*
X71939357Y-50629403D01*
X71931498Y-50575989D01*
X71928043Y-50506107D01*
X71927274Y-50409184D01*
X71927327Y-50403935D01*
X72195280Y-50403935D01*
X72195329Y-50422559D01*
X72206506Y-50549104D01*
X72238765Y-50649278D01*
X72294877Y-50729014D01*
X72377614Y-50794244D01*
X72442629Y-50828747D01*
X72508628Y-50847896D01*
X72592954Y-50856158D01*
X72692255Y-50851672D01*
X72806926Y-50818176D01*
X72900146Y-50755428D01*
X72969599Y-50665775D01*
X73012969Y-50551567D01*
X73027941Y-50415150D01*
X73025802Y-50347673D01*
X73007431Y-50232745D01*
X72967908Y-50139203D01*
X72904398Y-50058873D01*
X72896018Y-50050724D01*
X72799669Y-49982868D01*
X72692251Y-49945992D01*
X72580493Y-49938864D01*
X72471128Y-49960252D01*
X72370886Y-50008927D01*
X72286497Y-50083657D01*
X72224694Y-50183209D01*
X72212648Y-50221939D01*
X72200149Y-50303354D01*
X72195280Y-50403935D01*
X71927327Y-50403935D01*
X71928000Y-50337083D01*
X71933091Y-50236861D01*
X71943925Y-50159170D01*
X71961526Y-50094596D01*
X71995131Y-50021244D01*
X72069252Y-49916893D01*
X72164571Y-49825110D01*
X72271536Y-49756317D01*
X72332442Y-49729157D01*
X72387922Y-49713098D01*
X72451847Y-49705610D01*
X72538755Y-49703840D01*
X72627881Y-49707992D01*
X72751789Y-49732970D01*
X72851179Y-49781871D01*
X72930038Y-49856248D01*
X72959214Y-49891242D01*
X72983358Y-49913594D01*
X73001084Y-49917187D01*
X73013379Y-49898875D01*
X73021227Y-49855516D01*
X73025614Y-49783963D01*
X73027523Y-49681074D01*
X73027941Y-49543702D01*
X73027941Y-49167406D01*
X73291348Y-49167406D01*
X73291348Y-50415150D01*
X73291348Y-51067702D01*
G37*
X95805725Y-49721745D02*
X95911716Y-49758933D01*
X96002737Y-49827833D01*
X96035569Y-49857974D01*
X96073549Y-49885300D01*
X96095590Y-49891352D01*
X96099052Y-49887846D01*
X96109509Y-49855974D01*
X96113718Y-49805999D01*
X96113718Y-49731851D01*
X96377126Y-49731851D01*
X96377126Y-51067702D01*
X96094904Y-51067702D01*
X96094904Y-50611150D01*
X96094547Y-50464910D01*
X96092659Y-50335721D01*
X96088133Y-50235372D01*
X96079864Y-50159260D01*
X96066747Y-50102783D01*
X96047678Y-50061336D01*
X96021552Y-50030316D01*
X95987264Y-50005121D01*
X95943710Y-49981147D01*
X95855442Y-49947269D01*
X95768383Y-49942977D01*
X95680978Y-49971769D01*
X95651481Y-49987691D01*
X95619953Y-50010655D01*
X95595642Y-50040102D01*
X95577620Y-50080479D01*
X95564957Y-50136237D01*
X95556723Y-50211822D01*
X95551989Y-50311685D01*
X95549825Y-50440273D01*
X95549303Y-50602036D01*
X95549274Y-51067702D01*
X95288806Y-51067702D01*
X95282632Y-50611443D01*
X95281155Y-50509299D01*
X95278853Y-50387529D01*
X95276013Y-50294880D01*
X95272210Y-50226291D01*
X95267016Y-50176700D01*
X95260005Y-50141046D01*
X95250752Y-50114266D01*
X95238829Y-50091299D01*
X95216735Y-50056916D01*
X95155940Y-49993075D01*
X95081090Y-49958754D01*
X94983087Y-49948886D01*
X94941092Y-49949792D01*
X94889145Y-49956429D01*
X94851638Y-49973815D01*
X94813899Y-50006986D01*
X94805185Y-50016326D01*
X94764680Y-50075724D01*
X94739392Y-50138025D01*
X94737169Y-50151217D01*
X94732382Y-50205605D01*
X94728229Y-50288205D01*
X94724940Y-50392456D01*
X94722745Y-50511797D01*
X94721871Y-50639665D01*
X94721422Y-51067702D01*
X94458015Y-51067702D01*
X94458015Y-50586849D01*
X94458020Y-50562353D01*
X94458614Y-50397127D01*
X94460770Y-50264202D01*
X94465319Y-50158879D01*
X94473090Y-50076457D01*
X94484915Y-50012233D01*
X94501624Y-49961507D01*
X94524047Y-49919579D01*
X94553015Y-49881746D01*
X94589358Y-49843308D01*
X94627229Y-49808999D01*
X94728950Y-49747607D01*
X94845445Y-49718586D01*
X94980814Y-49720651D01*
X95084575Y-49743900D01*
X95179434Y-49795410D01*
X95248823Y-49873910D01*
X95258002Y-49888390D01*
X95283422Y-49924397D01*
X95298030Y-49938814D01*
X95298166Y-49938805D01*
X95315415Y-49925738D01*
X95350907Y-49892605D01*
X95397128Y-49846411D01*
X95413755Y-49829859D01*
X95501674Y-49761723D01*
X95596228Y-49724527D01*
X95709200Y-49713246D01*
X95805725Y-49721745D01*
G36*
X95805725Y-49721745D02*
G01*
X95911716Y-49758933D01*
X96002737Y-49827833D01*
X96035569Y-49857974D01*
X96073549Y-49885300D01*
X96095590Y-49891352D01*
X96099052Y-49887846D01*
X96109509Y-49855974D01*
X96113718Y-49805999D01*
X96113718Y-49731851D01*
X96377126Y-49731851D01*
X96377126Y-51067702D01*
X96094904Y-51067702D01*
X96094904Y-50611150D01*
X96094547Y-50464910D01*
X96092659Y-50335721D01*
X96088133Y-50235372D01*
X96079864Y-50159260D01*
X96066747Y-50102783D01*
X96047678Y-50061336D01*
X96021552Y-50030316D01*
X95987264Y-50005121D01*
X95943710Y-49981147D01*
X95855442Y-49947269D01*
X95768383Y-49942977D01*
X95680978Y-49971769D01*
X95651481Y-49987691D01*
X95619953Y-50010655D01*
X95595642Y-50040102D01*
X95577620Y-50080479D01*
X95564957Y-50136237D01*
X95556723Y-50211822D01*
X95551989Y-50311685D01*
X95549825Y-50440273D01*
X95549303Y-50602036D01*
X95549274Y-51067702D01*
X95288806Y-51067702D01*
X95282632Y-50611443D01*
X95281155Y-50509299D01*
X95278853Y-50387529D01*
X95276013Y-50294880D01*
X95272210Y-50226291D01*
X95267016Y-50176700D01*
X95260005Y-50141046D01*
X95250752Y-50114266D01*
X95238829Y-50091299D01*
X95216735Y-50056916D01*
X95155940Y-49993075D01*
X95081090Y-49958754D01*
X94983087Y-49948886D01*
X94941092Y-49949792D01*
X94889145Y-49956429D01*
X94851638Y-49973815D01*
X94813899Y-50006986D01*
X94805185Y-50016326D01*
X94764680Y-50075724D01*
X94739392Y-50138025D01*
X94737169Y-50151217D01*
X94732382Y-50205605D01*
X94728229Y-50288205D01*
X94724940Y-50392456D01*
X94722745Y-50511797D01*
X94721871Y-50639665D01*
X94721422Y-51067702D01*
X94458015Y-51067702D01*
X94458015Y-50586849D01*
X94458020Y-50562353D01*
X94458614Y-50397127D01*
X94460770Y-50264202D01*
X94465319Y-50158879D01*
X94473090Y-50076457D01*
X94484915Y-50012233D01*
X94501624Y-49961507D01*
X94524047Y-49919579D01*
X94553015Y-49881746D01*
X94589358Y-49843308D01*
X94627229Y-49808999D01*
X94728950Y-49747607D01*
X94845445Y-49718586D01*
X94980814Y-49720651D01*
X95084575Y-49743900D01*
X95179434Y-49795410D01*
X95248823Y-49873910D01*
X95258002Y-49888390D01*
X95283422Y-49924397D01*
X95298030Y-49938814D01*
X95298166Y-49938805D01*
X95315415Y-49925738D01*
X95350907Y-49892605D01*
X95397128Y-49846411D01*
X95413755Y-49829859D01*
X95501674Y-49761723D01*
X95596228Y-49724527D01*
X95709200Y-49713246D01*
X95805725Y-49721745D01*
G37*
X75904830Y-49705412D02*
X76021946Y-49728420D01*
X76127111Y-49769238D01*
X76214484Y-49826661D01*
X76278224Y-49899485D01*
X76312490Y-49986505D01*
X76317974Y-50025698D01*
X76317597Y-50127092D01*
X76298898Y-50222039D01*
X76264105Y-50296273D01*
X76253050Y-50310240D01*
X76184957Y-50366775D01*
X76084867Y-50418873D01*
X75957287Y-50464510D01*
X75806721Y-50501663D01*
X75760802Y-50511339D01*
X75647297Y-50541246D01*
X75566195Y-50574125D01*
X75513585Y-50611861D01*
X75485552Y-50656339D01*
X75480528Y-50676461D01*
X75487580Y-50740398D01*
X75524667Y-50800251D01*
X75586777Y-50846599D01*
X75591672Y-50848944D01*
X75667552Y-50870655D01*
X75760750Y-50878856D01*
X75854676Y-50873219D01*
X75932738Y-50853419D01*
X75949024Y-50845908D01*
X76019015Y-50797611D01*
X76074689Y-50734685D01*
X76104950Y-50669008D01*
X76117480Y-50630513D01*
X76134116Y-50605669D01*
X76145634Y-50602520D01*
X76187843Y-50604723D01*
X76244507Y-50615662D01*
X76302680Y-50631980D01*
X76349413Y-50650316D01*
X76371758Y-50667313D01*
X76374405Y-50686136D01*
X76363536Y-50738414D01*
X76335978Y-50802704D01*
X76296851Y-50868108D01*
X76251276Y-50923725D01*
X76197727Y-50970342D01*
X76077001Y-51041729D01*
X75941758Y-51085057D01*
X75914723Y-51089924D01*
X75766894Y-51101894D01*
X75622936Y-51090718D01*
X75492383Y-51057774D01*
X75384771Y-51004443D01*
X75351481Y-50979828D01*
X75276688Y-50898912D01*
X75233772Y-50801163D01*
X75220399Y-50681999D01*
X75228616Y-50590833D01*
X75255368Y-50512132D01*
X75303826Y-50446626D01*
X75377170Y-50391965D01*
X75478579Y-50345797D01*
X75611232Y-50305773D01*
X75778308Y-50269542D01*
X75885438Y-50245299D01*
X75970709Y-50215065D01*
X76024217Y-50179772D01*
X76049005Y-50137941D01*
X76055281Y-50071711D01*
X76033248Y-50005358D01*
X75981256Y-49957011D01*
X75902112Y-49929069D01*
X75798625Y-49923933D01*
X75758877Y-49927584D01*
X75665065Y-49951057D01*
X75597020Y-49996311D01*
X75549126Y-50066555D01*
X75546039Y-50072782D01*
X75519890Y-50110802D01*
X75495577Y-50126554D01*
X75483465Y-50125955D01*
X75436393Y-50117091D01*
X75379617Y-50100781D01*
X75324721Y-50081039D01*
X75283289Y-50061880D01*
X75266904Y-50047317D01*
X75272276Y-50022429D01*
X75299314Y-49969470D01*
X75342266Y-49909055D01*
X75393377Y-49851627D01*
X75444894Y-49807626D01*
X75540192Y-49755287D01*
X75658112Y-49717641D01*
X75781605Y-49701417D01*
X75904830Y-49705412D01*
G36*
X75904830Y-49705412D02*
G01*
X76021946Y-49728420D01*
X76127111Y-49769238D01*
X76214484Y-49826661D01*
X76278224Y-49899485D01*
X76312490Y-49986505D01*
X76317974Y-50025698D01*
X76317597Y-50127092D01*
X76298898Y-50222039D01*
X76264105Y-50296273D01*
X76253050Y-50310240D01*
X76184957Y-50366775D01*
X76084867Y-50418873D01*
X75957287Y-50464510D01*
X75806721Y-50501663D01*
X75760802Y-50511339D01*
X75647297Y-50541246D01*
X75566195Y-50574125D01*
X75513585Y-50611861D01*
X75485552Y-50656339D01*
X75480528Y-50676461D01*
X75487580Y-50740398D01*
X75524667Y-50800251D01*
X75586777Y-50846599D01*
X75591672Y-50848944D01*
X75667552Y-50870655D01*
X75760750Y-50878856D01*
X75854676Y-50873219D01*
X75932738Y-50853419D01*
X75949024Y-50845908D01*
X76019015Y-50797611D01*
X76074689Y-50734685D01*
X76104950Y-50669008D01*
X76117480Y-50630513D01*
X76134116Y-50605669D01*
X76145634Y-50602520D01*
X76187843Y-50604723D01*
X76244507Y-50615662D01*
X76302680Y-50631980D01*
X76349413Y-50650316D01*
X76371758Y-50667313D01*
X76374405Y-50686136D01*
X76363536Y-50738414D01*
X76335978Y-50802704D01*
X76296851Y-50868108D01*
X76251276Y-50923725D01*
X76197727Y-50970342D01*
X76077001Y-51041729D01*
X75941758Y-51085057D01*
X75914723Y-51089924D01*
X75766894Y-51101894D01*
X75622936Y-51090718D01*
X75492383Y-51057774D01*
X75384771Y-51004443D01*
X75351481Y-50979828D01*
X75276688Y-50898912D01*
X75233772Y-50801163D01*
X75220399Y-50681999D01*
X75228616Y-50590833D01*
X75255368Y-50512132D01*
X75303826Y-50446626D01*
X75377170Y-50391965D01*
X75478579Y-50345797D01*
X75611232Y-50305773D01*
X75778308Y-50269542D01*
X75885438Y-50245299D01*
X75970709Y-50215065D01*
X76024217Y-50179772D01*
X76049005Y-50137941D01*
X76055281Y-50071711D01*
X76033248Y-50005358D01*
X75981256Y-49957011D01*
X75902112Y-49929069D01*
X75798625Y-49923933D01*
X75758877Y-49927584D01*
X75665065Y-49951057D01*
X75597020Y-49996311D01*
X75549126Y-50066555D01*
X75546039Y-50072782D01*
X75519890Y-50110802D01*
X75495577Y-50126554D01*
X75483465Y-50125955D01*
X75436393Y-50117091D01*
X75379617Y-50100781D01*
X75324721Y-50081039D01*
X75283289Y-50061880D01*
X75266904Y-50047317D01*
X75272276Y-50022429D01*
X75299314Y-49969470D01*
X75342266Y-49909055D01*
X75393377Y-49851627D01*
X75444894Y-49807626D01*
X75540192Y-49755287D01*
X75658112Y-49717641D01*
X75781605Y-49701417D01*
X75904830Y-49705412D01*
G37*
X86394945Y-49614258D02*
X86444529Y-49818222D01*
X86497737Y-50036508D01*
X86543359Y-50222735D01*
X86582055Y-50379396D01*
X86614486Y-50508982D01*
X86641311Y-50613988D01*
X86663193Y-50696905D01*
X86680789Y-50760226D01*
X86694762Y-50806445D01*
X86705771Y-50838054D01*
X86714476Y-50857545D01*
X86721538Y-50867412D01*
X86727617Y-50870147D01*
X86729354Y-50869431D01*
X86740981Y-50848043D01*
X86758992Y-50796157D01*
X86783673Y-50712731D01*
X86815311Y-50596724D01*
X86854192Y-50447094D01*
X86900601Y-50262799D01*
X86954825Y-50042799D01*
X86988141Y-49906688D01*
X87028097Y-49743967D01*
X87064781Y-49595125D01*
X87097256Y-49463945D01*
X87124583Y-49354204D01*
X87145822Y-49269685D01*
X87160034Y-49214166D01*
X87166282Y-49191428D01*
X87171071Y-49185825D01*
X87196610Y-49177209D01*
X87247039Y-49171515D01*
X87326591Y-49168371D01*
X87439498Y-49167406D01*
X87703496Y-49167406D01*
X87703496Y-51067702D01*
X87440089Y-51067702D01*
X87440089Y-50221036D01*
X87439985Y-50038252D01*
X87439561Y-49866047D01*
X87438715Y-49725643D01*
X87437349Y-49613958D01*
X87435360Y-49527910D01*
X87432650Y-49464417D01*
X87429118Y-49420399D01*
X87424665Y-49392772D01*
X87419189Y-49378456D01*
X87412592Y-49374369D01*
X87407413Y-49374064D01*
X87401171Y-49374138D01*
X87395219Y-49377529D01*
X87388720Y-49387260D01*
X87380835Y-49406351D01*
X87370727Y-49437826D01*
X87357557Y-49484704D01*
X87340487Y-49550007D01*
X87318679Y-49636758D01*
X87291295Y-49747978D01*
X87257497Y-49886688D01*
X87216446Y-50055910D01*
X87167305Y-50258665D01*
X87152477Y-50319799D01*
X87113860Y-50478744D01*
X87078105Y-50625539D01*
X87046208Y-50756112D01*
X87019167Y-50866393D01*
X86997979Y-50952312D01*
X86983643Y-51009796D01*
X86977154Y-51034777D01*
X86974633Y-51041162D01*
X86963055Y-51052875D01*
X86938565Y-51060576D01*
X86894986Y-51065075D01*
X86826140Y-51067180D01*
X86725851Y-51067702D01*
X86484519Y-51067702D01*
X86339543Y-50470332D01*
X86315394Y-50370852D01*
X86263839Y-50158756D01*
X86220076Y-49979344D01*
X86183379Y-49829869D01*
X86153026Y-49707586D01*
X86128291Y-49609750D01*
X86108451Y-49533615D01*
X86092781Y-49476436D01*
X86080558Y-49435467D01*
X86071057Y-49407964D01*
X86063555Y-49391180D01*
X86057326Y-49382371D01*
X86051647Y-49378790D01*
X86048349Y-49380313D01*
X86043260Y-49397133D01*
X86039067Y-49434132D01*
X86035704Y-49493802D01*
X86033103Y-49578636D01*
X86031198Y-49691128D01*
X86029919Y-49833768D01*
X86029202Y-50009051D01*
X86028978Y-50219468D01*
X86028978Y-51067702D01*
X85746755Y-51067702D01*
X85746755Y-49167406D01*
X86286401Y-49167406D01*
X86394945Y-49614258D01*
G36*
X86394945Y-49614258D02*
G01*
X86444529Y-49818222D01*
X86497737Y-50036508D01*
X86543359Y-50222735D01*
X86582055Y-50379396D01*
X86614486Y-50508982D01*
X86641311Y-50613988D01*
X86663193Y-50696905D01*
X86680789Y-50760226D01*
X86694762Y-50806445D01*
X86705771Y-50838054D01*
X86714476Y-50857545D01*
X86721538Y-50867412D01*
X86727617Y-50870147D01*
X86729354Y-50869431D01*
X86740981Y-50848043D01*
X86758992Y-50796157D01*
X86783673Y-50712731D01*
X86815311Y-50596724D01*
X86854192Y-50447094D01*
X86900601Y-50262799D01*
X86954825Y-50042799D01*
X86988141Y-49906688D01*
X87028097Y-49743967D01*
X87064781Y-49595125D01*
X87097256Y-49463945D01*
X87124583Y-49354204D01*
X87145822Y-49269685D01*
X87160034Y-49214166D01*
X87166282Y-49191428D01*
X87171071Y-49185825D01*
X87196610Y-49177209D01*
X87247039Y-49171515D01*
X87326591Y-49168371D01*
X87439498Y-49167406D01*
X87703496Y-49167406D01*
X87703496Y-51067702D01*
X87440089Y-51067702D01*
X87440089Y-50221036D01*
X87439985Y-50038252D01*
X87439561Y-49866047D01*
X87438715Y-49725643D01*
X87437349Y-49613958D01*
X87435360Y-49527910D01*
X87432650Y-49464417D01*
X87429118Y-49420399D01*
X87424665Y-49392772D01*
X87419189Y-49378456D01*
X87412592Y-49374369D01*
X87407413Y-49374064D01*
X87401171Y-49374138D01*
X87395219Y-49377529D01*
X87388720Y-49387260D01*
X87380835Y-49406351D01*
X87370727Y-49437826D01*
X87357557Y-49484704D01*
X87340487Y-49550007D01*
X87318679Y-49636758D01*
X87291295Y-49747978D01*
X87257497Y-49886688D01*
X87216446Y-50055910D01*
X87167305Y-50258665D01*
X87152477Y-50319799D01*
X87113860Y-50478744D01*
X87078105Y-50625539D01*
X87046208Y-50756112D01*
X87019167Y-50866393D01*
X86997979Y-50952312D01*
X86983643Y-51009796D01*
X86977154Y-51034777D01*
X86974633Y-51041162D01*
X86963055Y-51052875D01*
X86938565Y-51060576D01*
X86894986Y-51065075D01*
X86826140Y-51067180D01*
X86725851Y-51067702D01*
X86484519Y-51067702D01*
X86339543Y-50470332D01*
X86315394Y-50370852D01*
X86263839Y-50158756D01*
X86220076Y-49979344D01*
X86183379Y-49829869D01*
X86153026Y-49707586D01*
X86128291Y-49609750D01*
X86108451Y-49533615D01*
X86092781Y-49476436D01*
X86080558Y-49435467D01*
X86071057Y-49407964D01*
X86063555Y-49391180D01*
X86057326Y-49382371D01*
X86051647Y-49378790D01*
X86048349Y-49380313D01*
X86043260Y-49397133D01*
X86039067Y-49434132D01*
X86035704Y-49493802D01*
X86033103Y-49578636D01*
X86031198Y-49691128D01*
X86029919Y-49833768D01*
X86029202Y-50009051D01*
X86028978Y-50219468D01*
X86028978Y-51067702D01*
X85746755Y-51067702D01*
X85746755Y-49167406D01*
X86286401Y-49167406D01*
X86394945Y-49614258D01*
G37*
X61603855Y-50258072D02*
X61593757Y-50432688D01*
X61572367Y-50579359D01*
X61538958Y-50701897D01*
X61492801Y-50804116D01*
X61433171Y-50889828D01*
X61373855Y-50943894D01*
X61285354Y-51000266D01*
X61183440Y-51048153D01*
X61080533Y-51080827D01*
X61052087Y-51086480D01*
X60932573Y-51097141D01*
X60799779Y-51093208D01*
X60669998Y-51075772D01*
X60559524Y-51045924D01*
X60477506Y-51006008D01*
X60369270Y-50923489D01*
X60278499Y-50818595D01*
X60214092Y-50700230D01*
X60210140Y-50690112D01*
X60196168Y-50650602D01*
X60185613Y-50610391D01*
X60177861Y-50563324D01*
X60172302Y-50503247D01*
X60168321Y-50424004D01*
X60165306Y-50319442D01*
X60162644Y-50183406D01*
X60161553Y-50108133D01*
X60441135Y-50108133D01*
X60441497Y-50227982D01*
X60443535Y-50340864D01*
X60447274Y-50439200D01*
X60452737Y-50515411D01*
X60459946Y-50561916D01*
X60488446Y-50636006D01*
X60553918Y-50730756D01*
X60641309Y-50799618D01*
X60705888Y-50826076D01*
X60807973Y-50847416D01*
X60916294Y-50852824D01*
X61014442Y-50840502D01*
X61115809Y-50801263D01*
X61199547Y-50733592D01*
X61264484Y-50634962D01*
X61266405Y-50631081D01*
X61282641Y-50597187D01*
X61294854Y-50566200D01*
X61303616Y-50532328D01*
X61309500Y-50489782D01*
X61313080Y-50432769D01*
X61314928Y-50355500D01*
X61315616Y-50252183D01*
X61315718Y-50117027D01*
X61315598Y-49984372D01*
X61314876Y-49880219D01*
X61313010Y-49802423D01*
X61309462Y-49745280D01*
X61303693Y-49703089D01*
X61295161Y-49670147D01*
X61283328Y-49640751D01*
X61267653Y-49609199D01*
X61266905Y-49607754D01*
X61210239Y-49525301D01*
X61139468Y-49459514D01*
X61103222Y-49435936D01*
X61055528Y-49414339D01*
X60998604Y-49402409D01*
X60918266Y-49396079D01*
X60859400Y-49394485D01*
X60768609Y-49400874D01*
X60693873Y-49420771D01*
X60657105Y-49438072D01*
X60574568Y-49500060D01*
X60506045Y-49582326D01*
X60462665Y-49672743D01*
X60455997Y-49710673D01*
X60449882Y-49782588D01*
X60445351Y-49877857D01*
X60442428Y-49988898D01*
X60441135Y-50108133D01*
X60161553Y-50108133D01*
X60161521Y-50105895D01*
X60161456Y-49945416D01*
X60165755Y-49814738D01*
X60175268Y-49708436D01*
X60190844Y-49621090D01*
X60213332Y-49547277D01*
X60243581Y-49481574D01*
X60282440Y-49418560D01*
X60305440Y-49387230D01*
X60409799Y-49283728D01*
X60537424Y-49206465D01*
X60683916Y-49157063D01*
X60844874Y-49137142D01*
X61015898Y-49148324D01*
X61025597Y-49149888D01*
X61183148Y-49191516D01*
X61316252Y-49260550D01*
X61427521Y-49358321D01*
X61443588Y-49376718D01*
X61494182Y-49445155D01*
X61532845Y-49519724D01*
X61561270Y-49606692D01*
X61581149Y-49712326D01*
X61594175Y-49842895D01*
X61602039Y-50004665D01*
X61603389Y-50051696D01*
X61603537Y-50117027D01*
X61603855Y-50258072D01*
G36*
X61603855Y-50258072D02*
G01*
X61593757Y-50432688D01*
X61572367Y-50579359D01*
X61538958Y-50701897D01*
X61492801Y-50804116D01*
X61433171Y-50889828D01*
X61373855Y-50943894D01*
X61285354Y-51000266D01*
X61183440Y-51048153D01*
X61080533Y-51080827D01*
X61052087Y-51086480D01*
X60932573Y-51097141D01*
X60799779Y-51093208D01*
X60669998Y-51075772D01*
X60559524Y-51045924D01*
X60477506Y-51006008D01*
X60369270Y-50923489D01*
X60278499Y-50818595D01*
X60214092Y-50700230D01*
X60210140Y-50690112D01*
X60196168Y-50650602D01*
X60185613Y-50610391D01*
X60177861Y-50563324D01*
X60172302Y-50503247D01*
X60168321Y-50424004D01*
X60165306Y-50319442D01*
X60162644Y-50183406D01*
X60161553Y-50108133D01*
X60441135Y-50108133D01*
X60441497Y-50227982D01*
X60443535Y-50340864D01*
X60447274Y-50439200D01*
X60452737Y-50515411D01*
X60459946Y-50561916D01*
X60488446Y-50636006D01*
X60553918Y-50730756D01*
X60641309Y-50799618D01*
X60705888Y-50826076D01*
X60807973Y-50847416D01*
X60916294Y-50852824D01*
X61014442Y-50840502D01*
X61115809Y-50801263D01*
X61199547Y-50733592D01*
X61264484Y-50634962D01*
X61266405Y-50631081D01*
X61282641Y-50597187D01*
X61294854Y-50566200D01*
X61303616Y-50532328D01*
X61309500Y-50489782D01*
X61313080Y-50432769D01*
X61314928Y-50355500D01*
X61315616Y-50252183D01*
X61315718Y-50117027D01*
X61315598Y-49984372D01*
X61314876Y-49880219D01*
X61313010Y-49802423D01*
X61309462Y-49745280D01*
X61303693Y-49703089D01*
X61295161Y-49670147D01*
X61283328Y-49640751D01*
X61267653Y-49609199D01*
X61266905Y-49607754D01*
X61210239Y-49525301D01*
X61139468Y-49459514D01*
X61103222Y-49435936D01*
X61055528Y-49414339D01*
X60998604Y-49402409D01*
X60918266Y-49396079D01*
X60859400Y-49394485D01*
X60768609Y-49400874D01*
X60693873Y-49420771D01*
X60657105Y-49438072D01*
X60574568Y-49500060D01*
X60506045Y-49582326D01*
X60462665Y-49672743D01*
X60455997Y-49710673D01*
X60449882Y-49782588D01*
X60445351Y-49877857D01*
X60442428Y-49988898D01*
X60441135Y-50108133D01*
X60161553Y-50108133D01*
X60161521Y-50105895D01*
X60161456Y-49945416D01*
X60165755Y-49814738D01*
X60175268Y-49708436D01*
X60190844Y-49621090D01*
X60213332Y-49547277D01*
X60243581Y-49481574D01*
X60282440Y-49418560D01*
X60305440Y-49387230D01*
X60409799Y-49283728D01*
X60537424Y-49206465D01*
X60683916Y-49157063D01*
X60844874Y-49137142D01*
X61015898Y-49148324D01*
X61025597Y-49149888D01*
X61183148Y-49191516D01*
X61316252Y-49260550D01*
X61427521Y-49358321D01*
X61443588Y-49376718D01*
X61494182Y-49445155D01*
X61532845Y-49519724D01*
X61561270Y-49606692D01*
X61581149Y-49712326D01*
X61594175Y-49842895D01*
X61602039Y-50004665D01*
X61603389Y-50051696D01*
X61603537Y-50117027D01*
X61603855Y-50258072D01*
G37*
X69979527Y-50677899D02*
X69972141Y-50761765D01*
X69933456Y-50874233D01*
X69864308Y-50967998D01*
X69767688Y-51039404D01*
X69646589Y-51084794D01*
X69613409Y-51091790D01*
X69479871Y-51102331D01*
X69336459Y-51084377D01*
X69319495Y-51080584D01*
X69258977Y-51060345D01*
X69206521Y-51026925D01*
X69147325Y-50971488D01*
X69147006Y-50971161D01*
X69100053Y-50925004D01*
X69062708Y-50892101D01*
X69043031Y-50879554D01*
X69041530Y-50879832D01*
X69026198Y-50899504D01*
X69010165Y-50940702D01*
X68991081Y-50981424D01*
X68936355Y-51029592D01*
X68850778Y-51058206D01*
X68733459Y-51067673D01*
X68606459Y-51067702D01*
X68606459Y-50841925D01*
X68679415Y-50841925D01*
X68691479Y-50841615D01*
X68741549Y-50833688D01*
X68771761Y-50818406D01*
X68777863Y-50796577D01*
X68784363Y-50741044D01*
X68790163Y-50657658D01*
X68794913Y-50551587D01*
X68796732Y-50484443D01*
X69057570Y-50484443D01*
X69069816Y-50564406D01*
X69079341Y-50612361D01*
X69120939Y-50715134D01*
X69189644Y-50793318D01*
X69288149Y-50850434D01*
X69343552Y-50868601D01*
X69435820Y-50879003D01*
X69523017Y-50867377D01*
X69599723Y-50837107D01*
X69660519Y-50791582D01*
X69699983Y-50734187D01*
X69712697Y-50668308D01*
X69693239Y-50597332D01*
X69682932Y-50579532D01*
X69647960Y-50541202D01*
X69597368Y-50514078D01*
X69525735Y-50496612D01*
X69427646Y-50487259D01*
X69297681Y-50484472D01*
X69057570Y-50484443D01*
X68796732Y-50484443D01*
X68798262Y-50427999D01*
X68799665Y-50362513D01*
X68804019Y-50230930D01*
X68810887Y-50128626D01*
X68821605Y-50049728D01*
X68837511Y-49988361D01*
X68859945Y-49938649D01*
X68890243Y-49894718D01*
X68929743Y-49850694D01*
X68999040Y-49791568D01*
X69096158Y-49741885D01*
X69214058Y-49713806D01*
X69359052Y-49705191D01*
X69385730Y-49705457D01*
X69508580Y-49714251D01*
X69608081Y-49738065D01*
X69694909Y-49780448D01*
X69779746Y-49844946D01*
X69790206Y-49854576D01*
X69837352Y-49907444D01*
X69880247Y-49968346D01*
X69911443Y-50025730D01*
X69923496Y-50068040D01*
X69922210Y-50071582D01*
X69898494Y-50088365D01*
X69853384Y-50108341D01*
X69798052Y-50127852D01*
X69743671Y-50143238D01*
X69701412Y-50150840D01*
X69682446Y-50146997D01*
X69669117Y-50119033D01*
X69632331Y-50064940D01*
X69585861Y-50010056D01*
X69541116Y-49968766D01*
X69537150Y-49965890D01*
X69495057Y-49943797D01*
X69440684Y-49932548D01*
X69361548Y-49929406D01*
X69297782Y-49932627D01*
X69199665Y-49956646D01*
X69129810Y-50004899D01*
X69087132Y-50078312D01*
X69070544Y-50177813D01*
X69067422Y-50268073D01*
X69368459Y-50278679D01*
X69408538Y-50280253D01*
X69520037Y-50286449D01*
X69614714Y-50294397D01*
X69685632Y-50303434D01*
X69725857Y-50312896D01*
X69828166Y-50371522D01*
X69910174Y-50455950D01*
X69961477Y-50559298D01*
X69978068Y-50668308D01*
X69979527Y-50677899D01*
G36*
X69979527Y-50677899D02*
G01*
X69972141Y-50761765D01*
X69933456Y-50874233D01*
X69864308Y-50967998D01*
X69767688Y-51039404D01*
X69646589Y-51084794D01*
X69613409Y-51091790D01*
X69479871Y-51102331D01*
X69336459Y-51084377D01*
X69319495Y-51080584D01*
X69258977Y-51060345D01*
X69206521Y-51026925D01*
X69147325Y-50971488D01*
X69147006Y-50971161D01*
X69100053Y-50925004D01*
X69062708Y-50892101D01*
X69043031Y-50879554D01*
X69041530Y-50879832D01*
X69026198Y-50899504D01*
X69010165Y-50940702D01*
X68991081Y-50981424D01*
X68936355Y-51029592D01*
X68850778Y-51058206D01*
X68733459Y-51067673D01*
X68606459Y-51067702D01*
X68606459Y-50841925D01*
X68679415Y-50841925D01*
X68691479Y-50841615D01*
X68741549Y-50833688D01*
X68771761Y-50818406D01*
X68777863Y-50796577D01*
X68784363Y-50741044D01*
X68790163Y-50657658D01*
X68794913Y-50551587D01*
X68796732Y-50484443D01*
X69057570Y-50484443D01*
X69069816Y-50564406D01*
X69079341Y-50612361D01*
X69120939Y-50715134D01*
X69189644Y-50793318D01*
X69288149Y-50850434D01*
X69343552Y-50868601D01*
X69435820Y-50879003D01*
X69523017Y-50867377D01*
X69599723Y-50837107D01*
X69660519Y-50791582D01*
X69699983Y-50734187D01*
X69712697Y-50668308D01*
X69693239Y-50597332D01*
X69682932Y-50579532D01*
X69647960Y-50541202D01*
X69597368Y-50514078D01*
X69525735Y-50496612D01*
X69427646Y-50487259D01*
X69297681Y-50484472D01*
X69057570Y-50484443D01*
X68796732Y-50484443D01*
X68798262Y-50427999D01*
X68799665Y-50362513D01*
X68804019Y-50230930D01*
X68810887Y-50128626D01*
X68821605Y-50049728D01*
X68837511Y-49988361D01*
X68859945Y-49938649D01*
X68890243Y-49894718D01*
X68929743Y-49850694D01*
X68999040Y-49791568D01*
X69096158Y-49741885D01*
X69214058Y-49713806D01*
X69359052Y-49705191D01*
X69385730Y-49705457D01*
X69508580Y-49714251D01*
X69608081Y-49738065D01*
X69694909Y-49780448D01*
X69779746Y-49844946D01*
X69790206Y-49854576D01*
X69837352Y-49907444D01*
X69880247Y-49968346D01*
X69911443Y-50025730D01*
X69923496Y-50068040D01*
X69922210Y-50071582D01*
X69898494Y-50088365D01*
X69853384Y-50108341D01*
X69798052Y-50127852D01*
X69743671Y-50143238D01*
X69701412Y-50150840D01*
X69682446Y-50146997D01*
X69669117Y-50119033D01*
X69632331Y-50064940D01*
X69585861Y-50010056D01*
X69541116Y-49968766D01*
X69537150Y-49965890D01*
X69495057Y-49943797D01*
X69440684Y-49932548D01*
X69361548Y-49929406D01*
X69297782Y-49932627D01*
X69199665Y-49956646D01*
X69129810Y-50004899D01*
X69087132Y-50078312D01*
X69070544Y-50177813D01*
X69067422Y-50268073D01*
X69368459Y-50278679D01*
X69408538Y-50280253D01*
X69520037Y-50286449D01*
X69614714Y-50294397D01*
X69685632Y-50303434D01*
X69725857Y-50312896D01*
X69828166Y-50371522D01*
X69910174Y-50455950D01*
X69961477Y-50559298D01*
X69978068Y-50668308D01*
X69979527Y-50677899D01*
G37*
X77937984Y-50694569D02*
X77929525Y-50789882D01*
X77901004Y-50867654D01*
X77849588Y-50938339D01*
X77788270Y-50998238D01*
X77705653Y-51051247D01*
X77605256Y-51084794D01*
X77576297Y-51090992D01*
X77440721Y-51102373D01*
X77296366Y-51084215D01*
X77284065Y-51081453D01*
X77222145Y-51061023D01*
X77168552Y-51027273D01*
X77108513Y-50971326D01*
X77060984Y-50925165D01*
X77022075Y-50892149D01*
X77000338Y-50879554D01*
X76986094Y-50892698D01*
X76975598Y-50929434D01*
X76957143Y-50981620D01*
X76908310Y-51024550D01*
X76827985Y-51052003D01*
X76714374Y-51064909D01*
X76565126Y-51071687D01*
X76565126Y-50841925D01*
X76638081Y-50841925D01*
X76650199Y-50841612D01*
X76700123Y-50833681D01*
X76730099Y-50818406D01*
X76730155Y-50818336D01*
X76736657Y-50792253D01*
X76743031Y-50734385D01*
X76748873Y-50650525D01*
X76753724Y-50547612D01*
X77035496Y-50547612D01*
X77039183Y-50600209D01*
X77071536Y-50700225D01*
X77136468Y-50781951D01*
X77233052Y-50843993D01*
X77255477Y-50853333D01*
X77350607Y-50875583D01*
X77448783Y-50875851D01*
X77538195Y-50855077D01*
X77607032Y-50814201D01*
X77613069Y-50808417D01*
X77659973Y-50739791D01*
X77672193Y-50666255D01*
X77650067Y-50595047D01*
X77593933Y-50533402D01*
X77583200Y-50525854D01*
X77555753Y-50511604D01*
X77519813Y-50501752D01*
X77468096Y-50495208D01*
X77393317Y-50490884D01*
X77288192Y-50487689D01*
X77035496Y-50481528D01*
X77035496Y-50547612D01*
X76753724Y-50547612D01*
X76753778Y-50546465D01*
X76757342Y-50427999D01*
X76758831Y-50366526D01*
X76763556Y-50233511D01*
X76770667Y-50129997D01*
X76781491Y-50050149D01*
X76797352Y-49988131D01*
X76819576Y-49938106D01*
X76849487Y-49894239D01*
X76888410Y-49850694D01*
X76957706Y-49791568D01*
X77054824Y-49741885D01*
X77172725Y-49713806D01*
X77317718Y-49705191D01*
X77445769Y-49712093D01*
X77562411Y-49736734D01*
X77660227Y-49781917D01*
X77747404Y-49850407D01*
X77757044Y-49860061D01*
X77800876Y-49912687D01*
X77841188Y-49972722D01*
X77870707Y-50028421D01*
X77882163Y-50068040D01*
X77881517Y-50069694D01*
X77860084Y-50083866D01*
X77816561Y-50104218D01*
X77762202Y-50126366D01*
X77708262Y-50145927D01*
X77665994Y-50158518D01*
X77646654Y-50159757D01*
X77643538Y-50154480D01*
X77626761Y-50124603D01*
X77601110Y-50078230D01*
X77589795Y-50059459D01*
X77548010Y-50006305D01*
X77505644Y-49969898D01*
X77441878Y-49942118D01*
X77346018Y-49925383D01*
X77248106Y-49930879D01*
X77159584Y-49957643D01*
X77091897Y-50004712D01*
X77069974Y-50033402D01*
X77049594Y-50086121D01*
X77039243Y-50163158D01*
X77031218Y-50274098D01*
X77329690Y-50280493D01*
X77356860Y-50281089D01*
X77464616Y-50284057D01*
X77543704Y-50288014D01*
X77601518Y-50293970D01*
X77645455Y-50302935D01*
X77682909Y-50315917D01*
X77721276Y-50333925D01*
X77757586Y-50353904D01*
X77849932Y-50427404D01*
X77908723Y-50517312D01*
X77934598Y-50624497D01*
X77936616Y-50666255D01*
X77937984Y-50694569D01*
G36*
X77937984Y-50694569D02*
G01*
X77929525Y-50789882D01*
X77901004Y-50867654D01*
X77849588Y-50938339D01*
X77788270Y-50998238D01*
X77705653Y-51051247D01*
X77605256Y-51084794D01*
X77576297Y-51090992D01*
X77440721Y-51102373D01*
X77296366Y-51084215D01*
X77284065Y-51081453D01*
X77222145Y-51061023D01*
X77168552Y-51027273D01*
X77108513Y-50971326D01*
X77060984Y-50925165D01*
X77022075Y-50892149D01*
X77000338Y-50879554D01*
X76986094Y-50892698D01*
X76975598Y-50929434D01*
X76957143Y-50981620D01*
X76908310Y-51024550D01*
X76827985Y-51052003D01*
X76714374Y-51064909D01*
X76565126Y-51071687D01*
X76565126Y-50841925D01*
X76638081Y-50841925D01*
X76650199Y-50841612D01*
X76700123Y-50833681D01*
X76730099Y-50818406D01*
X76730155Y-50818336D01*
X76736657Y-50792253D01*
X76743031Y-50734385D01*
X76748873Y-50650525D01*
X76753724Y-50547612D01*
X77035496Y-50547612D01*
X77039183Y-50600209D01*
X77071536Y-50700225D01*
X77136468Y-50781951D01*
X77233052Y-50843993D01*
X77255477Y-50853333D01*
X77350607Y-50875583D01*
X77448783Y-50875851D01*
X77538195Y-50855077D01*
X77607032Y-50814201D01*
X77613069Y-50808417D01*
X77659973Y-50739791D01*
X77672193Y-50666255D01*
X77650067Y-50595047D01*
X77593933Y-50533402D01*
X77583200Y-50525854D01*
X77555753Y-50511604D01*
X77519813Y-50501752D01*
X77468096Y-50495208D01*
X77393317Y-50490884D01*
X77288192Y-50487689D01*
X77035496Y-50481528D01*
X77035496Y-50547612D01*
X76753724Y-50547612D01*
X76753778Y-50546465D01*
X76757342Y-50427999D01*
X76758831Y-50366526D01*
X76763556Y-50233511D01*
X76770667Y-50129997D01*
X76781491Y-50050149D01*
X76797352Y-49988131D01*
X76819576Y-49938106D01*
X76849487Y-49894239D01*
X76888410Y-49850694D01*
X76957706Y-49791568D01*
X77054824Y-49741885D01*
X77172725Y-49713806D01*
X77317718Y-49705191D01*
X77445769Y-49712093D01*
X77562411Y-49736734D01*
X77660227Y-49781917D01*
X77747404Y-49850407D01*
X77757044Y-49860061D01*
X77800876Y-49912687D01*
X77841188Y-49972722D01*
X77870707Y-50028421D01*
X77882163Y-50068040D01*
X77881517Y-50069694D01*
X77860084Y-50083866D01*
X77816561Y-50104218D01*
X77762202Y-50126366D01*
X77708262Y-50145927D01*
X77665994Y-50158518D01*
X77646654Y-50159757D01*
X77643538Y-50154480D01*
X77626761Y-50124603D01*
X77601110Y-50078230D01*
X77589795Y-50059459D01*
X77548010Y-50006305D01*
X77505644Y-49969898D01*
X77441878Y-49942118D01*
X77346018Y-49925383D01*
X77248106Y-49930879D01*
X77159584Y-49957643D01*
X77091897Y-50004712D01*
X77069974Y-50033402D01*
X77049594Y-50086121D01*
X77039243Y-50163158D01*
X77031218Y-50274098D01*
X77329690Y-50280493D01*
X77356860Y-50281089D01*
X77464616Y-50284057D01*
X77543704Y-50288014D01*
X77601518Y-50293970D01*
X77645455Y-50302935D01*
X77682909Y-50315917D01*
X77721276Y-50333925D01*
X77757586Y-50353904D01*
X77849932Y-50427404D01*
X77908723Y-50517312D01*
X77934598Y-50624497D01*
X77936616Y-50666255D01*
X77937984Y-50694569D01*
G37*
G04 #@! TD*
M02*
