M48
; DRILL file {KiCad 7.0.6} date Sun Nov 12 09:35:57 2023
; FORMAT={-:-/ absolute / metric / decimal}
; #@! TF.CreationDate,2023-11-12T09:35:57+05:30
; #@! TF.GenerationSoftware,Kicad,Pcbnew,7.0.6
; #@! TF.FileFunction,MixedPlating,1,2
FMAT,2
METRIC
; #@! TA.AperFunction,Plated,PTH,ComponentDrill
T1C1.000
; #@! TA.AperFunction,Plated,PTH,ComponentDrill
T2C1.520
; #@! TA.AperFunction,Plated,PTH,ComponentDrill
T3C3.200
%
G90
G05
T1
X42.0Y-59.95
X42.0Y-62.49
X42.0Y-65.03
X42.0Y-67.57
X42.0Y-70.11
X50.0Y-59.95
X50.0Y-62.49
X50.0Y-65.03
X50.0Y-67.57
X50.0Y-70.11
X58.0Y-59.95
X58.0Y-62.49
X58.0Y-65.03
X58.0Y-67.57
X58.0Y-70.11
X66.0Y-59.95
X66.0Y-62.49
X66.0Y-65.03
X66.0Y-67.57
X66.0Y-70.11
X74.0Y-59.95
X74.0Y-62.49
X74.0Y-65.03
X74.0Y-67.57
X74.0Y-70.11
X82.0Y-59.95
X82.0Y-62.49
X82.0Y-65.03
X82.0Y-67.57
X82.0Y-70.11
X90.0Y-59.95
X90.0Y-62.49
X90.0Y-65.03
X90.0Y-67.57
X90.0Y-70.11
X98.0Y-59.95
X98.0Y-62.49
X98.0Y-65.03
X98.0Y-67.57
X98.0Y-70.11
X106.0Y-59.95
X106.0Y-62.49
X106.0Y-65.03
X106.0Y-67.57
X106.0Y-70.11
X114.0Y-59.95
X114.0Y-62.49
X114.0Y-65.03
X114.0Y-67.57
X114.0Y-70.11
X122.0Y-59.95
X122.0Y-62.49
X122.0Y-65.03
X122.0Y-67.57
X122.0Y-70.11
T2
X31.0Y-57.38
X31.0Y-62.46
X31.0Y-67.54
X31.0Y-72.62
T3
X30.0Y-50.0
X30.0Y-80.0
X130.0Y-50.0
X130.0Y-80.0
T0
M30
