G04 #@! TF.GenerationSoftware,KiCad,Pcbnew,7.0.6*
G04 #@! TF.CreationDate,2023-11-12T09:35:53+05:30*
G04 #@! TF.ProjectId,Common-Miner-Baseboard,436f6d6d-6f6e-42d4-9d69-6e65722d4261,rev?*
G04 #@! TF.SameCoordinates,Original*
G04 #@! TF.FileFunction,Soldermask,Top*
G04 #@! TF.FilePolarity,Negative*
%FSLAX46Y46*%
G04 Gerber Fmt 4.6, Leading zero omitted, Abs format (unit mm)*
G04 Created by KiCad (PCBNEW 7.0.6) date 2023-11-12 09:35:53*
%MOMM*%
%LPD*%
G01*
G04 APERTURE LIST*
G04 Aperture macros list*
%AMRoundRect*
0 Rectangle with rounded corners*
0 $1 Rounding radius*
0 $2 $3 $4 $5 $6 $7 $8 $9 X,Y pos of 4 corners*
0 Add a 4 corners polygon primitive as box body*
4,1,4,$2,$3,$4,$5,$6,$7,$8,$9,$2,$3,0*
0 Add four circle primitives for the rounded corners*
1,1,$1+$1,$2,$3*
1,1,$1+$1,$4,$5*
1,1,$1+$1,$6,$7*
1,1,$1+$1,$8,$9*
0 Add four rect primitives between the rounded corners*
20,1,$1+$1,$2,$3,$4,$5,0*
20,1,$1+$1,$4,$5,$6,$7,0*
20,1,$1+$1,$6,$7,$8,$9,0*
20,1,$1+$1,$8,$9,$2,$3,0*%
G04 Aperture macros list end*
%ADD10RoundRect,0.243750X-0.243750X-0.456250X0.243750X-0.456250X0.243750X0.456250X-0.243750X0.456250X0*%
%ADD11R,1.700000X1.700000*%
%ADD12O,1.700000X1.700000*%
%ADD13RoundRect,0.243750X-0.456250X0.243750X-0.456250X-0.243750X0.456250X-0.243750X0.456250X0.243750X0*%
%ADD14C,5.600000*%
%ADD15RoundRect,0.243750X0.243750X0.456250X-0.243750X0.456250X-0.243750X-0.456250X0.243750X-0.456250X0*%
%ADD16R,3.000000X3.000000*%
%ADD17C,3.000000*%
G04 APERTURE END LIST*
D10*
G04 #@! TO.C,D2*
X49062500Y-49000000D03*
X50937500Y-49000000D03*
G04 #@! TD*
G04 #@! TO.C,D3*
X57057500Y-49000000D03*
X58932500Y-49000000D03*
G04 #@! TD*
G04 #@! TO.C,D4*
X65057500Y-49000000D03*
X66932500Y-49000000D03*
G04 #@! TD*
G04 #@! TO.C,D5*
X73057500Y-49000000D03*
X74932500Y-49000000D03*
G04 #@! TD*
G04 #@! TO.C,D6*
X81057500Y-49000000D03*
X82932500Y-49000000D03*
G04 #@! TD*
G04 #@! TO.C,D7*
X89057500Y-49000000D03*
X90932500Y-49000000D03*
G04 #@! TD*
G04 #@! TO.C,D8*
X97057500Y-49000000D03*
X98932500Y-49000000D03*
G04 #@! TD*
G04 #@! TO.C,D9*
X105057500Y-49000000D03*
X106932500Y-49000000D03*
G04 #@! TD*
G04 #@! TO.C,D10*
X113057500Y-49000000D03*
X114932500Y-49000000D03*
G04 #@! TD*
G04 #@! TO.C,D11*
X121057500Y-49000000D03*
X122932500Y-49000000D03*
G04 #@! TD*
D11*
G04 #@! TO.C,J2*
X50000000Y-59950000D03*
D12*
X50000000Y-62490000D03*
X50000000Y-65030000D03*
X50000000Y-67570000D03*
X50000000Y-70110000D03*
G04 #@! TD*
D11*
G04 #@! TO.C,J3*
X58000000Y-59950000D03*
D12*
X58000000Y-62490000D03*
X58000000Y-65030000D03*
X58000000Y-67570000D03*
X58000000Y-70110000D03*
G04 #@! TD*
D11*
G04 #@! TO.C,J4*
X66000000Y-59950000D03*
D12*
X66000000Y-62490000D03*
X66000000Y-65030000D03*
X66000000Y-67570000D03*
X66000000Y-70110000D03*
G04 #@! TD*
D11*
G04 #@! TO.C,J5*
X74000000Y-59950000D03*
D12*
X74000000Y-62490000D03*
X74000000Y-65030000D03*
X74000000Y-67570000D03*
X74000000Y-70110000D03*
G04 #@! TD*
D11*
G04 #@! TO.C,J6*
X82000000Y-59950000D03*
D12*
X82000000Y-62490000D03*
X82000000Y-65030000D03*
X82000000Y-67570000D03*
X82000000Y-70110000D03*
G04 #@! TD*
D11*
G04 #@! TO.C,J7*
X90000000Y-59950000D03*
D12*
X90000000Y-62490000D03*
X90000000Y-65030000D03*
X90000000Y-67570000D03*
X90000000Y-70110000D03*
G04 #@! TD*
D11*
G04 #@! TO.C,J9*
X106000000Y-59950000D03*
D12*
X106000000Y-62490000D03*
X106000000Y-65030000D03*
X106000000Y-67570000D03*
X106000000Y-70110000D03*
G04 #@! TD*
D11*
G04 #@! TO.C,J10*
X114000000Y-59950000D03*
D12*
X114000000Y-62490000D03*
X114000000Y-65030000D03*
X114000000Y-67570000D03*
X114000000Y-70110000D03*
G04 #@! TD*
D11*
G04 #@! TO.C,J11*
X122000000Y-59950000D03*
D12*
X122000000Y-62490000D03*
X122000000Y-65030000D03*
X122000000Y-67570000D03*
X122000000Y-70110000D03*
G04 #@! TD*
D13*
G04 #@! TO.C,R1*
X41975000Y-52062500D03*
X41975000Y-53937500D03*
G04 #@! TD*
G04 #@! TO.C,R2*
X49975000Y-52062500D03*
X49975000Y-53937500D03*
G04 #@! TD*
G04 #@! TO.C,R3*
X57975000Y-52062500D03*
X57975000Y-53937500D03*
G04 #@! TD*
G04 #@! TO.C,R4*
X65975000Y-52062500D03*
X65975000Y-53937500D03*
G04 #@! TD*
G04 #@! TO.C,R5*
X73975000Y-52062500D03*
X73975000Y-53937500D03*
G04 #@! TD*
G04 #@! TO.C,R6*
X81975000Y-52062500D03*
X81975000Y-53937500D03*
G04 #@! TD*
G04 #@! TO.C,R7*
X89975000Y-52062500D03*
X89975000Y-53937500D03*
G04 #@! TD*
G04 #@! TO.C,R8*
X97975000Y-52062500D03*
X97975000Y-53937500D03*
G04 #@! TD*
G04 #@! TO.C,R9*
X105975000Y-52062500D03*
X105975000Y-53937500D03*
G04 #@! TD*
G04 #@! TO.C,R10*
X113975000Y-52062500D03*
X113975000Y-53937500D03*
G04 #@! TD*
G04 #@! TO.C,R11*
X121975000Y-52062500D03*
X121975000Y-53937500D03*
G04 #@! TD*
D11*
G04 #@! TO.C,J8*
X98000000Y-59950000D03*
D12*
X98000000Y-62490000D03*
X98000000Y-65030000D03*
X98000000Y-67570000D03*
X98000000Y-70110000D03*
G04 #@! TD*
D11*
G04 #@! TO.C,J1*
X42000000Y-59950000D03*
D12*
X42000000Y-62490000D03*
X42000000Y-65030000D03*
X42000000Y-67570000D03*
X42000000Y-70110000D03*
G04 #@! TD*
D14*
G04 #@! TO.C,REF\u002A\u002A*
X30000000Y-50000000D03*
G04 #@! TD*
G04 #@! TO.C,REF\u002A\u002A*
X130000000Y-50000000D03*
G04 #@! TD*
D15*
G04 #@! TO.C,R14*
X127437500Y-65000000D03*
X125562500Y-65000000D03*
G04 #@! TD*
G04 #@! TO.C,R15*
X127437500Y-67500000D03*
X125562500Y-67500000D03*
G04 #@! TD*
D10*
G04 #@! TO.C,D1*
X41017500Y-49000000D03*
X42892500Y-49000000D03*
G04 #@! TD*
D16*
G04 #@! TO.C,J12*
X31000000Y-57380000D03*
D17*
X31000000Y-62460000D03*
X31000000Y-67540000D03*
X31000000Y-72620000D03*
G04 #@! TD*
D14*
G04 #@! TO.C,REF\u002A\u002A*
X130000000Y-80000000D03*
G04 #@! TD*
G04 #@! TO.C,REF\u002A\u002A*
X30000000Y-80000000D03*
G04 #@! TD*
M02*
