G04 #@! TF.GenerationSoftware,KiCad,Pcbnew,7.0.6*
G04 #@! TF.CreationDate,2023-11-12T09:35:53+05:30*
G04 #@! TF.ProjectId,Common-Miner-Baseboard,436f6d6d-6f6e-42d4-9d69-6e65722d4261,rev?*
G04 #@! TF.SameCoordinates,Original*
G04 #@! TF.FileFunction,Soldermask,Bot*
G04 #@! TF.FilePolarity,Negative*
%FSLAX46Y46*%
G04 Gerber Fmt 4.6, Leading zero omitted, Abs format (unit mm)*
G04 Created by KiCad (PCBNEW 7.0.6) date 2023-11-12 09:35:53*
%MOMM*%
%LPD*%
G01*
G04 APERTURE LIST*
G04 Aperture macros list*
%AMRoundRect*
0 Rectangle with rounded corners*
0 $1 Rounding radius*
0 $2 $3 $4 $5 $6 $7 $8 $9 X,Y pos of 4 corners*
0 Add a 4 corners polygon primitive as box body*
4,1,4,$2,$3,$4,$5,$6,$7,$8,$9,$2,$3,0*
0 Add four circle primitives for the rounded corners*
1,1,$1+$1,$2,$3*
1,1,$1+$1,$4,$5*
1,1,$1+$1,$6,$7*
1,1,$1+$1,$8,$9*
0 Add four rect primitives between the rounded corners*
20,1,$1+$1,$2,$3,$4,$5,0*
20,1,$1+$1,$4,$5,$6,$7,0*
20,1,$1+$1,$6,$7,$8,$9,0*
20,1,$1+$1,$8,$9,$2,$3,0*%
G04 Aperture macros list end*
%ADD10R,1.700000X1.700000*%
%ADD11O,1.700000X1.700000*%
%ADD12C,5.600000*%
%ADD13R,3.000000X3.000000*%
%ADD14C,3.000000*%
%ADD15RoundRect,0.243750X-0.243750X-0.456250X0.243750X-0.456250X0.243750X0.456250X-0.243750X0.456250X0*%
G04 APERTURE END LIST*
D10*
G04 #@! TO.C,J2*
X50000000Y-59950000D03*
D11*
X50000000Y-62490000D03*
X50000000Y-65030000D03*
X50000000Y-67570000D03*
X50000000Y-70110000D03*
G04 #@! TD*
D10*
G04 #@! TO.C,J3*
X58000000Y-59950000D03*
D11*
X58000000Y-62490000D03*
X58000000Y-65030000D03*
X58000000Y-67570000D03*
X58000000Y-70110000D03*
G04 #@! TD*
D10*
G04 #@! TO.C,J4*
X66000000Y-59950000D03*
D11*
X66000000Y-62490000D03*
X66000000Y-65030000D03*
X66000000Y-67570000D03*
X66000000Y-70110000D03*
G04 #@! TD*
D10*
G04 #@! TO.C,J5*
X74000000Y-59950000D03*
D11*
X74000000Y-62490000D03*
X74000000Y-65030000D03*
X74000000Y-67570000D03*
X74000000Y-70110000D03*
G04 #@! TD*
D10*
G04 #@! TO.C,J6*
X82000000Y-59950000D03*
D11*
X82000000Y-62490000D03*
X82000000Y-65030000D03*
X82000000Y-67570000D03*
X82000000Y-70110000D03*
G04 #@! TD*
D10*
G04 #@! TO.C,J7*
X90000000Y-59950000D03*
D11*
X90000000Y-62490000D03*
X90000000Y-65030000D03*
X90000000Y-67570000D03*
X90000000Y-70110000D03*
G04 #@! TD*
D10*
G04 #@! TO.C,J9*
X106000000Y-59950000D03*
D11*
X106000000Y-62490000D03*
X106000000Y-65030000D03*
X106000000Y-67570000D03*
X106000000Y-70110000D03*
G04 #@! TD*
D10*
G04 #@! TO.C,J10*
X114000000Y-59950000D03*
D11*
X114000000Y-62490000D03*
X114000000Y-65030000D03*
X114000000Y-67570000D03*
X114000000Y-70110000D03*
G04 #@! TD*
D10*
G04 #@! TO.C,J11*
X122000000Y-59950000D03*
D11*
X122000000Y-62490000D03*
X122000000Y-65030000D03*
X122000000Y-67570000D03*
X122000000Y-70110000D03*
G04 #@! TD*
D10*
G04 #@! TO.C,J8*
X98000000Y-59950000D03*
D11*
X98000000Y-62490000D03*
X98000000Y-65030000D03*
X98000000Y-67570000D03*
X98000000Y-70110000D03*
G04 #@! TD*
D10*
G04 #@! TO.C,J1*
X42000000Y-59950000D03*
D11*
X42000000Y-62490000D03*
X42000000Y-65030000D03*
X42000000Y-67570000D03*
X42000000Y-70110000D03*
G04 #@! TD*
D12*
G04 #@! TO.C,REF\u002A\u002A*
X30000000Y-50000000D03*
G04 #@! TD*
G04 #@! TO.C,REF\u002A\u002A*
X130000000Y-50000000D03*
G04 #@! TD*
D13*
G04 #@! TO.C,J12*
X31000000Y-57380000D03*
D14*
X31000000Y-62460000D03*
X31000000Y-67540000D03*
X31000000Y-72620000D03*
G04 #@! TD*
D12*
G04 #@! TO.C,REF\u002A\u002A*
X130000000Y-80000000D03*
G04 #@! TD*
G04 #@! TO.C,REF\u002A\u002A*
X30000000Y-80000000D03*
G04 #@! TD*
D15*
G04 #@! TO.C,R12*
X34562500Y-62500000D03*
X36437500Y-62500000D03*
G04 #@! TD*
G04 #@! TO.C,R13*
X34562500Y-67500000D03*
X36437500Y-67500000D03*
G04 #@! TD*
M02*
