G04 #@! TF.GenerationSoftware,KiCad,Pcbnew,7.0.6*
G04 #@! TF.CreationDate,2023-11-12T09:35:53+05:30*
G04 #@! TF.ProjectId,Common-Miner-Baseboard,436f6d6d-6f6e-42d4-9d69-6e65722d4261,rev?*
G04 #@! TF.SameCoordinates,Original*
G04 #@! TF.FileFunction,Copper,L2,Bot*
G04 #@! TF.FilePolarity,Positive*
%FSLAX46Y46*%
G04 Gerber Fmt 4.6, Leading zero omitted, Abs format (unit mm)*
G04 Created by KiCad (PCBNEW 7.0.6) date 2023-11-12 09:35:53*
%MOMM*%
%LPD*%
G01*
G04 APERTURE LIST*
G04 Aperture macros list*
%AMRoundRect*
0 Rectangle with rounded corners*
0 $1 Rounding radius*
0 $2 $3 $4 $5 $6 $7 $8 $9 X,Y pos of 4 corners*
0 Add a 4 corners polygon primitive as box body*
4,1,4,$2,$3,$4,$5,$6,$7,$8,$9,$2,$3,0*
0 Add four circle primitives for the rounded corners*
1,1,$1+$1,$2,$3*
1,1,$1+$1,$4,$5*
1,1,$1+$1,$6,$7*
1,1,$1+$1,$8,$9*
0 Add four rect primitives between the rounded corners*
20,1,$1+$1,$2,$3,$4,$5,0*
20,1,$1+$1,$4,$5,$6,$7,0*
20,1,$1+$1,$6,$7,$8,$9,0*
20,1,$1+$1,$8,$9,$2,$3,0*%
G04 Aperture macros list end*
G04 #@! TA.AperFunction,ComponentPad*
%ADD10R,1.700000X1.700000*%
G04 #@! TD*
G04 #@! TA.AperFunction,ComponentPad*
%ADD11O,1.700000X1.700000*%
G04 #@! TD*
G04 #@! TA.AperFunction,ComponentPad*
%ADD12C,5.600000*%
G04 #@! TD*
G04 #@! TA.AperFunction,ComponentPad*
%ADD13R,3.000000X3.000000*%
G04 #@! TD*
G04 #@! TA.AperFunction,ComponentPad*
%ADD14C,3.000000*%
G04 #@! TD*
G04 #@! TA.AperFunction,SMDPad,CuDef*
%ADD15RoundRect,0.243750X-0.243750X-0.456250X0.243750X-0.456250X0.243750X0.456250X-0.243750X0.456250X0*%
G04 #@! TD*
G04 #@! TA.AperFunction,Conductor*
%ADD16C,0.800000*%
G04 #@! TD*
G04 #@! TA.AperFunction,Conductor*
%ADD17C,1.500000*%
G04 #@! TD*
G04 APERTURE END LIST*
D10*
G04 #@! TO.P,J2,1*
G04 #@! TO.N,LED_2*
X50000000Y-59950000D03*
D11*
G04 #@! TO.P,J2,2*
G04 #@! TO.N,5V*
X50000000Y-62490000D03*
G04 #@! TO.P,J2,3*
G04 #@! TO.N,SDA*
X50000000Y-65030000D03*
G04 #@! TO.P,J2,4*
G04 #@! TO.N,SCL*
X50000000Y-67570000D03*
G04 #@! TO.P,J2,5*
G04 #@! TO.N,GND*
X50000000Y-70110000D03*
G04 #@! TD*
D10*
G04 #@! TO.P,J3,1*
G04 #@! TO.N,LED_3*
X58000000Y-59950000D03*
D11*
G04 #@! TO.P,J3,2*
G04 #@! TO.N,5V*
X58000000Y-62490000D03*
G04 #@! TO.P,J3,3*
G04 #@! TO.N,SDA*
X58000000Y-65030000D03*
G04 #@! TO.P,J3,4*
G04 #@! TO.N,SCL*
X58000000Y-67570000D03*
G04 #@! TO.P,J3,5*
G04 #@! TO.N,GND*
X58000000Y-70110000D03*
G04 #@! TD*
D10*
G04 #@! TO.P,J4,1*
G04 #@! TO.N,LED_4*
X66000000Y-59950000D03*
D11*
G04 #@! TO.P,J4,2*
G04 #@! TO.N,5V*
X66000000Y-62490000D03*
G04 #@! TO.P,J4,3*
G04 #@! TO.N,SDA*
X66000000Y-65030000D03*
G04 #@! TO.P,J4,4*
G04 #@! TO.N,SCL*
X66000000Y-67570000D03*
G04 #@! TO.P,J4,5*
G04 #@! TO.N,GND*
X66000000Y-70110000D03*
G04 #@! TD*
D10*
G04 #@! TO.P,J5,1*
G04 #@! TO.N,LED_5*
X74000000Y-59950000D03*
D11*
G04 #@! TO.P,J5,2*
G04 #@! TO.N,5V*
X74000000Y-62490000D03*
G04 #@! TO.P,J5,3*
G04 #@! TO.N,SDA*
X74000000Y-65030000D03*
G04 #@! TO.P,J5,4*
G04 #@! TO.N,SCL*
X74000000Y-67570000D03*
G04 #@! TO.P,J5,5*
G04 #@! TO.N,GND*
X74000000Y-70110000D03*
G04 #@! TD*
D10*
G04 #@! TO.P,J6,1*
G04 #@! TO.N,LED_6*
X82000000Y-59950000D03*
D11*
G04 #@! TO.P,J6,2*
G04 #@! TO.N,5V*
X82000000Y-62490000D03*
G04 #@! TO.P,J6,3*
G04 #@! TO.N,SDA*
X82000000Y-65030000D03*
G04 #@! TO.P,J6,4*
G04 #@! TO.N,SCL*
X82000000Y-67570000D03*
G04 #@! TO.P,J6,5*
G04 #@! TO.N,GND*
X82000000Y-70110000D03*
G04 #@! TD*
D10*
G04 #@! TO.P,J7,1*
G04 #@! TO.N,LED_7*
X90000000Y-59950000D03*
D11*
G04 #@! TO.P,J7,2*
G04 #@! TO.N,5V*
X90000000Y-62490000D03*
G04 #@! TO.P,J7,3*
G04 #@! TO.N,SDA*
X90000000Y-65030000D03*
G04 #@! TO.P,J7,4*
G04 #@! TO.N,SCL*
X90000000Y-67570000D03*
G04 #@! TO.P,J7,5*
G04 #@! TO.N,GND*
X90000000Y-70110000D03*
G04 #@! TD*
D10*
G04 #@! TO.P,J9,1*
G04 #@! TO.N,LED_9*
X106000000Y-59950000D03*
D11*
G04 #@! TO.P,J9,2*
G04 #@! TO.N,5V*
X106000000Y-62490000D03*
G04 #@! TO.P,J9,3*
G04 #@! TO.N,SDA*
X106000000Y-65030000D03*
G04 #@! TO.P,J9,4*
G04 #@! TO.N,SCL*
X106000000Y-67570000D03*
G04 #@! TO.P,J9,5*
G04 #@! TO.N,GND*
X106000000Y-70110000D03*
G04 #@! TD*
D10*
G04 #@! TO.P,J10,1*
G04 #@! TO.N,LED_10*
X114000000Y-59950000D03*
D11*
G04 #@! TO.P,J10,2*
G04 #@! TO.N,5V*
X114000000Y-62490000D03*
G04 #@! TO.P,J10,3*
G04 #@! TO.N,SDA*
X114000000Y-65030000D03*
G04 #@! TO.P,J10,4*
G04 #@! TO.N,SCL*
X114000000Y-67570000D03*
G04 #@! TO.P,J10,5*
G04 #@! TO.N,GND*
X114000000Y-70110000D03*
G04 #@! TD*
D10*
G04 #@! TO.P,J11,1*
G04 #@! TO.N,LED_11*
X122000000Y-59950000D03*
D11*
G04 #@! TO.P,J11,2*
G04 #@! TO.N,5V*
X122000000Y-62490000D03*
G04 #@! TO.P,J11,3*
G04 #@! TO.N,SDA*
X122000000Y-65030000D03*
G04 #@! TO.P,J11,4*
G04 #@! TO.N,SCL*
X122000000Y-67570000D03*
G04 #@! TO.P,J11,5*
G04 #@! TO.N,GND*
X122000000Y-70110000D03*
G04 #@! TD*
D10*
G04 #@! TO.P,J8,1*
G04 #@! TO.N,LED_8*
X98000000Y-59950000D03*
D11*
G04 #@! TO.P,J8,2*
G04 #@! TO.N,5V*
X98000000Y-62490000D03*
G04 #@! TO.P,J8,3*
G04 #@! TO.N,SDA*
X98000000Y-65030000D03*
G04 #@! TO.P,J8,4*
G04 #@! TO.N,SCL*
X98000000Y-67570000D03*
G04 #@! TO.P,J8,5*
G04 #@! TO.N,GND*
X98000000Y-70110000D03*
G04 #@! TD*
D10*
G04 #@! TO.P,J1,1*
G04 #@! TO.N,LED_1*
X42000000Y-59950000D03*
D11*
G04 #@! TO.P,J1,2*
G04 #@! TO.N,5V*
X42000000Y-62490000D03*
G04 #@! TO.P,J1,3*
G04 #@! TO.N,SDA*
X42000000Y-65030000D03*
G04 #@! TO.P,J1,4*
G04 #@! TO.N,SCL*
X42000000Y-67570000D03*
G04 #@! TO.P,J1,5*
G04 #@! TO.N,GND*
X42000000Y-70110000D03*
G04 #@! TD*
D12*
G04 #@! TO.P,REF\u002A\u002A,1*
G04 #@! TO.N,N/C*
X30000000Y-50000000D03*
G04 #@! TD*
G04 #@! TO.P,REF\u002A\u002A,1*
G04 #@! TO.N,N/C*
X130000000Y-50000000D03*
G04 #@! TD*
D13*
G04 #@! TO.P,J12,1*
G04 #@! TO.N,5V*
X31000000Y-57380000D03*
D14*
G04 #@! TO.P,J12,2*
G04 #@! TO.N,Net-(J12-Pad2)*
X31000000Y-62460000D03*
G04 #@! TO.P,J12,3*
G04 #@! TO.N,Net-(J12-Pad3)*
X31000000Y-67540000D03*
G04 #@! TO.P,J12,4*
G04 #@! TO.N,GND*
X31000000Y-72620000D03*
G04 #@! TD*
D12*
G04 #@! TO.P,REF\u002A\u002A,1*
G04 #@! TO.N,N/C*
X130000000Y-80000000D03*
G04 #@! TD*
G04 #@! TO.P,REF\u002A\u002A,1*
G04 #@! TO.N,N/C*
X30000000Y-80000000D03*
G04 #@! TD*
D15*
G04 #@! TO.P,R12,1*
G04 #@! TO.N,Net-(J12-Pad2)*
X34562500Y-62500000D03*
G04 #@! TO.P,R12,2*
G04 #@! TO.N,SDA*
X36437500Y-62500000D03*
G04 #@! TD*
G04 #@! TO.P,R13,1*
G04 #@! TO.N,Net-(J12-Pad3)*
X34562500Y-67500000D03*
G04 #@! TO.P,R13,2*
G04 #@! TO.N,SCL*
X36437500Y-67500000D03*
G04 #@! TD*
D16*
G04 #@! TO.N,SCL*
X42000000Y-67570000D02*
X36507500Y-67570000D01*
X36507500Y-67570000D02*
X36437500Y-67500000D01*
G04 #@! TO.N,SDA*
X36437500Y-63937500D02*
X36437500Y-62500000D01*
X42000000Y-65030000D02*
X37530000Y-65030000D01*
X37530000Y-65030000D02*
X36437500Y-63937500D01*
D17*
G04 #@! TO.N,5V*
X42000000Y-62490000D02*
X39490000Y-62490000D01*
X39490000Y-62490000D02*
X39000000Y-62000000D01*
X46000000Y-62500000D02*
X49990000Y-62500000D01*
X39990000Y-62490000D02*
X39000000Y-61500000D01*
X39000000Y-58500000D02*
X37880000Y-57380000D01*
X42010000Y-62500000D02*
X42000000Y-62490000D01*
X39000000Y-62000000D02*
X39000000Y-61500000D01*
X39000000Y-59500000D02*
X39000000Y-58500000D01*
X50000000Y-62490000D02*
X122000000Y-62490000D01*
X30000000Y-57380000D02*
X36380000Y-57380000D01*
X37880000Y-57380000D02*
X36380000Y-57380000D01*
X42000000Y-62490000D02*
X39990000Y-62490000D01*
X46000000Y-62500000D02*
X42010000Y-62500000D01*
X39000000Y-61500000D02*
X39000000Y-59500000D01*
X49990000Y-62500000D02*
X50000000Y-62490000D01*
D16*
G04 #@! TO.N,Net-(J12-Pad3)*
X34562500Y-67500000D02*
X30040000Y-67500000D01*
X30040000Y-67500000D02*
X30000000Y-67540000D01*
G04 #@! TO.N,Net-(J12-Pad2)*
X34562500Y-62500000D02*
X30040000Y-62500000D01*
X30040000Y-62500000D02*
X30000000Y-62460000D01*
G04 #@! TD*
G04 #@! TA.AperFunction,Conductor*
G04 #@! TO.N,GND*
G36*
X130001444Y-46025567D02*
G01*
X130363812Y-46042321D01*
X130369609Y-46042858D01*
X130422760Y-46050272D01*
X130727446Y-46092773D01*
X130733132Y-46093836D01*
X131084851Y-46176560D01*
X131090436Y-46178150D01*
X131196912Y-46213837D01*
X131433002Y-46292966D01*
X131438406Y-46295059D01*
X131768935Y-46441002D01*
X131774114Y-46443580D01*
X132089771Y-46619400D01*
X132094698Y-46622451D01*
X132172030Y-46675425D01*
X132392767Y-46826634D01*
X132397403Y-46830134D01*
X132498569Y-46914141D01*
X132675367Y-47060953D01*
X132679658Y-47064864D01*
X132935134Y-47320340D01*
X132939046Y-47324632D01*
X133082372Y-47497232D01*
X133169862Y-47602593D01*
X133173365Y-47607232D01*
X133377544Y-47905295D01*
X133380602Y-47910234D01*
X133556414Y-48225877D01*
X133559002Y-48231074D01*
X133704934Y-48561579D01*
X133707037Y-48567008D01*
X133821849Y-48909563D01*
X133823443Y-48915162D01*
X133906159Y-49266847D01*
X133907229Y-49272570D01*
X133957141Y-49630390D01*
X133957678Y-49636187D01*
X133974433Y-49998553D01*
X133974500Y-50001464D01*
X133974500Y-79998534D01*
X133974433Y-80001445D01*
X133957678Y-80363812D01*
X133957141Y-80369609D01*
X133907229Y-80727429D01*
X133906159Y-80733152D01*
X133823443Y-81084837D01*
X133821849Y-81090436D01*
X133707037Y-81432991D01*
X133704934Y-81438420D01*
X133559002Y-81768925D01*
X133556409Y-81774131D01*
X133466150Y-81936179D01*
X133380609Y-82089754D01*
X133377544Y-82094704D01*
X133173365Y-82392767D01*
X133169857Y-82397413D01*
X132939046Y-82675367D01*
X132935124Y-82679670D01*
X132679670Y-82935124D01*
X132675367Y-82939046D01*
X132397413Y-83169857D01*
X132392767Y-83173365D01*
X132094704Y-83377544D01*
X132089755Y-83380608D01*
X131774131Y-83556409D01*
X131768925Y-83559002D01*
X131438420Y-83704934D01*
X131432991Y-83707037D01*
X131090436Y-83821849D01*
X131084837Y-83823443D01*
X130733152Y-83906159D01*
X130727429Y-83907229D01*
X130369609Y-83957141D01*
X130363812Y-83957678D01*
X130001445Y-83974433D01*
X129998534Y-83974500D01*
X30001466Y-83974500D01*
X29998555Y-83974433D01*
X29636187Y-83957678D01*
X29630390Y-83957141D01*
X29272570Y-83907229D01*
X29266851Y-83906159D01*
X28915162Y-83823443D01*
X28909563Y-83821849D01*
X28567008Y-83707037D01*
X28561579Y-83704934D01*
X28231074Y-83559002D01*
X28225877Y-83556414D01*
X27910234Y-83380602D01*
X27905295Y-83377544D01*
X27607232Y-83173365D01*
X27602593Y-83169862D01*
X27431185Y-83027527D01*
X27324632Y-82939046D01*
X27320340Y-82935134D01*
X27064864Y-82679658D01*
X27060953Y-82675367D01*
X26855450Y-82427890D01*
X26830134Y-82397403D01*
X26826634Y-82392767D01*
X26622451Y-82094698D01*
X26619400Y-82089771D01*
X26443580Y-81774114D01*
X26441002Y-81768935D01*
X26295059Y-81438406D01*
X26292966Y-81433002D01*
X26178150Y-81090436D01*
X26176560Y-81084851D01*
X26093836Y-80733132D01*
X26092773Y-80727446D01*
X26042858Y-80369609D01*
X26042321Y-80363812D01*
X26025567Y-80001444D01*
X26025534Y-80000000D01*
X26894615Y-80000000D01*
X26914140Y-80347690D01*
X26972471Y-80691004D01*
X26972473Y-80691013D01*
X27039200Y-80922625D01*
X27068880Y-81025648D01*
X27174500Y-81280636D01*
X27202145Y-81347376D01*
X27202152Y-81347388D01*
X27370588Y-81652153D01*
X27370592Y-81652160D01*
X27572109Y-81936172D01*
X27572114Y-81936179D01*
X27672465Y-82048471D01*
X27804161Y-82195839D01*
X27969063Y-82343205D01*
X28063820Y-82427885D01*
X28063827Y-82427890D01*
X28347839Y-82629407D01*
X28347846Y-82629411D01*
X28430998Y-82675367D01*
X28652624Y-82797855D01*
X28974356Y-82931121D01*
X29308987Y-83027527D01*
X29652307Y-83085859D01*
X29652306Y-83085859D01*
X29670793Y-83086897D01*
X30000000Y-83105385D01*
X30347693Y-83085859D01*
X30691013Y-83027527D01*
X31025644Y-82931121D01*
X31347376Y-82797855D01*
X31652164Y-82629405D01*
X31936176Y-82427888D01*
X32195839Y-82195839D01*
X32427888Y-81936176D01*
X32629405Y-81652164D01*
X32797855Y-81347376D01*
X32931121Y-81025644D01*
X33027527Y-80691013D01*
X33085859Y-80347693D01*
X33105385Y-80000000D01*
X126894615Y-80000000D01*
X126914140Y-80347690D01*
X126972471Y-80691004D01*
X126972473Y-80691013D01*
X127039200Y-80922625D01*
X127068880Y-81025648D01*
X127174500Y-81280636D01*
X127202145Y-81347376D01*
X127202152Y-81347388D01*
X127370588Y-81652153D01*
X127370592Y-81652160D01*
X127572109Y-81936172D01*
X127572114Y-81936179D01*
X127672465Y-82048471D01*
X127804161Y-82195839D01*
X127969063Y-82343205D01*
X128063820Y-82427885D01*
X128063827Y-82427890D01*
X128347839Y-82629407D01*
X128347846Y-82629411D01*
X128430998Y-82675367D01*
X128652624Y-82797855D01*
X128974356Y-82931121D01*
X129308987Y-83027527D01*
X129652307Y-83085859D01*
X129652306Y-83085859D01*
X129670793Y-83086897D01*
X130000000Y-83105385D01*
X130347693Y-83085859D01*
X130691013Y-83027527D01*
X131025644Y-82931121D01*
X131347376Y-82797855D01*
X131652164Y-82629405D01*
X131936176Y-82427888D01*
X132195839Y-82195839D01*
X132427888Y-81936176D01*
X132629405Y-81652164D01*
X132797855Y-81347376D01*
X132931121Y-81025644D01*
X133027527Y-80691013D01*
X133085859Y-80347693D01*
X133105385Y-80000000D01*
X133085859Y-79652307D01*
X133027527Y-79308987D01*
X132931121Y-78974356D01*
X132797855Y-78652624D01*
X132629405Y-78347836D01*
X132427888Y-78063824D01*
X132427887Y-78063823D01*
X132427885Y-78063820D01*
X132343205Y-77969063D01*
X132195839Y-77804161D01*
X132048471Y-77672465D01*
X131936179Y-77572114D01*
X131936172Y-77572109D01*
X131652160Y-77370592D01*
X131652153Y-77370588D01*
X131434402Y-77250242D01*
X131347376Y-77202145D01*
X131347369Y-77202142D01*
X131347365Y-77202140D01*
X131025648Y-77068880D01*
X130957221Y-77049166D01*
X130691013Y-76972473D01*
X130691007Y-76972472D01*
X130691004Y-76972471D01*
X130347687Y-76914140D01*
X130347693Y-76914140D01*
X130018486Y-76895653D01*
X130000000Y-76894615D01*
X129999999Y-76894615D01*
X129652309Y-76914140D01*
X129308995Y-76972471D01*
X129308989Y-76972472D01*
X129308987Y-76972473D01*
X129172142Y-77011897D01*
X128974351Y-77068880D01*
X128652634Y-77202140D01*
X128652611Y-77202152D01*
X128347846Y-77370588D01*
X128347839Y-77370592D01*
X128063827Y-77572109D01*
X128063820Y-77572114D01*
X127804161Y-77804161D01*
X127572114Y-78063820D01*
X127572109Y-78063827D01*
X127370592Y-78347839D01*
X127370588Y-78347846D01*
X127202152Y-78652611D01*
X127202140Y-78652634D01*
X127068880Y-78974351D01*
X126972471Y-79308995D01*
X126914140Y-79652309D01*
X126894615Y-80000000D01*
X33105385Y-80000000D01*
X33085859Y-79652307D01*
X33027527Y-79308987D01*
X32931121Y-78974356D01*
X32797855Y-78652624D01*
X32629405Y-78347836D01*
X32427888Y-78063824D01*
X32427887Y-78063823D01*
X32427885Y-78063820D01*
X32343205Y-77969063D01*
X32195839Y-77804161D01*
X32048471Y-77672465D01*
X31936179Y-77572114D01*
X31936172Y-77572109D01*
X31652160Y-77370592D01*
X31652153Y-77370588D01*
X31434402Y-77250242D01*
X31347376Y-77202145D01*
X31347369Y-77202142D01*
X31347365Y-77202140D01*
X31025648Y-77068880D01*
X30957221Y-77049166D01*
X30691013Y-76972473D01*
X30691007Y-76972472D01*
X30691004Y-76972471D01*
X30347687Y-76914140D01*
X30347693Y-76914140D01*
X30000000Y-76894615D01*
X29652309Y-76914140D01*
X29308995Y-76972471D01*
X29308989Y-76972472D01*
X29308987Y-76972473D01*
X29172142Y-77011897D01*
X28974351Y-77068880D01*
X28652634Y-77202140D01*
X28652611Y-77202152D01*
X28347846Y-77370588D01*
X28347839Y-77370592D01*
X28063827Y-77572109D01*
X28063820Y-77572114D01*
X27804161Y-77804161D01*
X27572114Y-78063820D01*
X27572109Y-78063827D01*
X27370592Y-78347839D01*
X27370588Y-78347846D01*
X27202152Y-78652611D01*
X27202140Y-78652634D01*
X27068880Y-78974351D01*
X26972471Y-79308995D01*
X26914140Y-79652309D01*
X26894615Y-80000000D01*
X26025534Y-80000000D01*
X26025500Y-79998534D01*
X26025500Y-72620000D01*
X29194953Y-72620000D01*
X29215115Y-72889032D01*
X29275145Y-73152045D01*
X29275147Y-73152050D01*
X29373707Y-73403177D01*
X29373710Y-73403185D01*
X29475253Y-73579061D01*
X30259160Y-72795154D01*
X30266971Y-72839454D01*
X30337340Y-73002587D01*
X30443433Y-73145094D01*
X30579530Y-73259294D01*
X30738295Y-73339028D01*
X30825894Y-73359789D01*
X30040983Y-74144699D01*
X30097476Y-74183215D01*
X30340537Y-74300269D01*
X30340550Y-74300274D01*
X30598328Y-74379788D01*
X30598340Y-74379790D01*
X30865113Y-74420000D01*
X31134887Y-74420000D01*
X31401659Y-74379790D01*
X31401671Y-74379788D01*
X31659449Y-74300274D01*
X31659462Y-74300269D01*
X31902526Y-74183215D01*
X31959016Y-74144700D01*
X31178223Y-73363907D01*
X31343409Y-73303784D01*
X31491844Y-73206157D01*
X31613764Y-73076930D01*
X31702595Y-72923070D01*
X31740878Y-72795194D01*
X32524745Y-73579061D01*
X32524746Y-73579061D01*
X32626292Y-73403178D01*
X32626294Y-73403174D01*
X32724852Y-73152050D01*
X32724854Y-73152045D01*
X32784884Y-72889032D01*
X32805046Y-72620000D01*
X32784884Y-72350967D01*
X32724854Y-72087954D01*
X32724852Y-72087949D01*
X32626294Y-71836825D01*
X32626292Y-71836821D01*
X32524745Y-71660937D01*
X31740839Y-72444843D01*
X31733029Y-72400546D01*
X31662660Y-72237413D01*
X31556567Y-72094906D01*
X31420470Y-71980706D01*
X31261705Y-71900972D01*
X31174104Y-71880210D01*
X31959015Y-71095299D01*
X31959015Y-71095298D01*
X31902514Y-71056777D01*
X31659467Y-70939732D01*
X31659449Y-70939725D01*
X31401671Y-70860211D01*
X31401659Y-70860209D01*
X31134887Y-70820000D01*
X30865113Y-70820000D01*
X30598340Y-70860209D01*
X30598328Y-70860211D01*
X30340550Y-70939725D01*
X30340532Y-70939732D01*
X30097482Y-71056779D01*
X30097474Y-71056784D01*
X30040984Y-71095298D01*
X30040984Y-71095300D01*
X30821775Y-71876092D01*
X30656591Y-71936216D01*
X30508156Y-72033843D01*
X30386236Y-72163070D01*
X30297405Y-72316930D01*
X30259121Y-72444805D01*
X29475254Y-71660938D01*
X29475253Y-71660938D01*
X29373710Y-71836814D01*
X29373707Y-71836822D01*
X29275147Y-72087949D01*
X29275145Y-72087954D01*
X29215115Y-72350967D01*
X29194953Y-72620000D01*
X26025500Y-72620000D01*
X26025500Y-70510000D01*
X40918167Y-70510000D01*
X40923061Y-70527202D01*
X40923063Y-70527207D01*
X41018060Y-70717989D01*
X41146500Y-70888070D01*
X41304001Y-71031652D01*
X41485205Y-71143847D01*
X41600000Y-71188318D01*
X41600000Y-70510000D01*
X40918167Y-70510000D01*
X26025500Y-70510000D01*
X26025500Y-67540000D01*
X29194451Y-67540000D01*
X29214617Y-67809106D01*
X29274665Y-68072193D01*
X29373255Y-68323394D01*
X29373258Y-68323402D01*
X29508182Y-68557098D01*
X29508184Y-68557101D01*
X29508185Y-68557102D01*
X29676439Y-68768085D01*
X29874259Y-68951635D01*
X29874265Y-68951639D01*
X30097216Y-69103645D01*
X30097223Y-69103649D01*
X30097226Y-69103651D01*
X30340359Y-69220738D01*
X30340362Y-69220738D01*
X30340367Y-69220741D01*
X30598217Y-69300277D01*
X30598219Y-69300277D01*
X30598228Y-69300280D01*
X30865071Y-69340500D01*
X30865075Y-69340500D01*
X31134925Y-69340500D01*
X31134929Y-69340500D01*
X31401772Y-69300280D01*
X31401782Y-69300277D01*
X31659632Y-69220741D01*
X31659634Y-69220739D01*
X31659641Y-69220738D01*
X31659646Y-69220735D01*
X31659650Y-69220734D01*
X31902769Y-69103654D01*
X31902769Y-69103653D01*
X31902775Y-69103651D01*
X32125741Y-68951635D01*
X32323561Y-68768085D01*
X32491815Y-68557102D01*
X32612304Y-68348407D01*
X32626741Y-68323402D01*
X32626741Y-68323401D01*
X32626743Y-68323398D01*
X32643593Y-68280466D01*
X32687100Y-68224362D01*
X32754033Y-68200686D01*
X32760883Y-68200500D01*
X33758348Y-68200500D01*
X33826469Y-68220502D01*
X33858746Y-68250367D01*
X33930288Y-68344711D01*
X34020688Y-68413262D01*
X34049500Y-68435111D01*
X34188679Y-68489997D01*
X34276140Y-68500500D01*
X34276143Y-68500500D01*
X34848857Y-68500500D01*
X34848860Y-68500500D01*
X34936321Y-68489997D01*
X35075500Y-68435111D01*
X35194711Y-68344711D01*
X35285111Y-68225500D01*
X35339997Y-68086321D01*
X35350500Y-67998860D01*
X35350500Y-67001140D01*
X35339997Y-66913679D01*
X35285111Y-66774500D01*
X35256295Y-66736500D01*
X35194711Y-66655288D01*
X35075500Y-66564889D01*
X34936320Y-66510002D01*
X34848862Y-66499500D01*
X34848860Y-66499500D01*
X34276140Y-66499500D01*
X34276137Y-66499500D01*
X34188679Y-66510002D01*
X34049499Y-66564889D01*
X33930288Y-66655288D01*
X33858746Y-66749633D01*
X33801647Y-66791827D01*
X33758348Y-66799500D01*
X32724257Y-66799500D01*
X32656136Y-66779498D01*
X32615138Y-66736500D01*
X32491817Y-66522901D01*
X32481531Y-66510003D01*
X32323561Y-66311915D01*
X32125741Y-66128365D01*
X32125734Y-66128360D01*
X31902777Y-65976350D01*
X31902769Y-65976345D01*
X31659650Y-65859265D01*
X31659632Y-65859258D01*
X31401782Y-65779722D01*
X31401774Y-65779720D01*
X31401772Y-65779720D01*
X31134929Y-65739500D01*
X30865071Y-65739500D01*
X30598228Y-65779720D01*
X30598226Y-65779720D01*
X30598217Y-65779722D01*
X30340367Y-65859258D01*
X30340355Y-65859263D01*
X30097223Y-65976350D01*
X30097216Y-65976354D01*
X29874265Y-66128360D01*
X29874260Y-66128364D01*
X29676439Y-66311914D01*
X29508182Y-66522901D01*
X29373258Y-66756597D01*
X29373255Y-66756605D01*
X29274665Y-67007806D01*
X29214617Y-67270893D01*
X29194451Y-67540000D01*
X26025500Y-67540000D01*
X26025500Y-62460000D01*
X29194451Y-62460000D01*
X29214617Y-62729106D01*
X29274665Y-62992193D01*
X29373255Y-63243394D01*
X29373258Y-63243402D01*
X29508182Y-63477098D01*
X29508184Y-63477101D01*
X29508185Y-63477102D01*
X29676439Y-63688085D01*
X29874259Y-63871635D01*
X29896526Y-63886816D01*
X30097216Y-64023645D01*
X30097223Y-64023649D01*
X30097226Y-64023651D01*
X30340359Y-64140738D01*
X30340362Y-64140738D01*
X30340367Y-64140741D01*
X30598217Y-64220277D01*
X30598219Y-64220277D01*
X30598228Y-64220280D01*
X30865071Y-64260500D01*
X30865075Y-64260500D01*
X31134925Y-64260500D01*
X31134929Y-64260500D01*
X31401772Y-64220280D01*
X31443259Y-64207483D01*
X31659632Y-64140741D01*
X31659634Y-64140739D01*
X31659641Y-64140738D01*
X31659646Y-64140735D01*
X31659650Y-64140734D01*
X31902769Y-64023654D01*
X31902769Y-64023653D01*
X31902775Y-64023651D01*
X32125741Y-63871635D01*
X32323561Y-63688085D01*
X32491815Y-63477102D01*
X32529371Y-63412052D01*
X32615138Y-63263500D01*
X32666520Y-63214507D01*
X32724257Y-63200500D01*
X33758348Y-63200500D01*
X33826469Y-63220502D01*
X33858746Y-63250367D01*
X33930288Y-63344711D01*
X34019092Y-63412052D01*
X34049500Y-63435111D01*
X34188679Y-63489997D01*
X34276140Y-63500500D01*
X34276143Y-63500500D01*
X34848857Y-63500500D01*
X34848860Y-63500500D01*
X34936321Y-63489997D01*
X35075500Y-63435111D01*
X35194711Y-63344711D01*
X35285111Y-63225500D01*
X35339997Y-63086321D01*
X35350500Y-62998860D01*
X35350500Y-62001140D01*
X35339997Y-61913679D01*
X35285111Y-61774500D01*
X35243429Y-61719534D01*
X35194711Y-61655288D01*
X35075500Y-61564889D01*
X34936320Y-61510002D01*
X34848862Y-61499500D01*
X34848860Y-61499500D01*
X34276140Y-61499500D01*
X34276137Y-61499500D01*
X34188679Y-61510002D01*
X34049499Y-61564889D01*
X33930288Y-61655288D01*
X33858746Y-61749633D01*
X33801647Y-61791827D01*
X33758348Y-61799500D01*
X32760883Y-61799500D01*
X32692762Y-61779498D01*
X32646269Y-61725842D01*
X32643593Y-61719534D01*
X32626744Y-61676605D01*
X32626743Y-61676602D01*
X32626741Y-61676599D01*
X32626741Y-61676597D01*
X32491817Y-61442901D01*
X32418012Y-61350353D01*
X32323561Y-61231915D01*
X32125741Y-61048365D01*
X32125734Y-61048360D01*
X31902777Y-60896350D01*
X31902769Y-60896345D01*
X31659650Y-60779265D01*
X31659632Y-60779258D01*
X31401782Y-60699722D01*
X31401774Y-60699720D01*
X31401772Y-60699720D01*
X31134929Y-60659500D01*
X30865071Y-60659500D01*
X30598228Y-60699720D01*
X30598226Y-60699720D01*
X30598217Y-60699722D01*
X30340367Y-60779258D01*
X30340355Y-60779263D01*
X30097223Y-60896350D01*
X30097216Y-60896354D01*
X29874265Y-61048360D01*
X29874260Y-61048364D01*
X29676439Y-61231914D01*
X29508182Y-61442901D01*
X29373258Y-61676597D01*
X29373255Y-61676605D01*
X29274665Y-61927806D01*
X29214617Y-62190893D01*
X29194451Y-62460000D01*
X26025500Y-62460000D01*
X26025500Y-57380003D01*
X28944417Y-57380003D01*
X28964698Y-57585927D01*
X29024768Y-57783954D01*
X29122313Y-57966447D01*
X29170900Y-58025651D01*
X29198653Y-58090999D01*
X29199500Y-58105584D01*
X29199500Y-58924859D01*
X29199501Y-58924866D01*
X29202414Y-58949990D01*
X29202416Y-58949994D01*
X29247793Y-59052765D01*
X29327232Y-59132204D01*
X29327234Y-59132205D01*
X29327235Y-59132206D01*
X29430009Y-59177585D01*
X29455135Y-59180500D01*
X32544864Y-59180499D01*
X32569991Y-59177585D01*
X32672765Y-59132206D01*
X32752206Y-59052765D01*
X32797585Y-58949991D01*
X32800500Y-58924865D01*
X32800500Y-58556500D01*
X32820502Y-58488379D01*
X32874158Y-58441886D01*
X32926500Y-58430500D01*
X36328392Y-58430500D01*
X37392679Y-58430500D01*
X37460800Y-58450502D01*
X37481774Y-58467405D01*
X37912595Y-58898226D01*
X37946621Y-58960538D01*
X37949500Y-58987321D01*
X37949500Y-61445297D01*
X37949196Y-61451476D01*
X37944417Y-61499998D01*
X37944417Y-61500001D01*
X37949196Y-61548522D01*
X37949500Y-61554702D01*
X37949500Y-61945297D01*
X37949196Y-61951476D01*
X37944417Y-61999998D01*
X37944417Y-62000003D01*
X37964698Y-62205927D01*
X38024768Y-62403955D01*
X38105815Y-62555583D01*
X38122314Y-62586449D01*
X38253590Y-62746410D01*
X38291290Y-62777350D01*
X38295863Y-62781494D01*
X38708504Y-63194135D01*
X38712649Y-63198709D01*
X38743587Y-63236407D01*
X38743588Y-63236408D01*
X38743590Y-63236410D01*
X38813791Y-63294022D01*
X38903550Y-63367685D01*
X39086046Y-63465232D01*
X39284066Y-63525300D01*
X39284070Y-63525300D01*
X39284072Y-63525301D01*
X39489997Y-63545583D01*
X39490000Y-63545583D01*
X39490002Y-63545583D01*
X39538522Y-63540804D01*
X39544702Y-63540500D01*
X39935298Y-63540500D01*
X39941478Y-63540804D01*
X39989998Y-63545583D01*
X39990000Y-63545583D01*
X39990002Y-63545583D01*
X40038521Y-63540804D01*
X40044701Y-63540500D01*
X41503250Y-63540500D01*
X41548765Y-63549007D01*
X41683802Y-63601321D01*
X41870097Y-63636145D01*
X41933381Y-63668324D01*
X41969223Y-63729609D01*
X41966242Y-63800543D01*
X41925384Y-63858605D01*
X41870098Y-63883854D01*
X41757350Y-63904930D01*
X41683800Y-63918679D01*
X41529754Y-63978356D01*
X41484981Y-63995702D01*
X41484980Y-63995702D01*
X41484979Y-63995703D01*
X41484974Y-63995705D01*
X41303701Y-64107945D01*
X41303699Y-64107946D01*
X41146124Y-64251596D01*
X41125104Y-64279432D01*
X41068090Y-64321740D01*
X41024554Y-64329500D01*
X37872347Y-64329500D01*
X37804226Y-64309498D01*
X37783252Y-64292595D01*
X37174905Y-63684248D01*
X37140879Y-63621936D01*
X37138000Y-63595153D01*
X37138000Y-63297029D01*
X37156668Y-63233451D01*
X37155887Y-63233012D01*
X37157791Y-63229625D01*
X37158002Y-63228908D01*
X37158986Y-63227499D01*
X37160109Y-63225502D01*
X37160111Y-63225500D01*
X37214997Y-63086321D01*
X37225500Y-62998860D01*
X37225500Y-62001140D01*
X37214997Y-61913679D01*
X37160111Y-61774500D01*
X37118429Y-61719534D01*
X37069711Y-61655288D01*
X36950500Y-61564889D01*
X36811320Y-61510002D01*
X36723862Y-61499500D01*
X36723860Y-61499500D01*
X36151140Y-61499500D01*
X36151137Y-61499500D01*
X36063679Y-61510002D01*
X35924499Y-61564889D01*
X35805288Y-61655288D01*
X35714889Y-61774499D01*
X35660002Y-61913679D01*
X35649500Y-62001137D01*
X35649500Y-62998862D01*
X35660002Y-63086320D01*
X35714890Y-63225502D01*
X35719113Y-63233012D01*
X35716548Y-63234454D01*
X35736620Y-63287245D01*
X35737000Y-63297029D01*
X35737000Y-63914428D01*
X35736885Y-63918231D01*
X35733142Y-63980106D01*
X35738051Y-64006899D01*
X35744316Y-64041086D01*
X35744889Y-64044848D01*
X35752358Y-64106368D01*
X35755888Y-64115676D01*
X35762008Y-64137630D01*
X35763804Y-64147429D01*
X35763805Y-64147433D01*
X35789249Y-64203969D01*
X35790705Y-64207483D01*
X35795558Y-64220280D01*
X35812682Y-64265430D01*
X35818335Y-64273620D01*
X35829537Y-64293481D01*
X35833622Y-64302557D01*
X35833623Y-64302559D01*
X35871847Y-64351348D01*
X35874103Y-64354414D01*
X35909314Y-64405426D01*
X35909317Y-64405429D01*
X35955727Y-64446545D01*
X35958472Y-64449129D01*
X37018376Y-65509033D01*
X37020969Y-65511788D01*
X37062069Y-65558181D01*
X37062071Y-65558183D01*
X37113092Y-65593400D01*
X37116131Y-65595635D01*
X37164943Y-65633877D01*
X37174009Y-65637957D01*
X37193874Y-65649161D01*
X37199963Y-65653364D01*
X37202070Y-65654818D01*
X37260056Y-65676808D01*
X37263537Y-65678250D01*
X37320068Y-65703694D01*
X37329854Y-65705487D01*
X37351823Y-65711611D01*
X37361128Y-65715140D01*
X37422682Y-65722613D01*
X37426405Y-65723180D01*
X37487394Y-65734357D01*
X37549259Y-65730614D01*
X37553061Y-65730500D01*
X41024554Y-65730500D01*
X41092675Y-65750502D01*
X41125104Y-65780568D01*
X41146124Y-65808403D01*
X41303699Y-65952053D01*
X41303701Y-65952054D01*
X41484974Y-66064294D01*
X41484975Y-66064294D01*
X41484981Y-66064298D01*
X41683802Y-66141321D01*
X41870097Y-66176145D01*
X41933381Y-66208324D01*
X41969223Y-66269609D01*
X41966242Y-66340543D01*
X41925384Y-66398605D01*
X41870098Y-66423854D01*
X41757350Y-66444930D01*
X41683800Y-66458679D01*
X41551321Y-66510002D01*
X41484981Y-66535702D01*
X41484980Y-66535702D01*
X41484979Y-66535703D01*
X41484974Y-66535705D01*
X41303701Y-66647945D01*
X41303699Y-66647946D01*
X41146124Y-66791596D01*
X41125104Y-66819432D01*
X41068090Y-66861740D01*
X41024554Y-66869500D01*
X37283330Y-66869500D01*
X37215209Y-66849498D01*
X37168716Y-66795842D01*
X37166116Y-66789726D01*
X37160112Y-66774502D01*
X37160111Y-66774501D01*
X37160111Y-66774500D01*
X37114911Y-66714894D01*
X37069711Y-66655288D01*
X36950500Y-66564889D01*
X36811320Y-66510002D01*
X36723862Y-66499500D01*
X36723860Y-66499500D01*
X36151140Y-66499500D01*
X36151137Y-66499500D01*
X36063679Y-66510002D01*
X35924499Y-66564889D01*
X35805288Y-66655288D01*
X35714889Y-66774499D01*
X35660002Y-66913679D01*
X35649500Y-67001137D01*
X35649500Y-67998862D01*
X35660002Y-68086320D01*
X35714889Y-68225500D01*
X35805288Y-68344711D01*
X35895688Y-68413262D01*
X35924500Y-68435111D01*
X36063679Y-68489997D01*
X36151140Y-68500500D01*
X36151143Y-68500500D01*
X36723857Y-68500500D01*
X36723860Y-68500500D01*
X36811321Y-68489997D01*
X36950500Y-68435111D01*
X37069711Y-68344711D01*
X37080045Y-68331083D01*
X37088173Y-68320366D01*
X37145272Y-68278173D01*
X37188570Y-68270500D01*
X41024554Y-68270500D01*
X41092675Y-68290502D01*
X41125104Y-68320568D01*
X41146124Y-68348403D01*
X41303699Y-68492053D01*
X41303701Y-68492054D01*
X41484974Y-68604294D01*
X41484975Y-68604294D01*
X41484981Y-68604298D01*
X41683802Y-68681321D01*
X41871456Y-68716399D01*
X41934741Y-68748578D01*
X41970583Y-68809863D01*
X41967602Y-68880797D01*
X41926744Y-68938859D01*
X41871456Y-68964109D01*
X41683932Y-68999163D01*
X41485211Y-69076149D01*
X41485204Y-69076152D01*
X41304001Y-69188347D01*
X41146500Y-69331929D01*
X41018060Y-69502010D01*
X40923063Y-69692792D01*
X40923061Y-69692797D01*
X40918166Y-69709999D01*
X40918167Y-69710000D01*
X41698103Y-69710000D01*
X41618239Y-69779202D01*
X41540507Y-69900156D01*
X41500000Y-70038111D01*
X41500000Y-70181889D01*
X41540507Y-70319844D01*
X41618239Y-70440798D01*
X41726900Y-70534952D01*
X41857685Y-70594680D01*
X41964237Y-70610000D01*
X42035763Y-70610000D01*
X42142315Y-70594680D01*
X42273100Y-70534952D01*
X42301897Y-70510000D01*
X42400000Y-70510000D01*
X42400000Y-71188317D01*
X42514794Y-71143847D01*
X42514795Y-71143847D01*
X42695998Y-71031652D01*
X42853499Y-70888070D01*
X42981939Y-70717989D01*
X43076936Y-70527207D01*
X43076938Y-70527202D01*
X43081833Y-70510000D01*
X48918167Y-70510000D01*
X48923061Y-70527202D01*
X48923063Y-70527207D01*
X49018060Y-70717989D01*
X49146500Y-70888070D01*
X49304001Y-71031652D01*
X49485205Y-71143847D01*
X49600000Y-71188318D01*
X49600000Y-70510000D01*
X48918167Y-70510000D01*
X43081833Y-70510000D01*
X42400000Y-70510000D01*
X42301897Y-70510000D01*
X42381761Y-70440798D01*
X42459493Y-70319844D01*
X42500000Y-70181889D01*
X42500000Y-70038111D01*
X42459493Y-69900156D01*
X42381761Y-69779202D01*
X42301897Y-69710000D01*
X43081833Y-69710000D01*
X43081833Y-69709999D01*
X43076938Y-69692797D01*
X43076936Y-69692792D01*
X42981939Y-69502010D01*
X42853499Y-69331929D01*
X42695998Y-69188347D01*
X42514795Y-69076152D01*
X42514788Y-69076149D01*
X42316067Y-68999163D01*
X42128543Y-68964109D01*
X42065258Y-68931930D01*
X42029416Y-68870645D01*
X42032397Y-68799711D01*
X42073255Y-68741649D01*
X42128541Y-68716400D01*
X42316198Y-68681321D01*
X42515019Y-68604298D01*
X42696302Y-68492052D01*
X42853872Y-68348407D01*
X42982366Y-68178255D01*
X43077405Y-67987389D01*
X43135756Y-67782310D01*
X43155429Y-67570000D01*
X43135756Y-67357690D01*
X43077405Y-67152611D01*
X42982366Y-66961745D01*
X42853872Y-66791593D01*
X42815484Y-66756597D01*
X42696300Y-66647946D01*
X42696298Y-66647945D01*
X42515025Y-66535705D01*
X42515021Y-66535703D01*
X42515019Y-66535702D01*
X42316198Y-66458679D01*
X42129902Y-66423854D01*
X42066618Y-66391676D01*
X42030776Y-66330391D01*
X42033757Y-66259457D01*
X42074615Y-66201395D01*
X42129901Y-66176145D01*
X42316198Y-66141321D01*
X42515019Y-66064298D01*
X42696302Y-65952052D01*
X42853872Y-65808407D01*
X42982366Y-65638255D01*
X43077405Y-65447389D01*
X43135756Y-65242310D01*
X43155429Y-65030000D01*
X43135756Y-64817690D01*
X43077405Y-64612611D01*
X42982366Y-64421745D01*
X42853872Y-64251593D01*
X42819523Y-64220279D01*
X42696300Y-64107946D01*
X42696298Y-64107945D01*
X42515025Y-63995705D01*
X42515021Y-63995703D01*
X42515019Y-63995702D01*
X42316198Y-63918679D01*
X42129902Y-63883854D01*
X42066618Y-63851676D01*
X42030776Y-63790391D01*
X42033757Y-63719457D01*
X42074615Y-63661395D01*
X42129901Y-63636145D01*
X42316198Y-63601321D01*
X42425421Y-63559007D01*
X42470937Y-63550500D01*
X45948392Y-63550500D01*
X49529063Y-63550500D01*
X49574578Y-63559007D01*
X49683802Y-63601321D01*
X49870097Y-63636145D01*
X49933381Y-63668324D01*
X49969223Y-63729609D01*
X49966242Y-63800543D01*
X49925384Y-63858605D01*
X49870098Y-63883854D01*
X49757350Y-63904930D01*
X49683800Y-63918679D01*
X49529754Y-63978356D01*
X49484981Y-63995702D01*
X49484980Y-63995702D01*
X49484979Y-63995703D01*
X49484974Y-63995705D01*
X49303701Y-64107945D01*
X49303699Y-64107946D01*
X49146129Y-64251591D01*
X49107641Y-64302557D01*
X49017634Y-64421745D01*
X49005290Y-64446536D01*
X48922593Y-64612615D01*
X48864244Y-64817688D01*
X48844571Y-65030000D01*
X48864244Y-65242311D01*
X48922593Y-65447384D01*
X48922594Y-65447386D01*
X48922595Y-65447389D01*
X49017634Y-65638255D01*
X49124466Y-65779722D01*
X49146129Y-65808408D01*
X49303699Y-65952053D01*
X49303701Y-65952054D01*
X49484974Y-66064294D01*
X49484975Y-66064294D01*
X49484981Y-66064298D01*
X49683802Y-66141321D01*
X49870097Y-66176145D01*
X49933381Y-66208324D01*
X49969223Y-66269609D01*
X49966242Y-66340543D01*
X49925384Y-66398605D01*
X49870098Y-66423854D01*
X49757350Y-66444930D01*
X49683800Y-66458679D01*
X49551321Y-66510002D01*
X49484981Y-66535702D01*
X49484980Y-66535702D01*
X49484979Y-66535703D01*
X49484974Y-66535705D01*
X49303701Y-66647945D01*
X49303699Y-66647946D01*
X49146129Y-66791591D01*
X49102400Y-66849498D01*
X49017634Y-66961745D01*
X48994699Y-67007805D01*
X48922593Y-67152615D01*
X48864244Y-67357688D01*
X48844571Y-67570000D01*
X48864244Y-67782311D01*
X48922593Y-67987384D01*
X48922594Y-67987386D01*
X48922595Y-67987389D01*
X49017634Y-68178255D01*
X49125105Y-68320568D01*
X49146129Y-68348408D01*
X49303699Y-68492053D01*
X49303701Y-68492054D01*
X49484974Y-68604294D01*
X49484975Y-68604294D01*
X49484981Y-68604298D01*
X49683802Y-68681321D01*
X49871456Y-68716399D01*
X49934741Y-68748578D01*
X49970583Y-68809863D01*
X49967602Y-68880797D01*
X49926744Y-68938859D01*
X49871456Y-68964109D01*
X49683932Y-68999163D01*
X49485211Y-69076149D01*
X49485204Y-69076152D01*
X49304001Y-69188347D01*
X49146500Y-69331929D01*
X49018060Y-69502010D01*
X48923063Y-69692792D01*
X48923061Y-69692797D01*
X48918166Y-69709999D01*
X48918167Y-69710000D01*
X49698103Y-69710000D01*
X49618239Y-69779202D01*
X49540507Y-69900156D01*
X49500000Y-70038111D01*
X49500000Y-70181889D01*
X49540507Y-70319844D01*
X49618239Y-70440798D01*
X49726900Y-70534952D01*
X49857685Y-70594680D01*
X49964237Y-70610000D01*
X50035763Y-70610000D01*
X50142315Y-70594680D01*
X50273100Y-70534952D01*
X50301897Y-70510000D01*
X50400000Y-70510000D01*
X50400000Y-71188317D01*
X50514794Y-71143847D01*
X50514795Y-71143847D01*
X50695998Y-71031652D01*
X50853499Y-70888070D01*
X50981939Y-70717989D01*
X51076936Y-70527207D01*
X51076938Y-70527202D01*
X51081833Y-70510000D01*
X56918167Y-70510000D01*
X56923061Y-70527202D01*
X56923063Y-70527207D01*
X57018060Y-70717989D01*
X57146500Y-70888070D01*
X57304001Y-71031652D01*
X57485205Y-71143847D01*
X57600000Y-71188318D01*
X57600000Y-70510000D01*
X56918167Y-70510000D01*
X51081833Y-70510000D01*
X50400000Y-70510000D01*
X50301897Y-70510000D01*
X50381761Y-70440798D01*
X50459493Y-70319844D01*
X50500000Y-70181889D01*
X50500000Y-70038111D01*
X50459493Y-69900156D01*
X50381761Y-69779202D01*
X50301897Y-69710000D01*
X51081833Y-69710000D01*
X51081833Y-69709999D01*
X51076938Y-69692797D01*
X51076936Y-69692792D01*
X50981939Y-69502010D01*
X50853499Y-69331929D01*
X50695998Y-69188347D01*
X50514795Y-69076152D01*
X50514788Y-69076149D01*
X50316067Y-68999163D01*
X50128543Y-68964109D01*
X50065258Y-68931930D01*
X50029416Y-68870645D01*
X50032397Y-68799711D01*
X50073255Y-68741649D01*
X50128541Y-68716400D01*
X50316198Y-68681321D01*
X50515019Y-68604298D01*
X50696302Y-68492052D01*
X50853872Y-68348407D01*
X50982366Y-68178255D01*
X51077405Y-67987389D01*
X51135756Y-67782310D01*
X51155429Y-67570000D01*
X51135756Y-67357690D01*
X51077405Y-67152611D01*
X50982366Y-66961745D01*
X50853872Y-66791593D01*
X50815484Y-66756597D01*
X50696300Y-66647946D01*
X50696298Y-66647945D01*
X50515025Y-66535705D01*
X50515021Y-66535703D01*
X50515019Y-66535702D01*
X50316198Y-66458679D01*
X50129902Y-66423854D01*
X50066618Y-66391676D01*
X50030776Y-66330391D01*
X50033757Y-66259457D01*
X50074615Y-66201395D01*
X50129901Y-66176145D01*
X50316198Y-66141321D01*
X50515019Y-66064298D01*
X50696302Y-65952052D01*
X50853872Y-65808407D01*
X50982366Y-65638255D01*
X51077405Y-65447389D01*
X51135756Y-65242310D01*
X51155429Y-65030000D01*
X51135756Y-64817690D01*
X51077405Y-64612611D01*
X50982366Y-64421745D01*
X50853872Y-64251593D01*
X50819523Y-64220279D01*
X50696300Y-64107946D01*
X50696298Y-64107945D01*
X50515025Y-63995705D01*
X50515021Y-63995703D01*
X50515019Y-63995702D01*
X50316198Y-63918679D01*
X50129902Y-63883854D01*
X50066618Y-63851676D01*
X50030776Y-63790391D01*
X50033757Y-63719457D01*
X50074615Y-63661395D01*
X50129901Y-63636145D01*
X50316198Y-63601321D01*
X50451234Y-63549007D01*
X50496750Y-63540500D01*
X57503250Y-63540500D01*
X57548765Y-63549007D01*
X57683802Y-63601321D01*
X57870097Y-63636145D01*
X57933381Y-63668324D01*
X57969223Y-63729609D01*
X57966242Y-63800543D01*
X57925384Y-63858605D01*
X57870098Y-63883854D01*
X57757350Y-63904930D01*
X57683800Y-63918679D01*
X57529754Y-63978356D01*
X57484981Y-63995702D01*
X57484980Y-63995702D01*
X57484979Y-63995703D01*
X57484974Y-63995705D01*
X57303701Y-64107945D01*
X57303699Y-64107946D01*
X57146129Y-64251591D01*
X57107641Y-64302557D01*
X57017634Y-64421745D01*
X57005290Y-64446536D01*
X56922593Y-64612615D01*
X56864244Y-64817688D01*
X56844571Y-65030000D01*
X56864244Y-65242311D01*
X56922593Y-65447384D01*
X56922594Y-65447386D01*
X56922595Y-65447389D01*
X57017634Y-65638255D01*
X57124466Y-65779722D01*
X57146129Y-65808408D01*
X57303699Y-65952053D01*
X57303701Y-65952054D01*
X57484974Y-66064294D01*
X57484975Y-66064294D01*
X57484981Y-66064298D01*
X57683802Y-66141321D01*
X57870097Y-66176145D01*
X57933381Y-66208324D01*
X57969223Y-66269609D01*
X57966242Y-66340543D01*
X57925384Y-66398605D01*
X57870098Y-66423854D01*
X57757350Y-66444930D01*
X57683800Y-66458679D01*
X57551321Y-66510002D01*
X57484981Y-66535702D01*
X57484980Y-66535702D01*
X57484979Y-66535703D01*
X57484974Y-66535705D01*
X57303701Y-66647945D01*
X57303699Y-66647946D01*
X57146129Y-66791591D01*
X57102400Y-66849498D01*
X57017634Y-66961745D01*
X56994699Y-67007805D01*
X56922593Y-67152615D01*
X56864244Y-67357688D01*
X56844571Y-67570000D01*
X56864244Y-67782311D01*
X56922593Y-67987384D01*
X56922594Y-67987386D01*
X56922595Y-67987389D01*
X57017634Y-68178255D01*
X57125105Y-68320568D01*
X57146129Y-68348408D01*
X57303699Y-68492053D01*
X57303701Y-68492054D01*
X57484974Y-68604294D01*
X57484975Y-68604294D01*
X57484981Y-68604298D01*
X57683802Y-68681321D01*
X57871456Y-68716399D01*
X57934741Y-68748578D01*
X57970583Y-68809863D01*
X57967602Y-68880797D01*
X57926744Y-68938859D01*
X57871456Y-68964109D01*
X57683932Y-68999163D01*
X57485211Y-69076149D01*
X57485204Y-69076152D01*
X57304001Y-69188347D01*
X57146500Y-69331929D01*
X57018060Y-69502010D01*
X56923063Y-69692792D01*
X56923061Y-69692797D01*
X56918166Y-69709999D01*
X56918167Y-69710000D01*
X57698103Y-69710000D01*
X57618239Y-69779202D01*
X57540507Y-69900156D01*
X57500000Y-70038111D01*
X57500000Y-70181889D01*
X57540507Y-70319844D01*
X57618239Y-70440798D01*
X57726900Y-70534952D01*
X57857685Y-70594680D01*
X57964237Y-70610000D01*
X58035763Y-70610000D01*
X58142315Y-70594680D01*
X58273100Y-70534952D01*
X58301897Y-70510000D01*
X58400000Y-70510000D01*
X58400000Y-71188318D01*
X58514794Y-71143847D01*
X58514795Y-71143847D01*
X58695998Y-71031652D01*
X58853499Y-70888070D01*
X58981939Y-70717989D01*
X59076936Y-70527207D01*
X59076938Y-70527202D01*
X59081833Y-70510000D01*
X64918167Y-70510000D01*
X64923061Y-70527202D01*
X64923063Y-70527207D01*
X65018060Y-70717989D01*
X65146500Y-70888070D01*
X65304001Y-71031652D01*
X65485205Y-71143847D01*
X65600000Y-71188318D01*
X65600000Y-70510000D01*
X64918167Y-70510000D01*
X59081833Y-70510000D01*
X58400000Y-70510000D01*
X58301897Y-70510000D01*
X58381761Y-70440798D01*
X58459493Y-70319844D01*
X58500000Y-70181889D01*
X58500000Y-70038111D01*
X58459493Y-69900156D01*
X58381761Y-69779202D01*
X58301897Y-69710000D01*
X59081833Y-69710000D01*
X59081833Y-69709999D01*
X59076938Y-69692797D01*
X59076936Y-69692792D01*
X58981939Y-69502010D01*
X58853499Y-69331929D01*
X58695998Y-69188347D01*
X58514795Y-69076152D01*
X58514788Y-69076149D01*
X58316067Y-68999163D01*
X58128543Y-68964109D01*
X58065258Y-68931930D01*
X58029416Y-68870645D01*
X58032397Y-68799711D01*
X58073255Y-68741649D01*
X58128541Y-68716400D01*
X58316198Y-68681321D01*
X58515019Y-68604298D01*
X58696302Y-68492052D01*
X58853872Y-68348407D01*
X58982366Y-68178255D01*
X59077405Y-67987389D01*
X59135756Y-67782310D01*
X59155429Y-67570000D01*
X59135756Y-67357690D01*
X59077405Y-67152611D01*
X58982366Y-66961745D01*
X58853872Y-66791593D01*
X58815484Y-66756597D01*
X58696300Y-66647946D01*
X58696298Y-66647945D01*
X58515025Y-66535705D01*
X58515021Y-66535703D01*
X58515019Y-66535702D01*
X58316198Y-66458679D01*
X58129902Y-66423854D01*
X58066618Y-66391676D01*
X58030776Y-66330391D01*
X58033757Y-66259457D01*
X58074615Y-66201395D01*
X58129901Y-66176145D01*
X58316198Y-66141321D01*
X58515019Y-66064298D01*
X58696302Y-65952052D01*
X58853872Y-65808407D01*
X58982366Y-65638255D01*
X59077405Y-65447389D01*
X59135756Y-65242310D01*
X59155429Y-65030000D01*
X59135756Y-64817690D01*
X59077405Y-64612611D01*
X58982366Y-64421745D01*
X58853872Y-64251593D01*
X58819523Y-64220279D01*
X58696300Y-64107946D01*
X58696298Y-64107945D01*
X58515025Y-63995705D01*
X58515021Y-63995703D01*
X58515019Y-63995702D01*
X58316198Y-63918679D01*
X58129902Y-63883854D01*
X58066618Y-63851676D01*
X58030776Y-63790391D01*
X58033757Y-63719457D01*
X58074615Y-63661395D01*
X58129901Y-63636145D01*
X58316198Y-63601321D01*
X58451234Y-63549007D01*
X58496750Y-63540500D01*
X65503250Y-63540500D01*
X65548765Y-63549007D01*
X65683802Y-63601321D01*
X65870097Y-63636145D01*
X65933381Y-63668324D01*
X65969223Y-63729609D01*
X65966242Y-63800543D01*
X65925384Y-63858605D01*
X65870098Y-63883854D01*
X65757350Y-63904930D01*
X65683800Y-63918679D01*
X65529754Y-63978356D01*
X65484981Y-63995702D01*
X65484980Y-63995702D01*
X65484979Y-63995703D01*
X65484974Y-63995705D01*
X65303701Y-64107945D01*
X65303699Y-64107946D01*
X65146129Y-64251591D01*
X65107641Y-64302557D01*
X65017634Y-64421745D01*
X65005290Y-64446536D01*
X64922593Y-64612615D01*
X64864244Y-64817688D01*
X64844571Y-65030000D01*
X64864244Y-65242311D01*
X64922593Y-65447384D01*
X64922594Y-65447386D01*
X64922595Y-65447389D01*
X65017634Y-65638255D01*
X65124466Y-65779722D01*
X65146129Y-65808408D01*
X65303699Y-65952053D01*
X65303701Y-65952054D01*
X65484974Y-66064294D01*
X65484975Y-66064294D01*
X65484981Y-66064298D01*
X65683802Y-66141321D01*
X65870097Y-66176145D01*
X65933381Y-66208324D01*
X65969223Y-66269609D01*
X65966242Y-66340543D01*
X65925384Y-66398605D01*
X65870098Y-66423854D01*
X65757350Y-66444930D01*
X65683800Y-66458679D01*
X65551321Y-66510002D01*
X65484981Y-66535702D01*
X65484980Y-66535702D01*
X65484979Y-66535703D01*
X65484974Y-66535705D01*
X65303701Y-66647945D01*
X65303699Y-66647946D01*
X65146129Y-66791591D01*
X65102400Y-66849498D01*
X65017634Y-66961745D01*
X64994699Y-67007805D01*
X64922593Y-67152615D01*
X64864244Y-67357688D01*
X64844571Y-67570000D01*
X64864244Y-67782311D01*
X64922593Y-67987384D01*
X64922594Y-67987386D01*
X64922595Y-67987389D01*
X65017634Y-68178255D01*
X65125105Y-68320568D01*
X65146129Y-68348408D01*
X65303699Y-68492053D01*
X65303701Y-68492054D01*
X65484974Y-68604294D01*
X65484975Y-68604294D01*
X65484981Y-68604298D01*
X65683802Y-68681321D01*
X65871456Y-68716399D01*
X65934741Y-68748578D01*
X65970583Y-68809863D01*
X65967602Y-68880797D01*
X65926744Y-68938859D01*
X65871456Y-68964109D01*
X65683932Y-68999163D01*
X65485211Y-69076149D01*
X65485204Y-69076152D01*
X65304001Y-69188347D01*
X65146500Y-69331929D01*
X65018060Y-69502010D01*
X64923063Y-69692792D01*
X64923061Y-69692797D01*
X64918166Y-69709999D01*
X64918167Y-69710000D01*
X65698103Y-69710000D01*
X65618239Y-69779202D01*
X65540507Y-69900156D01*
X65500000Y-70038111D01*
X65500000Y-70181889D01*
X65540507Y-70319844D01*
X65618239Y-70440798D01*
X65726900Y-70534952D01*
X65857685Y-70594680D01*
X65964237Y-70610000D01*
X66035763Y-70610000D01*
X66142315Y-70594680D01*
X66273100Y-70534952D01*
X66301897Y-70510000D01*
X66400000Y-70510000D01*
X66400000Y-71188318D01*
X66514794Y-71143847D01*
X66514795Y-71143847D01*
X66695998Y-71031652D01*
X66853499Y-70888070D01*
X66981939Y-70717989D01*
X67076936Y-70527207D01*
X67076938Y-70527202D01*
X67081833Y-70510000D01*
X72918167Y-70510000D01*
X72923061Y-70527202D01*
X72923063Y-70527207D01*
X73018060Y-70717989D01*
X73146500Y-70888070D01*
X73304001Y-71031652D01*
X73485205Y-71143847D01*
X73600000Y-71188318D01*
X73600000Y-70510000D01*
X72918167Y-70510000D01*
X67081833Y-70510000D01*
X66400000Y-70510000D01*
X66301897Y-70510000D01*
X66381761Y-70440798D01*
X66459493Y-70319844D01*
X66500000Y-70181889D01*
X66500000Y-70038111D01*
X66459493Y-69900156D01*
X66381761Y-69779202D01*
X66301897Y-69710000D01*
X67081833Y-69710000D01*
X67081833Y-69709999D01*
X67076938Y-69692797D01*
X67076936Y-69692792D01*
X66981939Y-69502010D01*
X66853499Y-69331929D01*
X66695998Y-69188347D01*
X66514795Y-69076152D01*
X66514788Y-69076149D01*
X66316067Y-68999163D01*
X66128543Y-68964109D01*
X66065258Y-68931930D01*
X66029416Y-68870645D01*
X66032397Y-68799711D01*
X66073255Y-68741649D01*
X66128541Y-68716400D01*
X66316198Y-68681321D01*
X66515019Y-68604298D01*
X66696302Y-68492052D01*
X66853872Y-68348407D01*
X66982366Y-68178255D01*
X67077405Y-67987389D01*
X67135756Y-67782310D01*
X67155429Y-67570000D01*
X67135756Y-67357690D01*
X67077405Y-67152611D01*
X66982366Y-66961745D01*
X66853872Y-66791593D01*
X66815484Y-66756597D01*
X66696300Y-66647946D01*
X66696298Y-66647945D01*
X66515025Y-66535705D01*
X66515021Y-66535703D01*
X66515019Y-66535702D01*
X66316198Y-66458679D01*
X66129902Y-66423854D01*
X66066618Y-66391676D01*
X66030776Y-66330391D01*
X66033757Y-66259457D01*
X66074615Y-66201395D01*
X66129901Y-66176145D01*
X66316198Y-66141321D01*
X66515019Y-66064298D01*
X66696302Y-65952052D01*
X66853872Y-65808407D01*
X66982366Y-65638255D01*
X67077405Y-65447389D01*
X67135756Y-65242310D01*
X67155429Y-65030000D01*
X67135756Y-64817690D01*
X67077405Y-64612611D01*
X66982366Y-64421745D01*
X66853872Y-64251593D01*
X66819523Y-64220279D01*
X66696300Y-64107946D01*
X66696298Y-64107945D01*
X66515025Y-63995705D01*
X66515021Y-63995703D01*
X66515019Y-63995702D01*
X66316198Y-63918679D01*
X66129902Y-63883854D01*
X66066618Y-63851676D01*
X66030776Y-63790391D01*
X66033757Y-63719457D01*
X66074615Y-63661395D01*
X66129901Y-63636145D01*
X66316198Y-63601321D01*
X66451234Y-63549007D01*
X66496750Y-63540500D01*
X73503250Y-63540500D01*
X73548765Y-63549007D01*
X73683802Y-63601321D01*
X73870097Y-63636145D01*
X73933381Y-63668324D01*
X73969223Y-63729609D01*
X73966242Y-63800543D01*
X73925384Y-63858605D01*
X73870098Y-63883854D01*
X73757350Y-63904930D01*
X73683800Y-63918679D01*
X73529754Y-63978356D01*
X73484981Y-63995702D01*
X73484980Y-63995702D01*
X73484979Y-63995703D01*
X73484974Y-63995705D01*
X73303701Y-64107945D01*
X73303699Y-64107946D01*
X73146129Y-64251591D01*
X73107641Y-64302557D01*
X73017634Y-64421745D01*
X73005290Y-64446536D01*
X72922593Y-64612615D01*
X72864244Y-64817688D01*
X72844571Y-65030000D01*
X72864244Y-65242311D01*
X72922593Y-65447384D01*
X72922594Y-65447386D01*
X72922595Y-65447389D01*
X73017634Y-65638255D01*
X73124466Y-65779722D01*
X73146129Y-65808408D01*
X73303699Y-65952053D01*
X73303701Y-65952054D01*
X73484974Y-66064294D01*
X73484975Y-66064294D01*
X73484981Y-66064298D01*
X73683802Y-66141321D01*
X73870097Y-66176145D01*
X73933381Y-66208324D01*
X73969223Y-66269609D01*
X73966242Y-66340543D01*
X73925384Y-66398605D01*
X73870098Y-66423854D01*
X73757350Y-66444930D01*
X73683800Y-66458679D01*
X73551321Y-66510002D01*
X73484981Y-66535702D01*
X73484980Y-66535702D01*
X73484979Y-66535703D01*
X73484974Y-66535705D01*
X73303701Y-66647945D01*
X73303699Y-66647946D01*
X73146129Y-66791591D01*
X73102400Y-66849498D01*
X73017634Y-66961745D01*
X72994699Y-67007805D01*
X72922593Y-67152615D01*
X72864244Y-67357688D01*
X72844571Y-67570000D01*
X72864244Y-67782311D01*
X72922593Y-67987384D01*
X72922594Y-67987386D01*
X72922595Y-67987389D01*
X73017634Y-68178255D01*
X73125105Y-68320568D01*
X73146129Y-68348408D01*
X73303699Y-68492053D01*
X73303701Y-68492054D01*
X73484974Y-68604294D01*
X73484975Y-68604294D01*
X73484981Y-68604298D01*
X73683802Y-68681321D01*
X73871456Y-68716399D01*
X73934741Y-68748578D01*
X73970583Y-68809863D01*
X73967602Y-68880797D01*
X73926744Y-68938859D01*
X73871456Y-68964109D01*
X73683932Y-68999163D01*
X73485211Y-69076149D01*
X73485204Y-69076152D01*
X73304001Y-69188347D01*
X73146500Y-69331929D01*
X73018060Y-69502010D01*
X72923063Y-69692792D01*
X72923061Y-69692797D01*
X72918166Y-69709999D01*
X72918167Y-69710000D01*
X73698103Y-69710000D01*
X73618239Y-69779202D01*
X73540507Y-69900156D01*
X73500000Y-70038111D01*
X73500000Y-70181889D01*
X73540507Y-70319844D01*
X73618239Y-70440798D01*
X73726900Y-70534952D01*
X73857685Y-70594680D01*
X73964237Y-70610000D01*
X74035763Y-70610000D01*
X74142315Y-70594680D01*
X74273100Y-70534952D01*
X74301897Y-70510000D01*
X74400000Y-70510000D01*
X74400000Y-71188318D01*
X74514794Y-71143847D01*
X74514795Y-71143847D01*
X74695998Y-71031652D01*
X74853499Y-70888070D01*
X74981939Y-70717989D01*
X75076936Y-70527207D01*
X75076938Y-70527202D01*
X75081833Y-70510000D01*
X80918167Y-70510000D01*
X80923061Y-70527202D01*
X80923063Y-70527207D01*
X81018060Y-70717989D01*
X81146500Y-70888070D01*
X81304001Y-71031652D01*
X81485205Y-71143847D01*
X81600000Y-71188318D01*
X81600000Y-70510000D01*
X80918167Y-70510000D01*
X75081833Y-70510000D01*
X74400000Y-70510000D01*
X74301897Y-70510000D01*
X74381761Y-70440798D01*
X74459493Y-70319844D01*
X74500000Y-70181889D01*
X74500000Y-70038111D01*
X74459493Y-69900156D01*
X74381761Y-69779202D01*
X74301897Y-69710000D01*
X75081833Y-69710000D01*
X75081833Y-69709999D01*
X75076938Y-69692797D01*
X75076936Y-69692792D01*
X74981939Y-69502010D01*
X74853499Y-69331929D01*
X74695998Y-69188347D01*
X74514795Y-69076152D01*
X74514788Y-69076149D01*
X74316067Y-68999163D01*
X74128543Y-68964109D01*
X74065258Y-68931930D01*
X74029416Y-68870645D01*
X74032397Y-68799711D01*
X74073255Y-68741649D01*
X74128541Y-68716400D01*
X74316198Y-68681321D01*
X74515019Y-68604298D01*
X74696302Y-68492052D01*
X74853872Y-68348407D01*
X74982366Y-68178255D01*
X75077405Y-67987389D01*
X75135756Y-67782310D01*
X75155429Y-67570000D01*
X75135756Y-67357690D01*
X75077405Y-67152611D01*
X74982366Y-66961745D01*
X74853872Y-66791593D01*
X74815484Y-66756597D01*
X74696300Y-66647946D01*
X74696298Y-66647945D01*
X74515025Y-66535705D01*
X74515021Y-66535703D01*
X74515019Y-66535702D01*
X74316198Y-66458679D01*
X74129902Y-66423854D01*
X74066618Y-66391676D01*
X74030776Y-66330391D01*
X74033757Y-66259457D01*
X74074615Y-66201395D01*
X74129901Y-66176145D01*
X74316198Y-66141321D01*
X74515019Y-66064298D01*
X74696302Y-65952052D01*
X74853872Y-65808407D01*
X74982366Y-65638255D01*
X75077405Y-65447389D01*
X75135756Y-65242310D01*
X75155429Y-65030000D01*
X75135756Y-64817690D01*
X75077405Y-64612611D01*
X74982366Y-64421745D01*
X74853872Y-64251593D01*
X74819523Y-64220279D01*
X74696300Y-64107946D01*
X74696298Y-64107945D01*
X74515025Y-63995705D01*
X74515021Y-63995703D01*
X74515019Y-63995702D01*
X74316198Y-63918679D01*
X74129902Y-63883854D01*
X74066618Y-63851676D01*
X74030776Y-63790391D01*
X74033757Y-63719457D01*
X74074615Y-63661395D01*
X74129901Y-63636145D01*
X74316198Y-63601321D01*
X74451234Y-63549007D01*
X74496750Y-63540500D01*
X81503250Y-63540500D01*
X81548765Y-63549007D01*
X81683802Y-63601321D01*
X81870097Y-63636145D01*
X81933381Y-63668324D01*
X81969223Y-63729609D01*
X81966242Y-63800543D01*
X81925384Y-63858605D01*
X81870098Y-63883854D01*
X81757350Y-63904930D01*
X81683800Y-63918679D01*
X81529754Y-63978356D01*
X81484981Y-63995702D01*
X81484980Y-63995702D01*
X81484979Y-63995703D01*
X81484974Y-63995705D01*
X81303701Y-64107945D01*
X81303699Y-64107946D01*
X81146129Y-64251591D01*
X81107641Y-64302557D01*
X81017634Y-64421745D01*
X81005290Y-64446536D01*
X80922593Y-64612615D01*
X80864244Y-64817688D01*
X80844571Y-65030000D01*
X80864244Y-65242311D01*
X80922593Y-65447384D01*
X80922594Y-65447386D01*
X80922595Y-65447389D01*
X81017634Y-65638255D01*
X81124466Y-65779722D01*
X81146129Y-65808408D01*
X81303699Y-65952053D01*
X81303701Y-65952054D01*
X81484974Y-66064294D01*
X81484975Y-66064294D01*
X81484981Y-66064298D01*
X81683802Y-66141321D01*
X81870097Y-66176145D01*
X81933381Y-66208324D01*
X81969223Y-66269609D01*
X81966242Y-66340543D01*
X81925384Y-66398605D01*
X81870098Y-66423854D01*
X81757350Y-66444930D01*
X81683800Y-66458679D01*
X81551321Y-66510002D01*
X81484981Y-66535702D01*
X81484980Y-66535702D01*
X81484979Y-66535703D01*
X81484974Y-66535705D01*
X81303701Y-66647945D01*
X81303699Y-66647946D01*
X81146129Y-66791591D01*
X81102400Y-66849498D01*
X81017634Y-66961745D01*
X80994699Y-67007805D01*
X80922593Y-67152615D01*
X80864244Y-67357688D01*
X80844571Y-67570000D01*
X80864244Y-67782311D01*
X80922593Y-67987384D01*
X80922594Y-67987386D01*
X80922595Y-67987389D01*
X81017634Y-68178255D01*
X81125105Y-68320568D01*
X81146129Y-68348408D01*
X81303699Y-68492053D01*
X81303701Y-68492054D01*
X81484974Y-68604294D01*
X81484975Y-68604294D01*
X81484981Y-68604298D01*
X81683802Y-68681321D01*
X81871456Y-68716399D01*
X81934741Y-68748578D01*
X81970583Y-68809863D01*
X81967602Y-68880797D01*
X81926744Y-68938859D01*
X81871456Y-68964109D01*
X81683932Y-68999163D01*
X81485211Y-69076149D01*
X81485204Y-69076152D01*
X81304001Y-69188347D01*
X81146500Y-69331929D01*
X81018060Y-69502010D01*
X80923063Y-69692792D01*
X80923061Y-69692797D01*
X80918166Y-69709999D01*
X80918167Y-69710000D01*
X81698103Y-69710000D01*
X81618239Y-69779202D01*
X81540507Y-69900156D01*
X81500000Y-70038111D01*
X81500000Y-70181889D01*
X81540507Y-70319844D01*
X81618239Y-70440798D01*
X81726900Y-70534952D01*
X81857685Y-70594680D01*
X81964237Y-70610000D01*
X82035763Y-70610000D01*
X82142315Y-70594680D01*
X82273100Y-70534952D01*
X82301897Y-70510000D01*
X82400000Y-70510000D01*
X82400000Y-71188318D01*
X82514794Y-71143847D01*
X82514795Y-71143847D01*
X82695998Y-71031652D01*
X82853499Y-70888070D01*
X82981939Y-70717989D01*
X83076936Y-70527207D01*
X83076938Y-70527202D01*
X83081833Y-70510000D01*
X88918167Y-70510000D01*
X88923061Y-70527202D01*
X88923063Y-70527207D01*
X89018060Y-70717989D01*
X89146500Y-70888070D01*
X89304001Y-71031652D01*
X89485205Y-71143847D01*
X89600000Y-71188318D01*
X89600000Y-70510000D01*
X88918167Y-70510000D01*
X83081833Y-70510000D01*
X82400000Y-70510000D01*
X82301897Y-70510000D01*
X82381761Y-70440798D01*
X82459493Y-70319844D01*
X82500000Y-70181889D01*
X82500000Y-70038111D01*
X82459493Y-69900156D01*
X82381761Y-69779202D01*
X82301897Y-69710000D01*
X83081833Y-69710000D01*
X83081833Y-69709999D01*
X83076938Y-69692797D01*
X83076936Y-69692792D01*
X82981939Y-69502010D01*
X82853499Y-69331929D01*
X82695998Y-69188347D01*
X82514795Y-69076152D01*
X82514788Y-69076149D01*
X82316067Y-68999163D01*
X82128543Y-68964109D01*
X82065258Y-68931930D01*
X82029416Y-68870645D01*
X82032397Y-68799711D01*
X82073255Y-68741649D01*
X82128541Y-68716400D01*
X82316198Y-68681321D01*
X82515019Y-68604298D01*
X82696302Y-68492052D01*
X82853872Y-68348407D01*
X82982366Y-68178255D01*
X83077405Y-67987389D01*
X83135756Y-67782310D01*
X83155429Y-67570000D01*
X83135756Y-67357690D01*
X83077405Y-67152611D01*
X82982366Y-66961745D01*
X82853872Y-66791593D01*
X82815484Y-66756597D01*
X82696300Y-66647946D01*
X82696298Y-66647945D01*
X82515025Y-66535705D01*
X82515021Y-66535703D01*
X82515019Y-66535702D01*
X82316198Y-66458679D01*
X82129902Y-66423854D01*
X82066618Y-66391676D01*
X82030776Y-66330391D01*
X82033757Y-66259457D01*
X82074615Y-66201395D01*
X82129901Y-66176145D01*
X82316198Y-66141321D01*
X82515019Y-66064298D01*
X82696302Y-65952052D01*
X82853872Y-65808407D01*
X82982366Y-65638255D01*
X83077405Y-65447389D01*
X83135756Y-65242310D01*
X83155429Y-65030000D01*
X83135756Y-64817690D01*
X83077405Y-64612611D01*
X82982366Y-64421745D01*
X82853872Y-64251593D01*
X82819523Y-64220279D01*
X82696300Y-64107946D01*
X82696298Y-64107945D01*
X82515025Y-63995705D01*
X82515021Y-63995703D01*
X82515019Y-63995702D01*
X82316198Y-63918679D01*
X82129902Y-63883854D01*
X82066618Y-63851676D01*
X82030776Y-63790391D01*
X82033757Y-63719457D01*
X82074615Y-63661395D01*
X82129901Y-63636145D01*
X82316198Y-63601321D01*
X82451234Y-63549007D01*
X82496750Y-63540500D01*
X89503250Y-63540500D01*
X89548765Y-63549007D01*
X89683802Y-63601321D01*
X89870097Y-63636145D01*
X89933381Y-63668324D01*
X89969223Y-63729609D01*
X89966242Y-63800543D01*
X89925384Y-63858605D01*
X89870098Y-63883854D01*
X89757350Y-63904930D01*
X89683800Y-63918679D01*
X89529754Y-63978356D01*
X89484981Y-63995702D01*
X89484980Y-63995702D01*
X89484979Y-63995703D01*
X89484974Y-63995705D01*
X89303701Y-64107945D01*
X89303699Y-64107946D01*
X89146129Y-64251591D01*
X89107641Y-64302557D01*
X89017634Y-64421745D01*
X89005290Y-64446536D01*
X88922593Y-64612615D01*
X88864244Y-64817688D01*
X88844571Y-65030000D01*
X88864244Y-65242311D01*
X88922593Y-65447384D01*
X88922594Y-65447386D01*
X88922595Y-65447389D01*
X89017634Y-65638255D01*
X89124466Y-65779722D01*
X89146129Y-65808408D01*
X89303699Y-65952053D01*
X89303701Y-65952054D01*
X89484974Y-66064294D01*
X89484975Y-66064294D01*
X89484981Y-66064298D01*
X89683802Y-66141321D01*
X89870097Y-66176145D01*
X89933381Y-66208324D01*
X89969223Y-66269609D01*
X89966242Y-66340543D01*
X89925384Y-66398605D01*
X89870098Y-66423854D01*
X89757350Y-66444930D01*
X89683800Y-66458679D01*
X89551321Y-66510002D01*
X89484981Y-66535702D01*
X89484980Y-66535702D01*
X89484979Y-66535703D01*
X89484974Y-66535705D01*
X89303701Y-66647945D01*
X89303699Y-66647946D01*
X89146129Y-66791591D01*
X89102400Y-66849498D01*
X89017634Y-66961745D01*
X88994699Y-67007805D01*
X88922593Y-67152615D01*
X88864244Y-67357688D01*
X88844571Y-67569999D01*
X88864244Y-67782311D01*
X88922593Y-67987384D01*
X88922594Y-67987386D01*
X88922595Y-67987389D01*
X89017634Y-68178255D01*
X89125105Y-68320568D01*
X89146129Y-68348408D01*
X89303699Y-68492053D01*
X89303701Y-68492054D01*
X89484974Y-68604294D01*
X89484975Y-68604294D01*
X89484981Y-68604298D01*
X89683802Y-68681321D01*
X89871456Y-68716399D01*
X89934741Y-68748578D01*
X89970583Y-68809863D01*
X89967602Y-68880797D01*
X89926744Y-68938859D01*
X89871456Y-68964109D01*
X89683932Y-68999163D01*
X89485211Y-69076149D01*
X89485204Y-69076152D01*
X89304001Y-69188347D01*
X89146500Y-69331929D01*
X89018060Y-69502010D01*
X88923063Y-69692792D01*
X88923061Y-69692797D01*
X88918166Y-69709999D01*
X88918167Y-69710000D01*
X89698103Y-69710000D01*
X89618239Y-69779202D01*
X89540507Y-69900156D01*
X89500000Y-70038111D01*
X89500000Y-70181889D01*
X89540507Y-70319844D01*
X89618239Y-70440798D01*
X89726900Y-70534952D01*
X89857685Y-70594680D01*
X89964237Y-70610000D01*
X90035763Y-70610000D01*
X90142315Y-70594680D01*
X90273100Y-70534952D01*
X90301897Y-70510000D01*
X90400000Y-70510000D01*
X90400000Y-71188317D01*
X90514794Y-71143847D01*
X90514795Y-71143847D01*
X90695998Y-71031652D01*
X90853499Y-70888070D01*
X90981939Y-70717989D01*
X91076936Y-70527207D01*
X91076938Y-70527202D01*
X91081833Y-70510000D01*
X96918167Y-70510000D01*
X96923061Y-70527202D01*
X96923063Y-70527207D01*
X97018060Y-70717989D01*
X97146500Y-70888070D01*
X97304001Y-71031652D01*
X97485205Y-71143847D01*
X97600000Y-71188318D01*
X97600000Y-70510000D01*
X96918167Y-70510000D01*
X91081833Y-70510000D01*
X90400000Y-70510000D01*
X90301897Y-70510000D01*
X90381761Y-70440798D01*
X90459493Y-70319844D01*
X90500000Y-70181889D01*
X90500000Y-70038111D01*
X90459493Y-69900156D01*
X90381761Y-69779202D01*
X90301897Y-69710000D01*
X91081833Y-69710000D01*
X91081833Y-69709999D01*
X91076938Y-69692797D01*
X91076936Y-69692792D01*
X90981939Y-69502010D01*
X90853499Y-69331929D01*
X90695998Y-69188347D01*
X90514795Y-69076152D01*
X90514788Y-69076149D01*
X90316067Y-68999163D01*
X90128543Y-68964109D01*
X90065258Y-68931930D01*
X90029416Y-68870645D01*
X90032397Y-68799711D01*
X90073255Y-68741649D01*
X90128541Y-68716400D01*
X90316198Y-68681321D01*
X90515019Y-68604298D01*
X90696302Y-68492052D01*
X90853872Y-68348407D01*
X90982366Y-68178255D01*
X91077405Y-67987389D01*
X91135756Y-67782310D01*
X91155429Y-67570000D01*
X91135756Y-67357690D01*
X91077405Y-67152611D01*
X90982366Y-66961745D01*
X90853872Y-66791593D01*
X90815484Y-66756597D01*
X90696300Y-66647946D01*
X90696298Y-66647945D01*
X90515025Y-66535705D01*
X90515021Y-66535703D01*
X90515019Y-66535702D01*
X90316198Y-66458679D01*
X90129902Y-66423854D01*
X90066618Y-66391676D01*
X90030776Y-66330391D01*
X90033757Y-66259457D01*
X90074615Y-66201395D01*
X90129901Y-66176145D01*
X90316198Y-66141321D01*
X90515019Y-66064298D01*
X90696302Y-65952052D01*
X90853872Y-65808407D01*
X90982366Y-65638255D01*
X91077405Y-65447389D01*
X91135756Y-65242310D01*
X91155429Y-65030000D01*
X91135756Y-64817690D01*
X91077405Y-64612611D01*
X90982366Y-64421745D01*
X90853872Y-64251593D01*
X90819523Y-64220279D01*
X90696300Y-64107946D01*
X90696298Y-64107945D01*
X90515025Y-63995705D01*
X90515021Y-63995703D01*
X90515019Y-63995702D01*
X90316198Y-63918679D01*
X90129902Y-63883854D01*
X90066618Y-63851676D01*
X90030776Y-63790391D01*
X90033757Y-63719457D01*
X90074615Y-63661395D01*
X90129901Y-63636145D01*
X90316198Y-63601321D01*
X90451234Y-63549007D01*
X90496750Y-63540500D01*
X97503250Y-63540500D01*
X97548765Y-63549007D01*
X97683802Y-63601321D01*
X97870097Y-63636145D01*
X97933381Y-63668324D01*
X97969223Y-63729609D01*
X97966242Y-63800543D01*
X97925384Y-63858605D01*
X97870098Y-63883854D01*
X97757350Y-63904930D01*
X97683800Y-63918679D01*
X97529754Y-63978356D01*
X97484981Y-63995702D01*
X97484980Y-63995702D01*
X97484979Y-63995703D01*
X97484974Y-63995705D01*
X97303701Y-64107945D01*
X97303699Y-64107946D01*
X97146129Y-64251591D01*
X97107641Y-64302557D01*
X97017634Y-64421745D01*
X97005290Y-64446536D01*
X96922593Y-64612615D01*
X96864244Y-64817688D01*
X96844571Y-65029999D01*
X96864244Y-65242311D01*
X96922593Y-65447384D01*
X96922594Y-65447386D01*
X96922595Y-65447389D01*
X97017634Y-65638255D01*
X97124466Y-65779722D01*
X97146129Y-65808408D01*
X97303699Y-65952053D01*
X97303701Y-65952054D01*
X97484974Y-66064294D01*
X97484975Y-66064294D01*
X97484981Y-66064298D01*
X97683802Y-66141321D01*
X97870097Y-66176145D01*
X97933381Y-66208324D01*
X97969223Y-66269609D01*
X97966242Y-66340543D01*
X97925384Y-66398605D01*
X97870098Y-66423854D01*
X97757350Y-66444930D01*
X97683800Y-66458679D01*
X97551321Y-66510002D01*
X97484981Y-66535702D01*
X97484980Y-66535702D01*
X97484979Y-66535703D01*
X97484974Y-66535705D01*
X97303701Y-66647945D01*
X97303699Y-66647946D01*
X97146129Y-66791591D01*
X97102400Y-66849498D01*
X97017634Y-66961745D01*
X96994699Y-67007805D01*
X96922593Y-67152615D01*
X96864244Y-67357688D01*
X96844571Y-67570000D01*
X96864244Y-67782311D01*
X96922593Y-67987384D01*
X96922594Y-67987386D01*
X96922595Y-67987389D01*
X97017634Y-68178255D01*
X97125105Y-68320568D01*
X97146129Y-68348408D01*
X97303699Y-68492053D01*
X97303701Y-68492054D01*
X97484974Y-68604294D01*
X97484975Y-68604294D01*
X97484981Y-68604298D01*
X97683802Y-68681321D01*
X97871456Y-68716399D01*
X97934741Y-68748578D01*
X97970583Y-68809863D01*
X97967602Y-68880797D01*
X97926744Y-68938859D01*
X97871456Y-68964109D01*
X97683932Y-68999163D01*
X97485211Y-69076149D01*
X97485204Y-69076152D01*
X97304001Y-69188347D01*
X97146500Y-69331929D01*
X97018060Y-69502010D01*
X96923063Y-69692792D01*
X96923061Y-69692797D01*
X96918166Y-69709999D01*
X96918167Y-69710000D01*
X97698103Y-69710000D01*
X97618239Y-69779202D01*
X97540507Y-69900156D01*
X97500000Y-70038111D01*
X97500000Y-70181889D01*
X97540507Y-70319844D01*
X97618239Y-70440798D01*
X97726900Y-70534952D01*
X97857685Y-70594680D01*
X97964237Y-70610000D01*
X98035763Y-70610000D01*
X98142315Y-70594680D01*
X98273100Y-70534952D01*
X98301897Y-70510000D01*
X98400000Y-70510000D01*
X98400000Y-71188318D01*
X98514794Y-71143847D01*
X98514795Y-71143847D01*
X98695998Y-71031652D01*
X98853499Y-70888070D01*
X98981939Y-70717989D01*
X99076936Y-70527207D01*
X99076938Y-70527202D01*
X99081833Y-70510000D01*
X104918167Y-70510000D01*
X104923061Y-70527202D01*
X104923063Y-70527207D01*
X105018060Y-70717989D01*
X105146500Y-70888070D01*
X105304001Y-71031652D01*
X105485205Y-71143847D01*
X105600000Y-71188318D01*
X105600000Y-70510000D01*
X104918167Y-70510000D01*
X99081833Y-70510000D01*
X98400000Y-70510000D01*
X98301897Y-70510000D01*
X98381761Y-70440798D01*
X98459493Y-70319844D01*
X98500000Y-70181889D01*
X98500000Y-70038111D01*
X98459493Y-69900156D01*
X98381761Y-69779202D01*
X98301897Y-69710000D01*
X99081833Y-69710000D01*
X99081833Y-69709999D01*
X99076938Y-69692797D01*
X99076936Y-69692792D01*
X98981939Y-69502010D01*
X98853499Y-69331929D01*
X98695998Y-69188347D01*
X98514795Y-69076152D01*
X98514788Y-69076149D01*
X98316067Y-68999163D01*
X98128543Y-68964109D01*
X98065258Y-68931930D01*
X98029416Y-68870645D01*
X98032397Y-68799711D01*
X98073255Y-68741649D01*
X98128541Y-68716400D01*
X98316198Y-68681321D01*
X98515019Y-68604298D01*
X98696302Y-68492052D01*
X98853872Y-68348407D01*
X98982366Y-68178255D01*
X99077405Y-67987389D01*
X99135756Y-67782310D01*
X99155429Y-67570000D01*
X99135756Y-67357690D01*
X99077405Y-67152611D01*
X98982366Y-66961745D01*
X98853872Y-66791593D01*
X98815484Y-66756597D01*
X98696300Y-66647946D01*
X98696298Y-66647945D01*
X98515025Y-66535705D01*
X98515021Y-66535703D01*
X98515019Y-66535702D01*
X98316198Y-66458679D01*
X98129902Y-66423854D01*
X98066618Y-66391676D01*
X98030776Y-66330391D01*
X98033757Y-66259457D01*
X98074615Y-66201395D01*
X98129901Y-66176145D01*
X98316198Y-66141321D01*
X98515019Y-66064298D01*
X98696302Y-65952052D01*
X98853872Y-65808407D01*
X98982366Y-65638255D01*
X99077405Y-65447389D01*
X99135756Y-65242310D01*
X99155429Y-65030000D01*
X99135756Y-64817690D01*
X99077405Y-64612611D01*
X98982366Y-64421745D01*
X98853872Y-64251593D01*
X98819523Y-64220279D01*
X98696300Y-64107946D01*
X98696298Y-64107945D01*
X98515025Y-63995705D01*
X98515021Y-63995703D01*
X98515019Y-63995702D01*
X98316198Y-63918679D01*
X98129902Y-63883854D01*
X98066618Y-63851676D01*
X98030776Y-63790391D01*
X98033757Y-63719457D01*
X98074615Y-63661395D01*
X98129901Y-63636145D01*
X98316198Y-63601321D01*
X98451234Y-63549007D01*
X98496750Y-63540500D01*
X105503250Y-63540500D01*
X105548765Y-63549007D01*
X105683802Y-63601321D01*
X105870097Y-63636145D01*
X105933381Y-63668324D01*
X105969223Y-63729609D01*
X105966242Y-63800543D01*
X105925384Y-63858605D01*
X105870098Y-63883854D01*
X105757350Y-63904930D01*
X105683800Y-63918679D01*
X105529754Y-63978356D01*
X105484981Y-63995702D01*
X105484980Y-63995702D01*
X105484979Y-63995703D01*
X105484974Y-63995705D01*
X105303701Y-64107945D01*
X105303699Y-64107946D01*
X105146129Y-64251591D01*
X105107641Y-64302557D01*
X105017634Y-64421745D01*
X105005290Y-64446536D01*
X104922593Y-64612615D01*
X104864244Y-64817688D01*
X104844571Y-65029999D01*
X104864244Y-65242311D01*
X104922593Y-65447384D01*
X104922594Y-65447386D01*
X104922595Y-65447389D01*
X105017634Y-65638255D01*
X105124466Y-65779722D01*
X105146129Y-65808408D01*
X105303699Y-65952053D01*
X105303701Y-65952054D01*
X105484974Y-66064294D01*
X105484975Y-66064294D01*
X105484981Y-66064298D01*
X105683802Y-66141321D01*
X105870097Y-66176145D01*
X105933381Y-66208324D01*
X105969223Y-66269609D01*
X105966242Y-66340543D01*
X105925384Y-66398605D01*
X105870098Y-66423854D01*
X105757350Y-66444930D01*
X105683800Y-66458679D01*
X105551321Y-66510002D01*
X105484981Y-66535702D01*
X105484980Y-66535702D01*
X105484979Y-66535703D01*
X105484974Y-66535705D01*
X105303701Y-66647945D01*
X105303699Y-66647946D01*
X105146129Y-66791591D01*
X105102400Y-66849498D01*
X105017634Y-66961745D01*
X104994699Y-67007805D01*
X104922593Y-67152615D01*
X104864244Y-67357688D01*
X104844571Y-67569999D01*
X104864244Y-67782311D01*
X104922593Y-67987384D01*
X104922594Y-67987386D01*
X104922595Y-67987389D01*
X105017634Y-68178255D01*
X105125105Y-68320568D01*
X105146129Y-68348408D01*
X105303699Y-68492053D01*
X105303701Y-68492054D01*
X105484974Y-68604294D01*
X105484975Y-68604294D01*
X105484981Y-68604298D01*
X105683802Y-68681321D01*
X105871456Y-68716399D01*
X105934741Y-68748578D01*
X105970583Y-68809863D01*
X105967602Y-68880797D01*
X105926744Y-68938859D01*
X105871456Y-68964109D01*
X105683932Y-68999163D01*
X105485211Y-69076149D01*
X105485204Y-69076152D01*
X105304001Y-69188347D01*
X105146500Y-69331929D01*
X105018060Y-69502010D01*
X104923063Y-69692792D01*
X104923061Y-69692797D01*
X104918166Y-69709999D01*
X104918167Y-69710000D01*
X105698103Y-69710000D01*
X105618239Y-69779202D01*
X105540507Y-69900156D01*
X105500000Y-70038111D01*
X105500000Y-70181889D01*
X105540507Y-70319844D01*
X105618239Y-70440798D01*
X105726900Y-70534952D01*
X105857685Y-70594680D01*
X105964237Y-70610000D01*
X106035763Y-70610000D01*
X106142315Y-70594680D01*
X106273100Y-70534952D01*
X106301897Y-70510000D01*
X106400000Y-70510000D01*
X106400000Y-71188318D01*
X106514794Y-71143847D01*
X106514795Y-71143847D01*
X106695998Y-71031652D01*
X106853499Y-70888070D01*
X106981939Y-70717989D01*
X107076936Y-70527207D01*
X107076938Y-70527202D01*
X107081833Y-70510000D01*
X112918167Y-70510000D01*
X112923061Y-70527202D01*
X112923063Y-70527207D01*
X113018060Y-70717989D01*
X113146500Y-70888070D01*
X113304001Y-71031652D01*
X113485205Y-71143847D01*
X113600000Y-71188318D01*
X113600000Y-70510000D01*
X112918167Y-70510000D01*
X107081833Y-70510000D01*
X106400000Y-70510000D01*
X106301897Y-70510000D01*
X106381761Y-70440798D01*
X106459493Y-70319844D01*
X106500000Y-70181889D01*
X106500000Y-70038111D01*
X106459493Y-69900156D01*
X106381761Y-69779202D01*
X106301897Y-69710000D01*
X107081833Y-69710000D01*
X107081833Y-69709999D01*
X107076938Y-69692797D01*
X107076936Y-69692792D01*
X106981939Y-69502010D01*
X106853499Y-69331929D01*
X106695998Y-69188347D01*
X106514795Y-69076152D01*
X106514788Y-69076149D01*
X106316067Y-68999163D01*
X106128543Y-68964109D01*
X106065258Y-68931930D01*
X106029416Y-68870645D01*
X106032397Y-68799711D01*
X106073255Y-68741649D01*
X106128541Y-68716400D01*
X106316198Y-68681321D01*
X106515019Y-68604298D01*
X106696302Y-68492052D01*
X106853872Y-68348407D01*
X106982366Y-68178255D01*
X107077405Y-67987389D01*
X107135756Y-67782310D01*
X107155429Y-67570000D01*
X107135756Y-67357690D01*
X107077405Y-67152611D01*
X106982366Y-66961745D01*
X106853872Y-66791593D01*
X106815484Y-66756597D01*
X106696300Y-66647946D01*
X106696298Y-66647945D01*
X106515025Y-66535705D01*
X106515021Y-66535703D01*
X106515019Y-66535702D01*
X106316198Y-66458679D01*
X106129902Y-66423854D01*
X106066618Y-66391676D01*
X106030776Y-66330391D01*
X106033757Y-66259457D01*
X106074615Y-66201395D01*
X106129901Y-66176145D01*
X106316198Y-66141321D01*
X106515019Y-66064298D01*
X106696302Y-65952052D01*
X106853872Y-65808407D01*
X106982366Y-65638255D01*
X107077405Y-65447389D01*
X107135756Y-65242310D01*
X107155429Y-65030000D01*
X107135756Y-64817690D01*
X107077405Y-64612611D01*
X106982366Y-64421745D01*
X106853872Y-64251593D01*
X106819523Y-64220279D01*
X106696300Y-64107946D01*
X106696298Y-64107945D01*
X106515025Y-63995705D01*
X106515021Y-63995703D01*
X106515019Y-63995702D01*
X106316198Y-63918679D01*
X106129902Y-63883854D01*
X106066618Y-63851676D01*
X106030776Y-63790391D01*
X106033757Y-63719457D01*
X106074615Y-63661395D01*
X106129901Y-63636145D01*
X106316198Y-63601321D01*
X106451234Y-63549007D01*
X106496750Y-63540500D01*
X113503250Y-63540500D01*
X113548765Y-63549007D01*
X113683802Y-63601321D01*
X113870097Y-63636145D01*
X113933381Y-63668324D01*
X113969223Y-63729609D01*
X113966242Y-63800543D01*
X113925384Y-63858605D01*
X113870098Y-63883854D01*
X113757350Y-63904930D01*
X113683800Y-63918679D01*
X113529754Y-63978356D01*
X113484981Y-63995702D01*
X113484980Y-63995702D01*
X113484979Y-63995703D01*
X113484974Y-63995705D01*
X113303701Y-64107945D01*
X113303699Y-64107946D01*
X113146129Y-64251591D01*
X113107641Y-64302557D01*
X113017634Y-64421745D01*
X113005290Y-64446536D01*
X112922593Y-64612615D01*
X112864244Y-64817688D01*
X112844571Y-65029999D01*
X112864244Y-65242311D01*
X112922593Y-65447384D01*
X112922594Y-65447386D01*
X112922595Y-65447389D01*
X113017634Y-65638255D01*
X113124466Y-65779722D01*
X113146129Y-65808408D01*
X113303699Y-65952053D01*
X113303701Y-65952054D01*
X113484974Y-66064294D01*
X113484975Y-66064294D01*
X113484981Y-66064298D01*
X113683802Y-66141321D01*
X113870097Y-66176145D01*
X113933381Y-66208324D01*
X113969223Y-66269609D01*
X113966242Y-66340543D01*
X113925384Y-66398605D01*
X113870098Y-66423854D01*
X113757350Y-66444930D01*
X113683800Y-66458679D01*
X113551321Y-66510002D01*
X113484981Y-66535702D01*
X113484980Y-66535702D01*
X113484979Y-66535703D01*
X113484974Y-66535705D01*
X113303701Y-66647945D01*
X113303699Y-66647946D01*
X113146129Y-66791591D01*
X113102400Y-66849498D01*
X113017634Y-66961745D01*
X112994699Y-67007805D01*
X112922593Y-67152615D01*
X112864244Y-67357688D01*
X112844571Y-67569999D01*
X112864244Y-67782311D01*
X112922593Y-67987384D01*
X112922594Y-67987386D01*
X112922595Y-67987389D01*
X113017634Y-68178255D01*
X113125105Y-68320568D01*
X113146129Y-68348408D01*
X113303699Y-68492053D01*
X113303701Y-68492054D01*
X113484974Y-68604294D01*
X113484975Y-68604294D01*
X113484981Y-68604298D01*
X113683802Y-68681321D01*
X113871456Y-68716399D01*
X113934741Y-68748578D01*
X113970583Y-68809863D01*
X113967602Y-68880797D01*
X113926744Y-68938859D01*
X113871456Y-68964109D01*
X113683932Y-68999163D01*
X113485211Y-69076149D01*
X113485204Y-69076152D01*
X113304001Y-69188347D01*
X113146500Y-69331929D01*
X113018060Y-69502010D01*
X112923063Y-69692792D01*
X112923061Y-69692797D01*
X112918166Y-69709999D01*
X112918167Y-69710000D01*
X113698103Y-69710000D01*
X113618239Y-69779202D01*
X113540507Y-69900156D01*
X113500000Y-70038111D01*
X113500000Y-70181889D01*
X113540507Y-70319844D01*
X113618239Y-70440798D01*
X113726900Y-70534952D01*
X113857685Y-70594680D01*
X113964237Y-70610000D01*
X114035763Y-70610000D01*
X114142315Y-70594680D01*
X114273100Y-70534952D01*
X114301897Y-70510000D01*
X114400000Y-70510000D01*
X114400000Y-71188318D01*
X114514794Y-71143847D01*
X114514795Y-71143847D01*
X114695998Y-71031652D01*
X114853499Y-70888070D01*
X114981939Y-70717989D01*
X115076936Y-70527207D01*
X115076938Y-70527202D01*
X115081833Y-70510000D01*
X120918167Y-70510000D01*
X120923061Y-70527202D01*
X120923063Y-70527207D01*
X121018060Y-70717989D01*
X121146500Y-70888070D01*
X121304001Y-71031652D01*
X121485205Y-71143847D01*
X121600000Y-71188318D01*
X121600000Y-70510000D01*
X120918167Y-70510000D01*
X115081833Y-70510000D01*
X114400000Y-70510000D01*
X114301897Y-70510000D01*
X114381761Y-70440798D01*
X114459493Y-70319844D01*
X114500000Y-70181889D01*
X114500000Y-70038111D01*
X114459493Y-69900156D01*
X114381761Y-69779202D01*
X114301897Y-69710000D01*
X115081833Y-69710000D01*
X115081833Y-69709999D01*
X115076938Y-69692797D01*
X115076936Y-69692792D01*
X114981939Y-69502010D01*
X114853499Y-69331929D01*
X114695998Y-69188347D01*
X114514795Y-69076152D01*
X114514788Y-69076149D01*
X114316067Y-68999163D01*
X114128543Y-68964109D01*
X114065258Y-68931930D01*
X114029416Y-68870645D01*
X114032397Y-68799711D01*
X114073255Y-68741649D01*
X114128541Y-68716400D01*
X114316198Y-68681321D01*
X114515019Y-68604298D01*
X114696302Y-68492052D01*
X114853872Y-68348407D01*
X114982366Y-68178255D01*
X115077405Y-67987389D01*
X115135756Y-67782310D01*
X115155429Y-67570000D01*
X115135756Y-67357690D01*
X115077405Y-67152611D01*
X114982366Y-66961745D01*
X114853872Y-66791593D01*
X114815484Y-66756597D01*
X114696300Y-66647946D01*
X114696298Y-66647945D01*
X114515025Y-66535705D01*
X114515021Y-66535703D01*
X114515019Y-66535702D01*
X114316198Y-66458679D01*
X114129902Y-66423854D01*
X114066618Y-66391676D01*
X114030776Y-66330391D01*
X114033757Y-66259457D01*
X114074615Y-66201395D01*
X114129901Y-66176145D01*
X114316198Y-66141321D01*
X114515019Y-66064298D01*
X114696302Y-65952052D01*
X114853872Y-65808407D01*
X114982366Y-65638255D01*
X115077405Y-65447389D01*
X115135756Y-65242310D01*
X115155429Y-65030000D01*
X115135756Y-64817690D01*
X115077405Y-64612611D01*
X114982366Y-64421745D01*
X114853872Y-64251593D01*
X114819523Y-64220279D01*
X114696300Y-64107946D01*
X114696298Y-64107945D01*
X114515025Y-63995705D01*
X114515021Y-63995703D01*
X114515019Y-63995702D01*
X114316198Y-63918679D01*
X114129902Y-63883854D01*
X114066618Y-63851676D01*
X114030776Y-63790391D01*
X114033757Y-63719457D01*
X114074615Y-63661395D01*
X114129901Y-63636145D01*
X114316198Y-63601321D01*
X114451234Y-63549007D01*
X114496750Y-63540500D01*
X121503250Y-63540500D01*
X121548765Y-63549007D01*
X121683802Y-63601321D01*
X121870097Y-63636145D01*
X121933381Y-63668324D01*
X121969223Y-63729609D01*
X121966242Y-63800543D01*
X121925384Y-63858605D01*
X121870098Y-63883854D01*
X121757350Y-63904930D01*
X121683800Y-63918679D01*
X121529754Y-63978356D01*
X121484981Y-63995702D01*
X121484980Y-63995702D01*
X121484979Y-63995703D01*
X121484974Y-63995705D01*
X121303701Y-64107945D01*
X121303699Y-64107946D01*
X121146129Y-64251591D01*
X121107641Y-64302557D01*
X121017634Y-64421745D01*
X121005290Y-64446536D01*
X120922593Y-64612615D01*
X120864244Y-64817688D01*
X120844571Y-65029999D01*
X120864244Y-65242311D01*
X120922593Y-65447384D01*
X120922594Y-65447386D01*
X120922595Y-65447389D01*
X121017634Y-65638255D01*
X121124466Y-65779722D01*
X121146129Y-65808408D01*
X121303699Y-65952053D01*
X121303701Y-65952054D01*
X121484974Y-66064294D01*
X121484975Y-66064294D01*
X121484981Y-66064298D01*
X121683802Y-66141321D01*
X121870097Y-66176145D01*
X121933381Y-66208324D01*
X121969223Y-66269609D01*
X121966242Y-66340543D01*
X121925384Y-66398605D01*
X121870098Y-66423854D01*
X121757350Y-66444930D01*
X121683800Y-66458679D01*
X121551321Y-66510002D01*
X121484981Y-66535702D01*
X121484980Y-66535702D01*
X121484979Y-66535703D01*
X121484974Y-66535705D01*
X121303701Y-66647945D01*
X121303699Y-66647946D01*
X121146129Y-66791591D01*
X121102400Y-66849498D01*
X121017634Y-66961745D01*
X120994699Y-67007805D01*
X120922593Y-67152615D01*
X120864244Y-67357688D01*
X120844571Y-67569999D01*
X120864244Y-67782311D01*
X120922593Y-67987384D01*
X120922594Y-67987386D01*
X120922595Y-67987389D01*
X121017634Y-68178255D01*
X121125105Y-68320568D01*
X121146129Y-68348408D01*
X121303699Y-68492053D01*
X121303701Y-68492054D01*
X121484974Y-68604294D01*
X121484975Y-68604294D01*
X121484981Y-68604298D01*
X121683802Y-68681321D01*
X121871456Y-68716399D01*
X121934741Y-68748578D01*
X121970583Y-68809863D01*
X121967602Y-68880797D01*
X121926744Y-68938859D01*
X121871456Y-68964109D01*
X121683932Y-68999163D01*
X121485211Y-69076149D01*
X121485204Y-69076152D01*
X121304001Y-69188347D01*
X121146500Y-69331929D01*
X121018060Y-69502010D01*
X120923063Y-69692792D01*
X120923061Y-69692797D01*
X120918166Y-69709999D01*
X120918167Y-69710000D01*
X121698103Y-69710000D01*
X121618239Y-69779202D01*
X121540507Y-69900156D01*
X121500000Y-70038111D01*
X121500000Y-70181889D01*
X121540507Y-70319844D01*
X121618239Y-70440798D01*
X121726900Y-70534952D01*
X121857685Y-70594680D01*
X121964237Y-70610000D01*
X122035763Y-70610000D01*
X122142315Y-70594680D01*
X122273100Y-70534952D01*
X122301897Y-70510000D01*
X122400000Y-70510000D01*
X122400000Y-71188317D01*
X122514794Y-71143847D01*
X122514795Y-71143847D01*
X122695998Y-71031652D01*
X122853499Y-70888070D01*
X122981939Y-70717989D01*
X123076936Y-70527207D01*
X123076938Y-70527202D01*
X123081833Y-70510000D01*
X122400000Y-70510000D01*
X122301897Y-70510000D01*
X122381761Y-70440798D01*
X122459493Y-70319844D01*
X122500000Y-70181889D01*
X122500000Y-70038111D01*
X122459493Y-69900156D01*
X122381761Y-69779202D01*
X122301897Y-69710000D01*
X123081833Y-69710000D01*
X123081833Y-69709999D01*
X123076938Y-69692797D01*
X123076936Y-69692792D01*
X122981939Y-69502010D01*
X122853499Y-69331929D01*
X122695998Y-69188347D01*
X122514795Y-69076152D01*
X122514788Y-69076149D01*
X122316067Y-68999163D01*
X122128543Y-68964109D01*
X122065258Y-68931930D01*
X122029416Y-68870645D01*
X122032397Y-68799711D01*
X122073255Y-68741649D01*
X122128541Y-68716400D01*
X122316198Y-68681321D01*
X122515019Y-68604298D01*
X122696302Y-68492052D01*
X122853872Y-68348407D01*
X122982366Y-68178255D01*
X123077405Y-67987389D01*
X123135756Y-67782310D01*
X123155429Y-67570000D01*
X123135756Y-67357690D01*
X123077405Y-67152611D01*
X122982366Y-66961745D01*
X122853872Y-66791593D01*
X122815484Y-66756597D01*
X122696300Y-66647946D01*
X122696298Y-66647945D01*
X122515025Y-66535705D01*
X122515021Y-66535703D01*
X122515019Y-66535702D01*
X122316198Y-66458679D01*
X122129902Y-66423854D01*
X122066618Y-66391676D01*
X122030776Y-66330391D01*
X122033757Y-66259457D01*
X122074615Y-66201395D01*
X122129901Y-66176145D01*
X122316198Y-66141321D01*
X122515019Y-66064298D01*
X122696302Y-65952052D01*
X122853872Y-65808407D01*
X122982366Y-65638255D01*
X123077405Y-65447389D01*
X123135756Y-65242310D01*
X123155429Y-65030000D01*
X123135756Y-64817690D01*
X123077405Y-64612611D01*
X122982366Y-64421745D01*
X122853872Y-64251593D01*
X122819523Y-64220279D01*
X122696300Y-64107946D01*
X122696298Y-64107945D01*
X122515025Y-63995705D01*
X122515021Y-63995703D01*
X122515019Y-63995702D01*
X122316198Y-63918679D01*
X122129902Y-63883854D01*
X122066618Y-63851676D01*
X122030776Y-63790391D01*
X122033757Y-63719457D01*
X122074615Y-63661395D01*
X122129901Y-63636145D01*
X122316198Y-63601321D01*
X122515019Y-63524298D01*
X122696302Y-63412052D01*
X122853872Y-63268407D01*
X122982366Y-63098255D01*
X123077405Y-62907389D01*
X123135756Y-62702310D01*
X123155429Y-62490000D01*
X123135756Y-62277690D01*
X123077405Y-62072611D01*
X122982366Y-61881745D01*
X122853872Y-61711593D01*
X122815484Y-61676597D01*
X122696300Y-61567946D01*
X122696298Y-61567945D01*
X122515025Y-61455705D01*
X122515021Y-61455703D01*
X122515019Y-61455702D01*
X122377933Y-61402595D01*
X122316199Y-61378679D01*
X122254508Y-61367147D01*
X122164671Y-61350353D01*
X122101387Y-61318175D01*
X122065545Y-61256889D01*
X122068526Y-61185955D01*
X122109384Y-61127894D01*
X122175146Y-61101139D01*
X122187817Y-61100499D01*
X122894864Y-61100499D01*
X122919991Y-61097585D01*
X123022765Y-61052206D01*
X123102206Y-60972765D01*
X123147585Y-60869991D01*
X123150500Y-60844865D01*
X123150499Y-59055136D01*
X123147585Y-59030009D01*
X123131872Y-58994422D01*
X123102206Y-58927234D01*
X123022767Y-58847795D01*
X123022765Y-58847794D01*
X122919989Y-58802414D01*
X122919990Y-58802414D01*
X122894868Y-58799500D01*
X121105140Y-58799500D01*
X121105133Y-58799501D01*
X121080009Y-58802414D01*
X121080005Y-58802416D01*
X120977234Y-58847793D01*
X120897795Y-58927232D01*
X120897794Y-58927234D01*
X120852414Y-59030009D01*
X120849500Y-59055129D01*
X120849500Y-60844859D01*
X120849501Y-60844866D01*
X120852414Y-60869990D01*
X120852416Y-60869994D01*
X120897793Y-60972765D01*
X120977232Y-61052204D01*
X120977234Y-61052205D01*
X120977235Y-61052206D01*
X121080009Y-61097585D01*
X121105135Y-61100500D01*
X121812175Y-61100499D01*
X121880294Y-61120501D01*
X121926787Y-61174157D01*
X121936891Y-61244430D01*
X121907398Y-61309011D01*
X121847671Y-61347395D01*
X121835326Y-61350353D01*
X121683805Y-61378677D01*
X121548766Y-61430992D01*
X121503250Y-61439500D01*
X114496750Y-61439500D01*
X114451234Y-61430992D01*
X114316199Y-61378679D01*
X114254508Y-61367147D01*
X114164671Y-61350353D01*
X114101387Y-61318175D01*
X114065545Y-61256889D01*
X114068526Y-61185955D01*
X114109384Y-61127894D01*
X114175146Y-61101139D01*
X114187817Y-61100499D01*
X114894864Y-61100499D01*
X114919991Y-61097585D01*
X115022765Y-61052206D01*
X115102206Y-60972765D01*
X115147585Y-60869991D01*
X115150500Y-60844865D01*
X115150499Y-59055136D01*
X115147585Y-59030009D01*
X115131872Y-58994422D01*
X115102206Y-58927234D01*
X115022767Y-58847795D01*
X115022765Y-58847794D01*
X114919989Y-58802414D01*
X114919990Y-58802414D01*
X114894868Y-58799500D01*
X113105140Y-58799500D01*
X113105133Y-58799501D01*
X113080009Y-58802414D01*
X113080005Y-58802416D01*
X112977234Y-58847793D01*
X112897795Y-58927232D01*
X112897794Y-58927234D01*
X112852414Y-59030009D01*
X112849500Y-59055129D01*
X112849500Y-60844859D01*
X112849501Y-60844866D01*
X112852414Y-60869990D01*
X112852416Y-60869994D01*
X112897793Y-60972765D01*
X112977232Y-61052204D01*
X112977234Y-61052205D01*
X112977235Y-61052206D01*
X113080009Y-61097585D01*
X113105135Y-61100500D01*
X113812175Y-61100499D01*
X113880294Y-61120501D01*
X113926787Y-61174157D01*
X113936891Y-61244430D01*
X113907398Y-61309011D01*
X113847671Y-61347395D01*
X113835326Y-61350353D01*
X113683805Y-61378677D01*
X113548766Y-61430992D01*
X113503250Y-61439500D01*
X106496750Y-61439500D01*
X106451234Y-61430992D01*
X106316199Y-61378679D01*
X106254508Y-61367147D01*
X106164671Y-61350353D01*
X106101387Y-61318175D01*
X106065545Y-61256889D01*
X106068526Y-61185955D01*
X106109384Y-61127894D01*
X106175146Y-61101139D01*
X106187817Y-61100499D01*
X106894864Y-61100499D01*
X106919991Y-61097585D01*
X107022765Y-61052206D01*
X107102206Y-60972765D01*
X107147585Y-60869991D01*
X107150500Y-60844865D01*
X107150499Y-59055136D01*
X107147585Y-59030009D01*
X107131872Y-58994422D01*
X107102206Y-58927234D01*
X107022767Y-58847795D01*
X107022765Y-58847794D01*
X106919989Y-58802414D01*
X106919990Y-58802414D01*
X106894868Y-58799500D01*
X105105140Y-58799500D01*
X105105133Y-58799501D01*
X105080009Y-58802414D01*
X105080005Y-58802416D01*
X104977234Y-58847793D01*
X104897795Y-58927232D01*
X104897794Y-58927234D01*
X104852414Y-59030009D01*
X104849500Y-59055129D01*
X104849500Y-60844859D01*
X104849501Y-60844866D01*
X104852414Y-60869990D01*
X104852416Y-60869994D01*
X104897793Y-60972765D01*
X104977232Y-61052204D01*
X104977234Y-61052205D01*
X104977235Y-61052206D01*
X105080009Y-61097585D01*
X105105135Y-61100500D01*
X105812175Y-61100499D01*
X105880294Y-61120501D01*
X105926787Y-61174157D01*
X105936891Y-61244430D01*
X105907398Y-61309011D01*
X105847671Y-61347395D01*
X105835326Y-61350353D01*
X105683805Y-61378677D01*
X105548766Y-61430992D01*
X105503250Y-61439500D01*
X98496750Y-61439500D01*
X98451234Y-61430992D01*
X98316199Y-61378679D01*
X98254508Y-61367147D01*
X98164671Y-61350353D01*
X98101387Y-61318175D01*
X98065545Y-61256889D01*
X98068526Y-61185955D01*
X98109384Y-61127894D01*
X98175146Y-61101139D01*
X98187817Y-61100499D01*
X98894864Y-61100499D01*
X98919991Y-61097585D01*
X99022765Y-61052206D01*
X99102206Y-60972765D01*
X99147585Y-60869991D01*
X99150500Y-60844865D01*
X99150499Y-59055136D01*
X99147585Y-59030009D01*
X99131872Y-58994422D01*
X99102206Y-58927234D01*
X99022767Y-58847795D01*
X99022765Y-58847794D01*
X98919989Y-58802414D01*
X98919990Y-58802414D01*
X98894868Y-58799500D01*
X97105140Y-58799500D01*
X97105133Y-58799501D01*
X97080009Y-58802414D01*
X97080005Y-58802416D01*
X96977234Y-58847793D01*
X96897795Y-58927232D01*
X96897794Y-58927234D01*
X96852414Y-59030009D01*
X96849500Y-59055129D01*
X96849500Y-60844859D01*
X96849501Y-60844866D01*
X96852414Y-60869990D01*
X96852416Y-60869994D01*
X96897793Y-60972765D01*
X96977232Y-61052204D01*
X96977234Y-61052205D01*
X96977235Y-61052206D01*
X97080009Y-61097585D01*
X97105135Y-61100500D01*
X97812175Y-61100499D01*
X97880294Y-61120501D01*
X97926787Y-61174157D01*
X97936891Y-61244430D01*
X97907398Y-61309011D01*
X97847671Y-61347395D01*
X97835326Y-61350353D01*
X97683805Y-61378677D01*
X97548766Y-61430992D01*
X97503250Y-61439500D01*
X90496750Y-61439500D01*
X90451234Y-61430992D01*
X90316199Y-61378679D01*
X90254508Y-61367147D01*
X90164671Y-61350353D01*
X90101387Y-61318175D01*
X90065545Y-61256889D01*
X90068526Y-61185955D01*
X90109384Y-61127894D01*
X90175146Y-61101139D01*
X90187817Y-61100499D01*
X90894864Y-61100499D01*
X90919991Y-61097585D01*
X91022765Y-61052206D01*
X91102206Y-60972765D01*
X91147585Y-60869991D01*
X91150500Y-60844865D01*
X91150499Y-59055136D01*
X91147585Y-59030009D01*
X91131872Y-58994422D01*
X91102206Y-58927234D01*
X91022767Y-58847795D01*
X91022765Y-58847794D01*
X90919989Y-58802414D01*
X90919990Y-58802414D01*
X90894868Y-58799500D01*
X89105140Y-58799500D01*
X89105133Y-58799501D01*
X89080009Y-58802414D01*
X89080005Y-58802416D01*
X88977234Y-58847793D01*
X88897795Y-58927232D01*
X88897794Y-58927234D01*
X88852414Y-59030009D01*
X88849500Y-59055129D01*
X88849500Y-60844859D01*
X88849501Y-60844866D01*
X88852414Y-60869990D01*
X88852416Y-60869994D01*
X88897793Y-60972765D01*
X88977232Y-61052204D01*
X88977234Y-61052205D01*
X88977235Y-61052206D01*
X89080009Y-61097585D01*
X89105135Y-61100500D01*
X89812175Y-61100499D01*
X89880294Y-61120501D01*
X89926787Y-61174157D01*
X89936891Y-61244430D01*
X89907398Y-61309011D01*
X89847671Y-61347395D01*
X89835326Y-61350353D01*
X89683805Y-61378677D01*
X89548766Y-61430992D01*
X89503250Y-61439500D01*
X82496750Y-61439500D01*
X82451234Y-61430992D01*
X82316199Y-61378679D01*
X82254508Y-61367147D01*
X82164671Y-61350353D01*
X82101387Y-61318175D01*
X82065545Y-61256889D01*
X82068526Y-61185955D01*
X82109384Y-61127894D01*
X82175146Y-61101139D01*
X82187817Y-61100499D01*
X82894864Y-61100499D01*
X82919991Y-61097585D01*
X83022765Y-61052206D01*
X83102206Y-60972765D01*
X83147585Y-60869991D01*
X83150500Y-60844865D01*
X83150499Y-59055136D01*
X83147585Y-59030009D01*
X83131872Y-58994422D01*
X83102206Y-58927234D01*
X83022767Y-58847795D01*
X83022765Y-58847794D01*
X82919989Y-58802414D01*
X82919990Y-58802414D01*
X82894868Y-58799500D01*
X81105140Y-58799500D01*
X81105133Y-58799501D01*
X81080009Y-58802414D01*
X81080005Y-58802416D01*
X80977234Y-58847793D01*
X80897795Y-58927232D01*
X80897794Y-58927234D01*
X80852414Y-59030009D01*
X80849500Y-59055129D01*
X80849500Y-60844859D01*
X80849501Y-60844866D01*
X80852414Y-60869990D01*
X80852416Y-60869994D01*
X80897793Y-60972765D01*
X80977232Y-61052204D01*
X80977234Y-61052205D01*
X80977235Y-61052206D01*
X81080009Y-61097585D01*
X81105135Y-61100500D01*
X81812175Y-61100499D01*
X81880294Y-61120501D01*
X81926787Y-61174157D01*
X81936891Y-61244430D01*
X81907398Y-61309011D01*
X81847671Y-61347395D01*
X81835326Y-61350353D01*
X81683805Y-61378677D01*
X81548766Y-61430992D01*
X81503250Y-61439500D01*
X74496750Y-61439500D01*
X74451234Y-61430992D01*
X74316199Y-61378679D01*
X74254508Y-61367147D01*
X74164671Y-61350353D01*
X74101387Y-61318175D01*
X74065545Y-61256889D01*
X74068526Y-61185955D01*
X74109384Y-61127894D01*
X74175146Y-61101139D01*
X74187817Y-61100499D01*
X74894864Y-61100499D01*
X74919991Y-61097585D01*
X75022765Y-61052206D01*
X75102206Y-60972765D01*
X75147585Y-60869991D01*
X75150500Y-60844865D01*
X75150499Y-59055136D01*
X75147585Y-59030009D01*
X75131872Y-58994422D01*
X75102206Y-58927234D01*
X75022767Y-58847795D01*
X75022765Y-58847794D01*
X74919989Y-58802414D01*
X74919990Y-58802414D01*
X74894868Y-58799500D01*
X73105140Y-58799500D01*
X73105133Y-58799501D01*
X73080009Y-58802414D01*
X73080005Y-58802416D01*
X72977234Y-58847793D01*
X72897795Y-58927232D01*
X72897794Y-58927234D01*
X72852414Y-59030009D01*
X72849500Y-59055129D01*
X72849500Y-60844859D01*
X72849501Y-60844866D01*
X72852414Y-60869990D01*
X72852416Y-60869994D01*
X72897793Y-60972765D01*
X72977232Y-61052204D01*
X72977234Y-61052205D01*
X72977235Y-61052206D01*
X73080009Y-61097585D01*
X73105135Y-61100500D01*
X73812175Y-61100499D01*
X73880294Y-61120501D01*
X73926787Y-61174157D01*
X73936891Y-61244430D01*
X73907398Y-61309011D01*
X73847671Y-61347395D01*
X73835326Y-61350353D01*
X73683805Y-61378677D01*
X73548766Y-61430992D01*
X73503250Y-61439500D01*
X66496750Y-61439500D01*
X66451234Y-61430992D01*
X66316199Y-61378679D01*
X66254508Y-61367147D01*
X66164671Y-61350353D01*
X66101387Y-61318175D01*
X66065545Y-61256889D01*
X66068526Y-61185955D01*
X66109384Y-61127894D01*
X66175146Y-61101139D01*
X66187817Y-61100499D01*
X66894864Y-61100499D01*
X66919991Y-61097585D01*
X67022765Y-61052206D01*
X67102206Y-60972765D01*
X67147585Y-60869991D01*
X67150500Y-60844865D01*
X67150499Y-59055136D01*
X67147585Y-59030009D01*
X67131872Y-58994422D01*
X67102206Y-58927234D01*
X67022767Y-58847795D01*
X67022765Y-58847794D01*
X66919989Y-58802414D01*
X66919990Y-58802414D01*
X66894868Y-58799500D01*
X65105140Y-58799500D01*
X65105133Y-58799501D01*
X65080009Y-58802414D01*
X65080005Y-58802416D01*
X64977234Y-58847793D01*
X64897795Y-58927232D01*
X64897794Y-58927234D01*
X64852414Y-59030009D01*
X64849500Y-59055129D01*
X64849500Y-60844859D01*
X64849501Y-60844866D01*
X64852414Y-60869990D01*
X64852416Y-60869994D01*
X64897793Y-60972765D01*
X64977232Y-61052204D01*
X64977234Y-61052205D01*
X64977235Y-61052206D01*
X65080009Y-61097585D01*
X65105135Y-61100500D01*
X65812175Y-61100499D01*
X65880294Y-61120501D01*
X65926787Y-61174157D01*
X65936891Y-61244430D01*
X65907398Y-61309011D01*
X65847671Y-61347395D01*
X65835326Y-61350353D01*
X65683805Y-61378677D01*
X65548766Y-61430992D01*
X65503250Y-61439500D01*
X58496750Y-61439500D01*
X58451234Y-61430992D01*
X58316199Y-61378679D01*
X58254508Y-61367147D01*
X58164671Y-61350353D01*
X58101387Y-61318175D01*
X58065545Y-61256889D01*
X58068526Y-61185955D01*
X58109384Y-61127894D01*
X58175146Y-61101139D01*
X58187817Y-61100499D01*
X58894864Y-61100499D01*
X58919991Y-61097585D01*
X59022765Y-61052206D01*
X59102206Y-60972765D01*
X59147585Y-60869991D01*
X59150500Y-60844865D01*
X59150499Y-59055136D01*
X59147585Y-59030009D01*
X59131872Y-58994422D01*
X59102206Y-58927234D01*
X59022767Y-58847795D01*
X59022765Y-58847794D01*
X58919989Y-58802414D01*
X58919990Y-58802414D01*
X58894868Y-58799500D01*
X57105140Y-58799500D01*
X57105133Y-58799501D01*
X57080009Y-58802414D01*
X57080005Y-58802416D01*
X56977234Y-58847793D01*
X56897795Y-58927232D01*
X56897794Y-58927234D01*
X56852414Y-59030009D01*
X56849500Y-59055129D01*
X56849500Y-60844859D01*
X56849501Y-60844866D01*
X56852414Y-60869990D01*
X56852416Y-60869994D01*
X56897793Y-60972765D01*
X56977232Y-61052204D01*
X56977234Y-61052205D01*
X56977235Y-61052206D01*
X57080009Y-61097585D01*
X57105135Y-61100500D01*
X57812175Y-61100499D01*
X57880294Y-61120501D01*
X57926787Y-61174157D01*
X57936891Y-61244430D01*
X57907398Y-61309011D01*
X57847671Y-61347395D01*
X57835326Y-61350353D01*
X57683805Y-61378677D01*
X57548766Y-61430992D01*
X57503250Y-61439500D01*
X50496750Y-61439500D01*
X50451234Y-61430992D01*
X50316199Y-61378679D01*
X50254508Y-61367147D01*
X50164671Y-61350353D01*
X50101387Y-61318175D01*
X50065545Y-61256889D01*
X50068526Y-61185955D01*
X50109384Y-61127894D01*
X50175146Y-61101139D01*
X50187817Y-61100499D01*
X50894864Y-61100499D01*
X50919991Y-61097585D01*
X51022765Y-61052206D01*
X51102206Y-60972765D01*
X51147585Y-60869991D01*
X51150500Y-60844865D01*
X51150499Y-59055136D01*
X51147585Y-59030009D01*
X51131872Y-58994422D01*
X51102206Y-58927234D01*
X51022767Y-58847795D01*
X51022765Y-58847794D01*
X50919989Y-58802414D01*
X50919990Y-58802414D01*
X50894868Y-58799500D01*
X49105140Y-58799500D01*
X49105133Y-58799501D01*
X49080009Y-58802414D01*
X49080005Y-58802416D01*
X48977234Y-58847793D01*
X48897795Y-58927232D01*
X48897794Y-58927234D01*
X48852414Y-59030009D01*
X48849500Y-59055129D01*
X48849500Y-60844859D01*
X48849501Y-60844866D01*
X48852414Y-60869990D01*
X48852416Y-60869994D01*
X48897793Y-60972765D01*
X48977232Y-61052204D01*
X48977234Y-61052205D01*
X48977235Y-61052206D01*
X49080009Y-61097585D01*
X49105135Y-61100500D01*
X49812175Y-61100499D01*
X49880294Y-61120501D01*
X49926787Y-61174157D01*
X49936891Y-61244430D01*
X49907398Y-61309011D01*
X49847671Y-61347395D01*
X49835326Y-61350353D01*
X49683805Y-61378677D01*
X49522952Y-61440992D01*
X49477436Y-61449500D01*
X42522564Y-61449500D01*
X42477048Y-61440992D01*
X42316199Y-61378679D01*
X42254508Y-61367147D01*
X42164671Y-61350353D01*
X42101387Y-61318175D01*
X42065545Y-61256889D01*
X42068526Y-61185955D01*
X42109384Y-61127894D01*
X42175146Y-61101139D01*
X42187817Y-61100499D01*
X42894864Y-61100499D01*
X42919991Y-61097585D01*
X43022765Y-61052206D01*
X43102206Y-60972765D01*
X43147585Y-60869991D01*
X43150500Y-60844865D01*
X43150499Y-59055136D01*
X43147585Y-59030009D01*
X43131872Y-58994422D01*
X43102206Y-58927234D01*
X43022767Y-58847795D01*
X43022765Y-58847794D01*
X42919989Y-58802414D01*
X42919990Y-58802414D01*
X42894868Y-58799500D01*
X41105140Y-58799500D01*
X41105133Y-58799501D01*
X41080009Y-58802414D01*
X41080005Y-58802416D01*
X40977234Y-58847793D01*
X40897795Y-58927232D01*
X40897794Y-58927234D01*
X40852414Y-59030009D01*
X40849500Y-59055129D01*
X40849500Y-60844859D01*
X40849501Y-60844866D01*
X40852414Y-60869990D01*
X40852416Y-60869994D01*
X40897793Y-60972765D01*
X40977232Y-61052204D01*
X40977234Y-61052205D01*
X40977235Y-61052206D01*
X41080009Y-61097585D01*
X41105135Y-61100500D01*
X41812175Y-61100499D01*
X41880294Y-61120501D01*
X41926787Y-61174157D01*
X41936891Y-61244430D01*
X41907398Y-61309011D01*
X41847671Y-61347395D01*
X41835326Y-61350353D01*
X41683805Y-61378677D01*
X41548766Y-61430992D01*
X41503250Y-61439500D01*
X40477322Y-61439500D01*
X40409201Y-61419498D01*
X40388227Y-61402595D01*
X40087405Y-61101773D01*
X40053379Y-61039461D01*
X40050500Y-61012678D01*
X40050500Y-58554702D01*
X40050804Y-58548522D01*
X40055583Y-58500001D01*
X40055583Y-58499996D01*
X40035301Y-58294072D01*
X40035300Y-58294070D01*
X40035300Y-58294066D01*
X39975232Y-58096045D01*
X39877685Y-57913550D01*
X39877683Y-57913546D01*
X39779308Y-57793677D01*
X39771329Y-57783954D01*
X39746410Y-57753590D01*
X39708707Y-57722648D01*
X39704134Y-57718503D01*
X38661494Y-56675863D01*
X38657350Y-56671290D01*
X38626410Y-56633590D01*
X38466450Y-56502315D01*
X38450819Y-56493960D01*
X38283955Y-56404768D01*
X38283954Y-56404767D01*
X38283953Y-56404767D01*
X38085927Y-56344698D01*
X37880003Y-56324417D01*
X37879998Y-56324417D01*
X37831478Y-56329196D01*
X37825298Y-56329500D01*
X32926499Y-56329500D01*
X32858378Y-56309498D01*
X32811885Y-56255842D01*
X32800499Y-56203500D01*
X32800499Y-55835140D01*
X32800499Y-55835136D01*
X32797585Y-55810009D01*
X32752206Y-55707235D01*
X32752206Y-55707234D01*
X32672767Y-55627795D01*
X32672765Y-55627794D01*
X32569989Y-55582414D01*
X32569990Y-55582414D01*
X32544868Y-55579500D01*
X29455140Y-55579500D01*
X29455133Y-55579501D01*
X29430009Y-55582414D01*
X29430005Y-55582416D01*
X29327234Y-55627793D01*
X29247795Y-55707232D01*
X29247794Y-55707234D01*
X29202414Y-55810009D01*
X29199500Y-55835129D01*
X29199500Y-56654414D01*
X29179498Y-56722535D01*
X29170901Y-56734346D01*
X29122315Y-56793548D01*
X29122314Y-56793550D01*
X29024768Y-56976045D01*
X28964698Y-57174072D01*
X28944417Y-57379996D01*
X28944417Y-57380003D01*
X26025500Y-57380003D01*
X26025500Y-50001464D01*
X26025534Y-50000000D01*
X26894615Y-50000000D01*
X26914140Y-50347690D01*
X26914141Y-50347693D01*
X26972473Y-50691013D01*
X27049166Y-50957221D01*
X27068880Y-51025648D01*
X27202140Y-51347365D01*
X27202145Y-51347376D01*
X27202152Y-51347388D01*
X27370588Y-51652153D01*
X27370592Y-51652160D01*
X27572109Y-51936172D01*
X27572114Y-51936179D01*
X27672465Y-52048471D01*
X27804161Y-52195839D01*
X27969063Y-52343205D01*
X28063820Y-52427885D01*
X28063827Y-52427890D01*
X28347839Y-52629407D01*
X28347846Y-52629411D01*
X28459783Y-52691275D01*
X28652624Y-52797855D01*
X28974356Y-52931121D01*
X29308987Y-53027527D01*
X29652307Y-53085859D01*
X29652306Y-53085859D01*
X29670793Y-53086897D01*
X30000000Y-53105385D01*
X30347693Y-53085859D01*
X30691013Y-53027527D01*
X31025644Y-52931121D01*
X31347376Y-52797855D01*
X31652164Y-52629405D01*
X31936176Y-52427888D01*
X32195839Y-52195839D01*
X32427888Y-51936176D01*
X32629405Y-51652164D01*
X32797855Y-51347376D01*
X32931121Y-51025644D01*
X33027527Y-50691013D01*
X33085859Y-50347693D01*
X33105385Y-50000000D01*
X126894615Y-50000000D01*
X126914140Y-50347690D01*
X126914141Y-50347693D01*
X126972473Y-50691013D01*
X127049166Y-50957221D01*
X127068880Y-51025648D01*
X127202140Y-51347365D01*
X127202145Y-51347376D01*
X127202152Y-51347388D01*
X127370588Y-51652153D01*
X127370592Y-51652160D01*
X127572109Y-51936172D01*
X127572114Y-51936179D01*
X127672465Y-52048471D01*
X127804161Y-52195839D01*
X127969063Y-52343205D01*
X128063820Y-52427885D01*
X128063827Y-52427890D01*
X128347839Y-52629407D01*
X128347846Y-52629411D01*
X128459783Y-52691275D01*
X128652624Y-52797855D01*
X128974356Y-52931121D01*
X129308987Y-53027527D01*
X129652307Y-53085859D01*
X129652306Y-53085859D01*
X129670793Y-53086897D01*
X130000000Y-53105385D01*
X130347693Y-53085859D01*
X130691013Y-53027527D01*
X131025644Y-52931121D01*
X131347376Y-52797855D01*
X131652164Y-52629405D01*
X131936176Y-52427888D01*
X132195839Y-52195839D01*
X132427888Y-51936176D01*
X132629405Y-51652164D01*
X132797855Y-51347376D01*
X132931121Y-51025644D01*
X133027527Y-50691013D01*
X133085859Y-50347693D01*
X133105385Y-50000000D01*
X133085859Y-49652307D01*
X133027527Y-49308987D01*
X132931121Y-48974356D01*
X132797855Y-48652624D01*
X132691275Y-48459783D01*
X132629411Y-48347846D01*
X132629407Y-48347839D01*
X132427890Y-48063827D01*
X132427885Y-48063820D01*
X132290641Y-47910245D01*
X132195839Y-47804161D01*
X132048471Y-47672465D01*
X131936179Y-47572114D01*
X131936172Y-47572109D01*
X131652160Y-47370592D01*
X131652153Y-47370588D01*
X131434402Y-47250242D01*
X131347376Y-47202145D01*
X131347369Y-47202142D01*
X131347365Y-47202140D01*
X131025648Y-47068880D01*
X130957221Y-47049166D01*
X130691013Y-46972473D01*
X130691007Y-46972472D01*
X130691004Y-46972471D01*
X130347687Y-46914140D01*
X130347693Y-46914140D01*
X130000000Y-46894615D01*
X129652309Y-46914140D01*
X129308995Y-46972471D01*
X129308989Y-46972472D01*
X129308987Y-46972473D01*
X129172142Y-47011897D01*
X128974351Y-47068880D01*
X128652634Y-47202140D01*
X128652611Y-47202152D01*
X128347846Y-47370588D01*
X128347839Y-47370592D01*
X128063827Y-47572109D01*
X128063820Y-47572114D01*
X127804161Y-47804161D01*
X127572114Y-48063820D01*
X127572109Y-48063827D01*
X127370592Y-48347839D01*
X127370588Y-48347846D01*
X127202152Y-48652611D01*
X127202140Y-48652634D01*
X127068880Y-48974351D01*
X127011897Y-49172142D01*
X126984614Y-49266847D01*
X126972471Y-49308995D01*
X126914140Y-49652309D01*
X126894615Y-50000000D01*
X33105385Y-50000000D01*
X33085859Y-49652307D01*
X33027527Y-49308987D01*
X32931121Y-48974356D01*
X32797855Y-48652624D01*
X32691275Y-48459783D01*
X32629411Y-48347846D01*
X32629407Y-48347839D01*
X32427890Y-48063827D01*
X32427885Y-48063820D01*
X32290641Y-47910245D01*
X32195839Y-47804161D01*
X32048471Y-47672465D01*
X31936179Y-47572114D01*
X31936172Y-47572109D01*
X31652160Y-47370592D01*
X31652153Y-47370588D01*
X31434402Y-47250242D01*
X31347376Y-47202145D01*
X31347369Y-47202142D01*
X31347365Y-47202140D01*
X31025648Y-47068880D01*
X30957221Y-47049166D01*
X30691013Y-46972473D01*
X30691007Y-46972472D01*
X30691004Y-46972471D01*
X30347687Y-46914140D01*
X30347693Y-46914140D01*
X30000000Y-46894615D01*
X29652309Y-46914140D01*
X29308995Y-46972471D01*
X29308989Y-46972472D01*
X29308987Y-46972473D01*
X29172142Y-47011897D01*
X28974351Y-47068880D01*
X28652634Y-47202140D01*
X28652611Y-47202152D01*
X28347846Y-47370588D01*
X28347839Y-47370592D01*
X28063827Y-47572109D01*
X28063820Y-47572114D01*
X27804161Y-47804161D01*
X27572114Y-48063820D01*
X27572109Y-48063827D01*
X27370592Y-48347839D01*
X27370588Y-48347846D01*
X27202152Y-48652611D01*
X27202140Y-48652634D01*
X27068880Y-48974351D01*
X27011897Y-49172142D01*
X26984614Y-49266847D01*
X26972471Y-49308995D01*
X26914140Y-49652309D01*
X26894615Y-50000000D01*
X26025534Y-50000000D01*
X26025567Y-49998554D01*
X26042321Y-49636187D01*
X26042858Y-49630390D01*
X26068961Y-49443258D01*
X26092773Y-49272549D01*
X26093835Y-49266871D01*
X26176561Y-48915142D01*
X26178150Y-48909563D01*
X26241898Y-48719364D01*
X26292968Y-48566990D01*
X26295056Y-48561600D01*
X26441006Y-48231055D01*
X26443575Y-48225894D01*
X26619406Y-47910218D01*
X26622445Y-47905310D01*
X26826643Y-47607219D01*
X26830126Y-47602606D01*
X27060953Y-47324630D01*
X27064854Y-47320351D01*
X27320351Y-47064854D01*
X27324632Y-47060953D01*
X27602606Y-46830126D01*
X27607219Y-46826643D01*
X27905310Y-46622445D01*
X27910218Y-46619406D01*
X28225894Y-46443575D01*
X28231055Y-46441006D01*
X28561600Y-46295056D01*
X28566990Y-46292968D01*
X28909564Y-46178149D01*
X28915142Y-46176561D01*
X29266871Y-46093835D01*
X29272549Y-46092773D01*
X29630389Y-46042858D01*
X29636187Y-46042321D01*
X29998556Y-46025567D01*
X30001466Y-46025500D01*
X30008285Y-46025500D01*
X129991715Y-46025500D01*
X129998534Y-46025500D01*
X130001444Y-46025567D01*
G37*
G04 #@! TD.AperFunction*
G04 #@! TD*
M02*
